M48
; DRILL file {KiCad (5.1.9)-1} date 04/21/21 23:56:00
; FORMAT={-:-/ absolute / metric / decimal}
; #@! TF.CreationDate,2021-04-21T23:56:00+08:00
; #@! TF.GenerationSoftware,Kicad,Pcbnew,(5.1.9)-1
; #@! TF.FileFunction,Plated,1,2,PTH
FMAT,2
METRIC
T1C0.400
T2C1.100
T3C2.200
%
G90
G05
T1
X122.0Y-55.2
X122.0Y-56.6
X122.4Y-54.5
X122.4Y-55.9
X122.8Y-55.2
X122.8Y-56.6
X123.2Y-54.5
X123.2Y-55.9
X123.6Y-55.2
X123.6Y-56.6
X124.0Y-54.5
X124.0Y-55.9
X124.4Y-55.2
X124.4Y-56.6
X124.8Y-54.5
X124.8Y-55.9
X125.1Y-73.6
X125.2Y-55.2
X125.2Y-56.6
X125.6Y-54.5
X125.6Y-55.9
X126.0Y-55.2
X126.0Y-56.6
X126.4Y-54.5
X126.4Y-55.9
X126.8Y-55.2
X126.8Y-56.6
X127.3Y-62.4
X127.7Y-71.9
X133.5Y-72.4
X135.3Y-62.6
X136.562Y-75.0
X136.562Y-75.0
X137.0Y-72.7
X139.35Y-63.5
X140.194Y-74.994
X140.365Y-60.1
X140.8Y-55.2
X140.9Y-68.0
X140.9Y-68.8
X140.9Y-69.6
X140.9Y-70.4
X141.44Y-54.432
X141.7Y-68.0
X141.7Y-68.8
X141.7Y-69.6
X141.7Y-70.4
X142.1Y-61.3
X142.4Y-73.3
X142.5Y-68.0
X142.5Y-68.8
X142.5Y-69.6
X142.5Y-70.4
X142.839Y-60.1
X143.3Y-68.0
X143.3Y-68.8
X143.3Y-69.6
X143.3Y-70.4
X143.312Y-75.0
X144.0Y-58.0
X145.068Y-67.1
X145.388Y-65.95
X145.8Y-55.5
X146.375Y-63.5
X146.387Y-65.913
X147.7Y-58.0
X147.75Y-72.425
X148.65Y-60.6
X150.425Y-65.5
X151.0Y-70.5
X151.4Y-55.5
X155.0Y-57.0
X155.0Y-58.0
X155.0Y-59.0
X155.0Y-60.0
X155.0Y-63.5
X155.0Y-64.5
X155.0Y-65.5
X155.0Y-66.5
X156.0Y-57.0
X156.0Y-58.0
X156.0Y-59.0
X156.0Y-60.0
X156.0Y-63.5
X156.0Y-64.5
X156.0Y-65.5
X156.0Y-66.5
X157.0Y-57.0
X157.0Y-58.0
X157.0Y-59.0
X157.0Y-60.0
X157.0Y-63.5
X157.0Y-64.5
X157.0Y-65.5
X157.0Y-66.5
X158.0Y-57.0
X158.0Y-58.0
X158.0Y-59.0
X158.0Y-60.0
X158.0Y-63.5
X158.0Y-64.5
X158.0Y-65.5
X158.0Y-66.5
T2
X120.92Y-52.0
X123.46Y-52.0
X126.0Y-52.0
X135.0Y-54.0
X135.0Y-59.08
T3
X114.5Y-53.25
X114.5Y-74.5
X134.0Y-65.75
X156.75Y-53.25
X156.75Y-74.5
T0
M30
