%TF.GenerationSoftware,KiCad,Pcbnew,(5.1.9)-1*%
%TF.CreationDate,2021-04-21T23:55:58+08:00*%
%TF.ProjectId,xhp70-driver,78687037-302d-4647-9269-7665722e6b69,rev?*%
%TF.SameCoordinates,Original*%
%TF.FileFunction,Copper,L1,Top*%
%TF.FilePolarity,Positive*%
%FSLAX46Y46*%
G04 Gerber Fmt 4.6, Leading zero omitted, Abs format (unit mm)*
G04 Created by KiCad (PCBNEW (5.1.9)-1) date 2021-04-21 23:55:58*
%MOMM*%
%LPD*%
G01*
G04 APERTURE LIST*
%TA.AperFunction,SMDPad,CuDef*%
%ADD10R,4.000000X4.000000*%
%TD*%
%TA.AperFunction,SMDPad,CuDef*%
%ADD11R,0.800000X0.900000*%
%TD*%
%TA.AperFunction,ComponentPad*%
%ADD12C,3.500000*%
%TD*%
%TA.AperFunction,ComponentPad*%
%ADD13O,1.905000X2.000000*%
%TD*%
%TA.AperFunction,ComponentPad*%
%ADD14R,1.905000X2.000000*%
%TD*%
%TA.AperFunction,ComponentPad*%
%ADD15O,2.000000X2.000000*%
%TD*%
%TA.AperFunction,ComponentPad*%
%ADD16R,2.000000X2.000000*%
%TD*%
%TA.AperFunction,SMDPad,CuDef*%
%ADD17R,0.650000X1.700000*%
%TD*%
%TA.AperFunction,SMDPad,CuDef*%
%ADD18R,2.940000X2.720000*%
%TD*%
%TA.AperFunction,SMDPad,CuDef*%
%ADD19R,0.350000X1.400000*%
%TD*%
%TA.AperFunction,SMDPad,CuDef*%
%ADD20R,5.400000X2.900000*%
%TD*%
%TA.AperFunction,ViaPad*%
%ADD21C,0.800000*%
%TD*%
%TA.AperFunction,Conductor*%
%ADD22C,0.400000*%
%TD*%
%TA.AperFunction,Conductor*%
%ADD23C,0.250000*%
%TD*%
%TA.AperFunction,Conductor*%
%ADD24C,3.000000*%
%TD*%
%TA.AperFunction,Conductor*%
%ADD25C,2.500000*%
%TD*%
%TA.AperFunction,Conductor*%
%ADD26C,1.000000*%
%TD*%
%TA.AperFunction,Conductor*%
%ADD27C,0.254000*%
%TD*%
%TA.AperFunction,Conductor*%
%ADD28C,0.100000*%
%TD*%
G04 APERTURE END LIST*
D10*
%TO.P,D2,2*%
%TO.N,Net-(C3-Pad2)*%
X114499999Y-67500000D03*
%TO.P,D2,1*%
%TO.N,Net-(C3-Pad1)*%
X114499999Y-61000000D03*
%TD*%
D11*
%TO.P,U3,3*%
%TO.N,GND*%
X146000000Y-58000000D03*
%TO.P,U3,2*%
%TO.N,Batt+*%
X146950000Y-60000000D03*
%TO.P,U3,1*%
%TO.N,+5V*%
X145050000Y-60000000D03*
%TD*%
%TO.P,C8,2*%
%TO.N,GND*%
%TA.AperFunction,SMDPad,CuDef*%
G36*
G01*
X148700000Y-56475000D02*
X148700000Y-55525000D01*
G75*
G02*
X148950000Y-55275000I250000J0D01*
G01*
X149450000Y-55275000D01*
G75*
G02*
X149700000Y-55525000I0J-250000D01*
G01*
X149700000Y-56475000D01*
G75*
G02*
X149450000Y-56725000I-250000J0D01*
G01*
X148950000Y-56725000D01*
G75*
G02*
X148700000Y-56475000I0J250000D01*
G01*
G37*
%TD.AperFunction*%
%TO.P,C8,1*%
%TO.N,+5V*%
%TA.AperFunction,SMDPad,CuDef*%
G36*
G01*
X146800000Y-56475000D02*
X146800000Y-55525000D01*
G75*
G02*
X147050000Y-55275000I250000J0D01*
G01*
X147550000Y-55275000D01*
G75*
G02*
X147800000Y-55525000I0J-250000D01*
G01*
X147800000Y-56475000D01*
G75*
G02*
X147550000Y-56725000I-250000J0D01*
G01*
X147050000Y-56725000D01*
G75*
G02*
X146800000Y-56475000I0J250000D01*
G01*
G37*
%TD.AperFunction*%
%TD*%
D12*
%TO.P,H3,1*%
%TO.N,N/C*%
X156750000Y-74500000D03*
%TD*%
%TO.P,J2,MP*%
%TO.N,N/C*%
%TA.AperFunction,SMDPad,CuDef*%
G36*
G01*
X152299999Y-70200000D02*
X153600001Y-70200000D01*
G75*
G02*
X153850000Y-70449999I0J-249999D01*
G01*
X153850000Y-71150001D01*
G75*
G02*
X153600001Y-71400000I-249999J0D01*
G01*
X152299999Y-71400000D01*
G75*
G02*
X152050000Y-71150001I0J249999D01*
G01*
X152050000Y-70449999D01*
G75*
G02*
X152299999Y-70200000I249999J0D01*
G01*
G37*
%TD.AperFunction*%
%TA.AperFunction,SMDPad,CuDef*%
G36*
G01*
X152299999Y-62600000D02*
X153600001Y-62600000D01*
G75*
G02*
X153850000Y-62849999I0J-249999D01*
G01*
X153850000Y-63550001D01*
G75*
G02*
X153600001Y-63800000I-249999J0D01*
G01*
X152299999Y-63800000D01*
G75*
G02*
X152050000Y-63550001I0J249999D01*
G01*
X152050000Y-62849999D01*
G75*
G02*
X152299999Y-62600000I249999J0D01*
G01*
G37*
%TD.AperFunction*%
%TO.P,J2,6*%
%TO.N,GND*%
%TA.AperFunction,SMDPad,CuDef*%
G36*
G01*
X149800000Y-69200000D02*
X151050000Y-69200000D01*
G75*
G02*
X151200000Y-69350000I0J-150000D01*
G01*
X151200000Y-69650000D01*
G75*
G02*
X151050000Y-69800000I-150000J0D01*
G01*
X149800000Y-69800000D01*
G75*
G02*
X149650000Y-69650000I0J150000D01*
G01*
X149650000Y-69350000D01*
G75*
G02*
X149800000Y-69200000I150000J0D01*
G01*
G37*
%TD.AperFunction*%
%TO.P,J2,5*%
%TO.N,Net-(J2-Pad5)*%
%TA.AperFunction,SMDPad,CuDef*%
G36*
G01*
X149800000Y-68200000D02*
X151050000Y-68200000D01*
G75*
G02*
X151200000Y-68350000I0J-150000D01*
G01*
X151200000Y-68650000D01*
G75*
G02*
X151050000Y-68800000I-150000J0D01*
G01*
X149800000Y-68800000D01*
G75*
G02*
X149650000Y-68650000I0J150000D01*
G01*
X149650000Y-68350000D01*
G75*
G02*
X149800000Y-68200000I150000J0D01*
G01*
G37*
%TD.AperFunction*%
%TO.P,J2,4*%
%TO.N,EC_Int*%
%TA.AperFunction,SMDPad,CuDef*%
G36*
G01*
X149800000Y-67200000D02*
X151050000Y-67200000D01*
G75*
G02*
X151200000Y-67350000I0J-150000D01*
G01*
X151200000Y-67650000D01*
G75*
G02*
X151050000Y-67800000I-150000J0D01*
G01*
X149800000Y-67800000D01*
G75*
G02*
X149650000Y-67650000I0J150000D01*
G01*
X149650000Y-67350000D01*
G75*
G02*
X149800000Y-67200000I150000J0D01*
G01*
G37*
%TD.AperFunction*%
%TO.P,J2,3*%
%TO.N,EC_B*%
%TA.AperFunction,SMDPad,CuDef*%
G36*
G01*
X149800000Y-66200000D02*
X151050000Y-66200000D01*
G75*
G02*
X151200000Y-66350000I0J-150000D01*
G01*
X151200000Y-66650000D01*
G75*
G02*
X151050000Y-66800000I-150000J0D01*
G01*
X149800000Y-66800000D01*
G75*
G02*
X149650000Y-66650000I0J150000D01*
G01*
X149650000Y-66350000D01*
G75*
G02*
X149800000Y-66200000I150000J0D01*
G01*
G37*
%TD.AperFunction*%
%TO.P,J2,2*%
%TO.N,+5V*%
%TA.AperFunction,SMDPad,CuDef*%
G36*
G01*
X149800000Y-65200000D02*
X151050000Y-65200000D01*
G75*
G02*
X151200000Y-65350000I0J-150000D01*
G01*
X151200000Y-65650000D01*
G75*
G02*
X151050000Y-65800000I-150000J0D01*
G01*
X149800000Y-65800000D01*
G75*
G02*
X149650000Y-65650000I0J150000D01*
G01*
X149650000Y-65350000D01*
G75*
G02*
X149800000Y-65200000I150000J0D01*
G01*
G37*
%TD.AperFunction*%
%TO.P,J2,1*%
%TO.N,EC_A*%
%TA.AperFunction,SMDPad,CuDef*%
G36*
G01*
X149800000Y-64200000D02*
X151050000Y-64200000D01*
G75*
G02*
X151200000Y-64350000I0J-150000D01*
G01*
X151200000Y-64650000D01*
G75*
G02*
X151050000Y-64800000I-150000J0D01*
G01*
X149800000Y-64800000D01*
G75*
G02*
X149650000Y-64650000I0J150000D01*
G01*
X149650000Y-64350000D01*
G75*
G02*
X149800000Y-64200000I150000J0D01*
G01*
G37*
%TD.AperFunction*%
%TD*%
D13*
%TO.P,Q1,3*%
%TO.N,GND*%
X120920000Y-52000000D03*
%TO.P,Q1,2*%
%TO.N,Net-(D1-Pad2)*%
X123460000Y-52000000D03*
D14*
%TO.P,Q1,1*%
%TO.N,Net-(Q1-Pad1)*%
X126000000Y-52000000D03*
%TD*%
D15*
%TO.P,D1,2*%
%TO.N,Net-(D1-Pad2)*%
X135000000Y-59080000D03*
D16*
%TO.P,D1,1*%
%TO.N,Batt+*%
X135000000Y-54000000D03*
%TD*%
D17*
%TO.P,U2,8*%
%TO.N,+5V*%
X139095000Y-52350000D03*
%TO.P,U2,7*%
%TO.N,EC_B*%
X140365000Y-52350000D03*
%TO.P,U2,6*%
%TO.N,EC_A*%
X141635000Y-52350000D03*
%TO.P,U2,5*%
%TO.N,EC_Int*%
X142905000Y-52350000D03*
%TO.P,U2,4*%
%TO.N,GND*%
X142905000Y-59650000D03*
%TO.P,U2,3*%
%TO.N,PWM*%
X141635000Y-59650000D03*
%TO.P,U2,2*%
%TO.N,NTC*%
X140365000Y-59650000D03*
%TO.P,U2,1*%
%TO.N,Net-(J2-Pad5)*%
X139095000Y-59650000D03*
%TD*%
D18*
%TO.P,U1,17*%
%TO.N,GND*%
X142000000Y-69000000D03*
D19*
%TO.P,U1,8*%
%TO.N,Net-(U1-Pad8)*%
X139725000Y-66300000D03*
%TO.P,U1,9*%
%TO.N,Net-(U1-Pad9)*%
X139725000Y-71700000D03*
%TO.P,U1,7*%
%TO.N,GND*%
X140375000Y-66300000D03*
%TO.P,U1,10*%
%TO.N,Net-(R3-Pad2)*%
X140375000Y-71700000D03*
%TO.P,U1,6*%
%TO.N,GND*%
X141025000Y-66300000D03*
%TO.P,U1,11*%
%TO.N,Batt+*%
X141025000Y-71700000D03*
%TO.P,U1,5*%
%TO.N,Net-(U1-Pad5)*%
X141675000Y-66300000D03*
%TO.P,U1,12*%
%TO.N,Batt+*%
X141675000Y-71700000D03*
%TO.P,U1,4*%
%TO.N,Net-(C6-Pad1)*%
X142325000Y-66300000D03*
%TO.P,U1,13*%
%TO.N,Net-(C3-Pad2)*%
X142325000Y-71700000D03*
%TO.P,U1,3*%
%TO.N,Net-(U1-Pad1)*%
X142975000Y-66300000D03*
%TO.P,U1,14*%
%TO.N,Net-(U1-Pad14)*%
X142975000Y-71700000D03*
%TO.P,U1,2*%
%TO.N,Net-(U1-Pad1)*%
X143625000Y-66300000D03*
%TO.P,U1,15*%
%TO.N,PWM*%
X143625000Y-71700000D03*
%TO.P,U1,1*%
%TO.N,Net-(U1-Pad1)*%
X144275000Y-66300000D03*
%TO.P,U1,16*%
X144275000Y-71700000D03*
%TD*%
%TO.P,R5,MP*%
%TO.N,N/C*%
%TA.AperFunction,SMDPad,CuDef*%
G36*
G01*
X147050000Y-74299999D02*
X147050000Y-75600001D01*
G75*
G02*
X146800001Y-75850000I-249999J0D01*
G01*
X146099999Y-75850000D01*
G75*
G02*
X145850000Y-75600001I0J249999D01*
G01*
X145850000Y-74299999D01*
G75*
G02*
X146099999Y-74050000I249999J0D01*
G01*
X146800001Y-74050000D01*
G75*
G02*
X147050000Y-74299999I0J-249999D01*
G01*
G37*
%TD.AperFunction*%
%TA.AperFunction,SMDPad,CuDef*%
G36*
G01*
X150650000Y-74299999D02*
X150650000Y-75600001D01*
G75*
G02*
X150400001Y-75850000I-249999J0D01*
G01*
X149699999Y-75850000D01*
G75*
G02*
X149450000Y-75600001I0J249999D01*
G01*
X149450000Y-74299999D01*
G75*
G02*
X149699999Y-74050000I249999J0D01*
G01*
X150400001Y-74050000D01*
G75*
G02*
X150650000Y-74299999I0J-249999D01*
G01*
G37*
%TD.AperFunction*%
%TO.P,R5,2*%
%TO.N,GND*%
%TA.AperFunction,SMDPad,CuDef*%
G36*
G01*
X148050000Y-71800000D02*
X148050000Y-73050000D01*
G75*
G02*
X147900000Y-73200000I-150000J0D01*
G01*
X147600000Y-73200000D01*
G75*
G02*
X147450000Y-73050000I0J150000D01*
G01*
X147450000Y-71800000D01*
G75*
G02*
X147600000Y-71650000I150000J0D01*
G01*
X147900000Y-71650000D01*
G75*
G02*
X148050000Y-71800000I0J-150000D01*
G01*
G37*
%TD.AperFunction*%
%TO.P,R5,1*%
%TO.N,NTC*%
%TA.AperFunction,SMDPad,CuDef*%
G36*
G01*
X149050000Y-71800000D02*
X149050000Y-73050000D01*
G75*
G02*
X148900000Y-73200000I-150000J0D01*
G01*
X148600000Y-73200000D01*
G75*
G02*
X148450000Y-73050000I0J150000D01*
G01*
X148450000Y-71800000D01*
G75*
G02*
X148600000Y-71650000I150000J0D01*
G01*
X148900000Y-71650000D01*
G75*
G02*
X149050000Y-71800000I0J-150000D01*
G01*
G37*
%TD.AperFunction*%
%TD*%
%TO.P,R4,2*%
%TO.N,NTC*%
%TA.AperFunction,SMDPad,CuDef*%
G36*
G01*
X147450002Y-68512500D02*
X146549998Y-68512500D01*
G75*
G02*
X146300000Y-68262502I0J249998D01*
G01*
X146300000Y-67737498D01*
G75*
G02*
X146549998Y-67487500I249998J0D01*
G01*
X147450002Y-67487500D01*
G75*
G02*
X147700000Y-67737498I0J-249998D01*
G01*
X147700000Y-68262502D01*
G75*
G02*
X147450002Y-68512500I-249998J0D01*
G01*
G37*
%TD.AperFunction*%
%TO.P,R4,1*%
%TO.N,+5V*%
%TA.AperFunction,SMDPad,CuDef*%
G36*
G01*
X147450002Y-70337500D02*
X146549998Y-70337500D01*
G75*
G02*
X146300000Y-70087502I0J249998D01*
G01*
X146300000Y-69562498D01*
G75*
G02*
X146549998Y-69312500I249998J0D01*
G01*
X147450002Y-69312500D01*
G75*
G02*
X147700000Y-69562498I0J-249998D01*
G01*
X147700000Y-70087502D01*
G75*
G02*
X147450002Y-70337500I-249998J0D01*
G01*
G37*
%TD.AperFunction*%
%TD*%
%TO.P,R3,2*%
%TO.N,Net-(R3-Pad2)*%
%TA.AperFunction,SMDPad,CuDef*%
G36*
G01*
X136650000Y-69200002D02*
X136650000Y-68299998D01*
G75*
G02*
X136899998Y-68050000I249998J0D01*
G01*
X137425002Y-68050000D01*
G75*
G02*
X137675000Y-68299998I0J-249998D01*
G01*
X137675000Y-69200002D01*
G75*
G02*
X137425002Y-69450000I-249998J0D01*
G01*
X136899998Y-69450000D01*
G75*
G02*
X136650000Y-69200002I0J249998D01*
G01*
G37*
%TD.AperFunction*%
%TO.P,R3,1*%
%TO.N,Net-(Q1-Pad1)*%
%TA.AperFunction,SMDPad,CuDef*%
G36*
G01*
X134825000Y-69200002D02*
X134825000Y-68299998D01*
G75*
G02*
X135074998Y-68050000I249998J0D01*
G01*
X135600002Y-68050000D01*
G75*
G02*
X135850000Y-68299998I0J-249998D01*
G01*
X135850000Y-69200002D01*
G75*
G02*
X135600002Y-69450000I-249998J0D01*
G01*
X135074998Y-69450000D01*
G75*
G02*
X134825000Y-69200002I0J249998D01*
G01*
G37*
%TD.AperFunction*%
%TD*%
%TO.P,R2,2*%
%TO.N,Net-(C3-Pad2)*%
%TA.AperFunction,SMDPad,CuDef*%
G36*
G01*
X124687500Y-68574999D02*
X124687500Y-71425001D01*
G75*
G02*
X124437501Y-71675000I-249999J0D01*
G01*
X123712499Y-71675000D01*
G75*
G02*
X123462500Y-71425001I0J249999D01*
G01*
X123462500Y-68574999D01*
G75*
G02*
X123712499Y-68325000I249999J0D01*
G01*
X124437501Y-68325000D01*
G75*
G02*
X124687500Y-68574999I0J-249999D01*
G01*
G37*
%TD.AperFunction*%
%TO.P,R2,1*%
%TO.N,Batt+*%
%TA.AperFunction,SMDPad,CuDef*%
G36*
G01*
X130612500Y-68574999D02*
X130612500Y-71425001D01*
G75*
G02*
X130362501Y-71675000I-249999J0D01*
G01*
X129637499Y-71675000D01*
G75*
G02*
X129387500Y-71425001I0J249999D01*
G01*
X129387500Y-68574999D01*
G75*
G02*
X129637499Y-68325000I249999J0D01*
G01*
X130362501Y-68325000D01*
G75*
G02*
X130612500Y-68574999I0J-249999D01*
G01*
G37*
%TD.AperFunction*%
%TD*%
%TO.P,R1,2*%
%TO.N,Net-(C3-Pad2)*%
%TA.AperFunction,SMDPad,CuDef*%
G36*
G01*
X124650000Y-72574999D02*
X124650000Y-75425001D01*
G75*
G02*
X124400001Y-75675000I-249999J0D01*
G01*
X123674999Y-75675000D01*
G75*
G02*
X123425000Y-75425001I0J249999D01*
G01*
X123425000Y-72574999D01*
G75*
G02*
X123674999Y-72325000I249999J0D01*
G01*
X124400001Y-72325000D01*
G75*
G02*
X124650000Y-72574999I0J-249999D01*
G01*
G37*
%TD.AperFunction*%
%TO.P,R1,1*%
%TO.N,Batt+*%
%TA.AperFunction,SMDPad,CuDef*%
G36*
G01*
X130575000Y-72574999D02*
X130575000Y-75425001D01*
G75*
G02*
X130325001Y-75675000I-249999J0D01*
G01*
X129599999Y-75675000D01*
G75*
G02*
X129350000Y-75425001I0J249999D01*
G01*
X129350000Y-72574999D01*
G75*
G02*
X129599999Y-72325000I249999J0D01*
G01*
X130325001Y-72325000D01*
G75*
G02*
X130575000Y-72574999I0J-249999D01*
G01*
G37*
%TD.AperFunction*%
%TD*%
D20*
%TO.P,L1,2*%
%TO.N,Net-(D1-Pad2)*%
X124500000Y-55500000D03*
%TO.P,L1,1*%
%TO.N,Net-(C3-Pad1)*%
X124500000Y-65400000D03*
%TD*%
D10*
%TO.P,J1,2*%
%TO.N,GND*%
X156500000Y-65000000D03*
%TO.P,J1,1*%
%TO.N,Batt+*%
X156500000Y-58500000D03*
%TD*%
%TO.P,C6,2*%
%TO.N,GND*%
%TA.AperFunction,SMDPad,CuDef*%
G36*
G01*
X139850000Y-63025000D02*
X139850000Y-63975000D01*
G75*
G02*
X139600000Y-64225000I-250000J0D01*
G01*
X139100000Y-64225000D01*
G75*
G02*
X138850000Y-63975000I0J250000D01*
G01*
X138850000Y-63025000D01*
G75*
G02*
X139100000Y-62775000I250000J0D01*
G01*
X139600000Y-62775000D01*
G75*
G02*
X139850000Y-63025000I0J-250000D01*
G01*
G37*
%TD.AperFunction*%
%TO.P,C6,1*%
%TO.N,Net-(C6-Pad1)*%
%TA.AperFunction,SMDPad,CuDef*%
G36*
G01*
X141750000Y-63025000D02*
X141750000Y-63975000D01*
G75*
G02*
X141500000Y-64225000I-250000J0D01*
G01*
X141000000Y-64225000D01*
G75*
G02*
X140750000Y-63975000I0J250000D01*
G01*
X140750000Y-63025000D01*
G75*
G02*
X141000000Y-62775000I250000J0D01*
G01*
X141500000Y-62775000D01*
G75*
G02*
X141750000Y-63025000I0J-250000D01*
G01*
G37*
%TD.AperFunction*%
%TD*%
%TO.P,C5,2*%
%TO.N,GND*%
%TA.AperFunction,SMDPad,CuDef*%
G36*
G01*
X136525000Y-72200000D02*
X137475000Y-72200000D01*
G75*
G02*
X137725000Y-72450000I0J-250000D01*
G01*
X137725000Y-72950000D01*
G75*
G02*
X137475000Y-73200000I-250000J0D01*
G01*
X136525000Y-73200000D01*
G75*
G02*
X136275000Y-72950000I0J250000D01*
G01*
X136275000Y-72450000D01*
G75*
G02*
X136525000Y-72200000I250000J0D01*
G01*
G37*
%TD.AperFunction*%
%TO.P,C5,1*%
%TO.N,Batt+*%
%TA.AperFunction,SMDPad,CuDef*%
G36*
G01*
X136525000Y-70300000D02*
X137475000Y-70300000D01*
G75*
G02*
X137725000Y-70550000I0J-250000D01*
G01*
X137725000Y-71050000D01*
G75*
G02*
X137475000Y-71300000I-250000J0D01*
G01*
X136525000Y-71300000D01*
G75*
G02*
X136275000Y-71050000I0J250000D01*
G01*
X136275000Y-70550000D01*
G75*
G02*
X136525000Y-70300000I250000J0D01*
G01*
G37*
%TD.AperFunction*%
%TD*%
%TO.P,C4,2*%
%TO.N,GND*%
%TA.AperFunction,SMDPad,CuDef*%
G36*
G01*
X145712500Y-64150003D02*
X145712500Y-62849997D01*
G75*
G02*
X145962497Y-62600000I249997J0D01*
G01*
X146787503Y-62600000D01*
G75*
G02*
X147037500Y-62849997I0J-249997D01*
G01*
X147037500Y-64150003D01*
G75*
G02*
X146787503Y-64400000I-249997J0D01*
G01*
X145962497Y-64400000D01*
G75*
G02*
X145712500Y-64150003I0J249997D01*
G01*
G37*
%TD.AperFunction*%
%TO.P,C4,1*%
%TO.N,Batt+*%
%TA.AperFunction,SMDPad,CuDef*%
G36*
G01*
X142587500Y-64150003D02*
X142587500Y-62849997D01*
G75*
G02*
X142837497Y-62600000I249997J0D01*
G01*
X143662503Y-62600000D01*
G75*
G02*
X143912500Y-62849997I0J-249997D01*
G01*
X143912500Y-64150003D01*
G75*
G02*
X143662503Y-64400000I-249997J0D01*
G01*
X142837497Y-64400000D01*
G75*
G02*
X142587500Y-64150003I0J249997D01*
G01*
G37*
%TD.AperFunction*%
%TD*%
%TO.P,C3,2*%
%TO.N,Net-(C3-Pad2)*%
%TA.AperFunction,SMDPad,CuDef*%
G36*
G01*
X135900000Y-75650003D02*
X135900000Y-74349997D01*
G75*
G02*
X136149997Y-74100000I249997J0D01*
G01*
X136975003Y-74100000D01*
G75*
G02*
X137225000Y-74349997I0J-249997D01*
G01*
X137225000Y-75650003D01*
G75*
G02*
X136975003Y-75900000I-249997J0D01*
G01*
X136149997Y-75900000D01*
G75*
G02*
X135900000Y-75650003I0J249997D01*
G01*
G37*
%TD.AperFunction*%
%TO.P,C3,1*%
%TO.N,Net-(C3-Pad1)*%
%TA.AperFunction,SMDPad,CuDef*%
G36*
G01*
X132775000Y-75650003D02*
X132775000Y-74349997D01*
G75*
G02*
X133024997Y-74100000I249997J0D01*
G01*
X133850003Y-74100000D01*
G75*
G02*
X134100000Y-74349997I0J-249997D01*
G01*
X134100000Y-75650003D01*
G75*
G02*
X133850003Y-75900000I-249997J0D01*
G01*
X133024997Y-75900000D01*
G75*
G02*
X132775000Y-75650003I0J249997D01*
G01*
G37*
%TD.AperFunction*%
%TD*%
%TO.P,C2,2*%
%TO.N,GND*%
%TA.AperFunction,SMDPad,CuDef*%
G36*
G01*
X142650000Y-75650003D02*
X142650000Y-74349997D01*
G75*
G02*
X142899997Y-74100000I249997J0D01*
G01*
X143725003Y-74100000D01*
G75*
G02*
X143975000Y-74349997I0J-249997D01*
G01*
X143975000Y-75650003D01*
G75*
G02*
X143725003Y-75900000I-249997J0D01*
G01*
X142899997Y-75900000D01*
G75*
G02*
X142650000Y-75650003I0J249997D01*
G01*
G37*
%TD.AperFunction*%
%TO.P,C2,1*%
%TO.N,Batt+*%
%TA.AperFunction,SMDPad,CuDef*%
G36*
G01*
X139525000Y-75650003D02*
X139525000Y-74349997D01*
G75*
G02*
X139774997Y-74100000I249997J0D01*
G01*
X140600003Y-74100000D01*
G75*
G02*
X140850000Y-74349997I0J-249997D01*
G01*
X140850000Y-75650003D01*
G75*
G02*
X140600003Y-75900000I-249997J0D01*
G01*
X139774997Y-75900000D01*
G75*
G02*
X139525000Y-75650003I0J249997D01*
G01*
G37*
%TD.AperFunction*%
%TD*%
D12*
%TO.P,H1,1*%
%TO.N,N/C*%
X114500000Y-53250000D03*
%TD*%
%TO.P,H5,1*%
%TO.N,N/C*%
X134000000Y-65750000D03*
%TD*%
%TO.P,H4,1*%
%TO.N,N/C*%
X156750000Y-53250000D03*
%TD*%
%TO.P,H2,1*%
%TO.N,N/C*%
X114500000Y-74500000D03*
%TD*%
D21*
%TO.N,Net-(D1-Pad2)*%
X122000000Y-55200000D03*
X122800000Y-55200000D03*
X123600000Y-55200000D03*
X124400000Y-55200000D03*
X125200000Y-55200000D03*
X126000000Y-55200000D03*
X126800000Y-55200000D03*
X126400000Y-54500000D03*
X125600000Y-54500000D03*
X124800000Y-54500000D03*
X124000000Y-54500000D03*
X123200000Y-54500000D03*
X122400000Y-54500000D03*
%TO.N,GND*%
X137000000Y-72700000D03*
X158000000Y-63500000D03*
X157000000Y-63500000D03*
X156000000Y-63500000D03*
X155000000Y-63500000D03*
X155000000Y-64500000D03*
X156000000Y-64500000D03*
X157000000Y-64500000D03*
X158000000Y-64500000D03*
X156000000Y-66500000D03*
X157000000Y-66500000D03*
X158000000Y-66500000D03*
X155000000Y-66500000D03*
X155000000Y-65500000D03*
X156000000Y-65500000D03*
X158000000Y-65500000D03*
X157000000Y-65500000D03*
X147750000Y-72425000D03*
X140900000Y-68000000D03*
X141700000Y-68000000D03*
X142500000Y-68000000D03*
X143300000Y-68000000D03*
X140900000Y-68800000D03*
X141700000Y-68800000D03*
X142500000Y-68800000D03*
X143300000Y-68800000D03*
X143300000Y-69600000D03*
X142500000Y-69600000D03*
X141700000Y-69600000D03*
X140900000Y-69600000D03*
X140900000Y-70400000D03*
X141700000Y-70400000D03*
X142500000Y-70400000D03*
X143300000Y-70400000D03*
X139350000Y-63500000D03*
X142838803Y-60100000D03*
X146375000Y-63500000D03*
X151000000Y-70500000D03*
X143312500Y-75000000D03*
X148650000Y-60600000D03*
%TO.N,Net-(C3-Pad2)*%
X125100000Y-73600000D03*
X142400000Y-73300000D03*
X136562500Y-75000000D03*
X136562500Y-75000000D03*
%TO.N,Net-(Q1-Pad1)*%
X127300000Y-62400000D03*
%TO.N,Net-(D1-Pad2)*%
X125200000Y-56600000D03*
X124400000Y-56600000D03*
X122800000Y-56600000D03*
X123600000Y-56600000D03*
X123200000Y-55900000D03*
X124000000Y-55900000D03*
X125600000Y-55900000D03*
X124800000Y-55900000D03*
X126400000Y-55900000D03*
X126800000Y-56600000D03*
X126000000Y-56600000D03*
X122400000Y-55900000D03*
X122000000Y-56600000D03*
%TO.N,Net-(Q1-Pad1)*%
X135300000Y-62600000D03*
%TO.N,Batt+*%
X158000000Y-59000000D03*
X158000000Y-60000000D03*
X157000000Y-60000000D03*
X157000000Y-59000000D03*
X156000000Y-59000000D03*
X156000000Y-60000000D03*
X155000000Y-60000000D03*
X155000000Y-59000000D03*
X155000000Y-58000000D03*
X156000000Y-58000000D03*
X157000000Y-58000000D03*
X158000000Y-58000000D03*
X158000000Y-57000000D03*
X157000000Y-57000000D03*
X156000000Y-57000000D03*
X155000000Y-57000000D03*
X144000000Y-58000000D03*
X140193750Y-74993750D03*
X147700000Y-58000000D03*
%TO.N,PWM*%
X142100000Y-61300000D03*
X146387347Y-65912653D03*
%TO.N,Net-(C3-Pad1)*%
X133500000Y-72400000D03*
X127700000Y-71900000D03*
%TO.N,+5V*%
X145800000Y-55500000D03*
X140800000Y-55200000D03*
X145068094Y-67100001D03*
X150425000Y-65500000D03*
%TO.N,NTC*%
X145388060Y-65950451D03*
X140365000Y-60100000D03*
%TO.N,EC_B*%
X141440186Y-54431777D03*
X151400000Y-55500000D03*
%TD*%
D22*
%TO.N,GND*%
X141025000Y-68025000D02*
X141150000Y-68150000D01*
X141025000Y-66300000D02*
X141025000Y-68025000D01*
X140375000Y-67375000D02*
X142000000Y-69000000D01*
X140375000Y-66300000D02*
X140375000Y-67375000D01*
X140375000Y-64525000D02*
X139350000Y-63500000D01*
X140375000Y-66300000D02*
X140375000Y-64525000D01*
X141150000Y-68150000D02*
X142000000Y-69000000D01*
X150425000Y-69925000D02*
X151000000Y-70500000D01*
X150425000Y-69500000D02*
X150425000Y-69925000D01*
X149200000Y-60050000D02*
X148650000Y-60600000D01*
X149200000Y-56000000D02*
X149200000Y-60050000D01*
X145415999Y-54699999D02*
X147899999Y-54699999D01*
X144999999Y-55115999D02*
X145415999Y-54699999D01*
X144999999Y-56999999D02*
X144999999Y-55115999D01*
X146000000Y-58000000D02*
X144999999Y-56999999D01*
X147899999Y-54699999D02*
X149200000Y-56000000D01*
D23*
%TO.N,Net-(C3-Pad2)*%
X142325000Y-73225000D02*
X142400000Y-73300000D01*
X142325000Y-71700000D02*
X142325000Y-73225000D01*
X135087499Y-76475001D02*
X136562500Y-75000000D01*
X126875001Y-76475001D02*
X135087499Y-76475001D01*
D24*
X114499999Y-67500000D02*
X116999999Y-70000000D01*
X116999999Y-70000000D02*
X124000000Y-70000000D01*
X124000000Y-70000000D02*
X124000000Y-74000000D01*
D23*
X126875001Y-75375001D02*
X125100000Y-73600000D01*
X126875001Y-76475001D02*
X126875001Y-75375001D01*
%TO.N,Net-(Q1-Pad1)*%
X128025001Y-61674999D02*
X127300000Y-62400000D01*
X128025001Y-56822501D02*
X128025001Y-61674999D01*
%TO.N,Net-(D1-Pad2)*%
X126000000Y-56000000D02*
X127202500Y-56000000D01*
%TO.N,Net-(Q1-Pad1)*%
X136075001Y-68012499D02*
X135337500Y-68750000D01*
X136075001Y-63375001D02*
X136075001Y-68012499D01*
X135300000Y-62600000D02*
X136075001Y-63375001D01*
X128025001Y-56822501D02*
X128025001Y-54025001D01*
X128025001Y-54025001D02*
X126000000Y-52000000D01*
%TO.N,Net-(R3-Pad2)*%
X137162500Y-68750000D02*
X138700000Y-70287500D01*
X140375000Y-72650000D02*
X140375000Y-71700000D01*
X139289999Y-72725001D02*
X140299999Y-72725001D01*
X140299999Y-72725001D02*
X140375000Y-72650000D01*
X138700000Y-72135002D02*
X139289999Y-72725001D01*
X138700000Y-70287500D02*
X138700000Y-72135002D01*
D25*
%TO.N,Batt+*%
X129962500Y-59037500D02*
X129962500Y-73787500D01*
D24*
X135000000Y-54000000D02*
X129962500Y-59037500D01*
D23*
X137000000Y-71071412D02*
X137000000Y-70800000D01*
X139103598Y-73175010D02*
X137000000Y-71071412D01*
X140499989Y-73175011D02*
X139103598Y-73175010D01*
X141025000Y-72650000D02*
X140499989Y-73175011D01*
X141025000Y-71700000D02*
X141025000Y-72650000D01*
X133200000Y-70800000D02*
X131250000Y-72750000D01*
X137000000Y-70800000D02*
X133200000Y-70800000D01*
X141025000Y-71700000D02*
X141675000Y-71700000D01*
X141675000Y-73512500D02*
X141675000Y-71700000D01*
X140187500Y-75000000D02*
X140193750Y-74993750D01*
X132325001Y-71674999D02*
X131250000Y-72750000D01*
X133848001Y-71674999D02*
X132325001Y-71674999D01*
X135698012Y-73525010D02*
X133848001Y-71674999D01*
X138712510Y-73525010D02*
X135698012Y-73525010D01*
X140187500Y-75000000D02*
X138712510Y-73525010D01*
X140193750Y-74993750D02*
X141675000Y-73512500D01*
X147700000Y-59250000D02*
X147700000Y-58000000D01*
X146950000Y-60000000D02*
X147700000Y-59250000D01*
X143874989Y-58125011D02*
X144000000Y-58000000D01*
X143874989Y-60325011D02*
X143874989Y-58125011D01*
X143250000Y-60950000D02*
X143874989Y-60325011D01*
X143250000Y-63500000D02*
X143250000Y-60950000D01*
%TO.N,Net-(J2-Pad5)*%
X142699299Y-64824989D02*
X146324989Y-64824989D01*
X150000000Y-68500000D02*
X150675000Y-68500000D01*
X142262490Y-62974300D02*
X142262490Y-64388180D01*
X140483190Y-61195000D02*
X142262490Y-62974300D01*
X139540000Y-61195000D02*
X140483190Y-61195000D01*
X142262490Y-64388180D02*
X142699299Y-64824989D01*
X139095000Y-60750000D02*
X139540000Y-61195000D01*
X139095000Y-59650000D02*
X139095000Y-60750000D01*
X149978232Y-68500000D02*
X150425000Y-68500000D01*
X149324990Y-67846758D02*
X149978232Y-68500000D01*
X146735348Y-65187652D02*
X149324990Y-67777294D01*
X146437652Y-65187652D02*
X146735348Y-65187652D01*
X149324990Y-67777294D02*
X149324990Y-67846758D01*
X146324989Y-65074989D02*
X146437652Y-65187652D01*
X146324989Y-64824989D02*
X146324989Y-65074989D01*
%TO.N,PWM*%
X141635000Y-60835000D02*
X142100000Y-61300000D01*
X141635000Y-59650000D02*
X141635000Y-60835000D01*
X146787346Y-66312652D02*
X147012652Y-66312652D01*
X146387347Y-65912653D02*
X146787346Y-66312652D01*
X148515297Y-67815297D02*
X148515297Y-69309317D01*
X148515297Y-69309317D02*
X149505980Y-70300000D01*
X147012652Y-66312652D02*
X148515297Y-67815297D01*
X149505980Y-70300000D02*
X150000000Y-70300000D01*
X143625000Y-72510002D02*
X143625000Y-71700000D01*
X144640008Y-73525010D02*
X143625000Y-72510002D01*
X149096758Y-73525010D02*
X144640008Y-73525010D01*
X150000000Y-72621768D02*
X149096758Y-73525010D01*
X150000000Y-70300000D02*
X150000000Y-72621768D01*
%TO.N,Net-(C3-Pad1)*%
X133437500Y-72462500D02*
X133500000Y-72400000D01*
D26*
X133437500Y-75000000D02*
X133437500Y-72462500D01*
D24*
X114499999Y-61000000D02*
X120500000Y-61000000D01*
X120500000Y-61000000D02*
X125000000Y-65500000D01*
D26*
X127700000Y-71900000D02*
X127700000Y-68200000D01*
X127700000Y-68200000D02*
X125000000Y-65500000D01*
D23*
%TO.N,Net-(C6-Pad1)*%
X141250000Y-64414998D02*
X142325000Y-65489998D01*
X142325000Y-65489998D02*
X142325000Y-66300000D01*
X141250000Y-63500000D02*
X141250000Y-64414998D01*
D22*
%TO.N,+5V*%
X145050000Y-60099999D02*
X145050001Y-60100000D01*
X145050000Y-60000000D02*
X145050000Y-60099999D01*
D23*
X150675000Y-65500000D02*
X149900000Y-65500000D01*
X146000000Y-55700000D02*
X145800000Y-55500000D01*
X139095000Y-53495000D02*
X139095000Y-52350000D01*
X140800000Y-55200000D02*
X139095000Y-53495000D01*
X146300000Y-56000000D02*
X145800000Y-55500000D01*
X147300000Y-56000000D02*
X146300000Y-56000000D01*
X147000000Y-69825000D02*
X144900000Y-67725000D01*
X144900000Y-67268095D02*
X145068094Y-67100001D01*
X144900000Y-67725000D02*
X144900000Y-67268095D01*
X149650000Y-65500000D02*
X147812520Y-63662520D01*
X150425000Y-65500000D02*
X149650000Y-65500000D01*
X146926409Y-60775001D02*
X145875001Y-60775001D01*
X147812520Y-61661112D02*
X146926409Y-60775001D01*
X147812520Y-63662520D02*
X147812520Y-61661112D01*
X145875001Y-60775001D02*
X145100000Y-60000000D01*
X146974999Y-58460003D02*
X146974999Y-56425001D01*
X145435002Y-60000000D02*
X146974999Y-58460003D01*
X145050000Y-60000000D02*
X145435002Y-60000000D01*
X146974999Y-56425001D02*
X147300000Y-56100000D01*
%TO.N,NTC*%
X147000000Y-68000000D02*
X147000000Y-67564998D01*
X148750000Y-71650000D02*
X148750000Y-72425000D01*
X148025010Y-70925010D02*
X148750000Y-71650000D01*
X148025010Y-69025010D02*
X148025010Y-70925010D01*
X147000000Y-68000000D02*
X148025010Y-69025010D01*
X147000000Y-67562391D02*
X145388060Y-65950451D01*
X147000000Y-68000000D02*
X147000000Y-67562391D01*
%TO.N,Net-(U1-Pad1)*%
X144275000Y-66300000D02*
X143625000Y-66300000D01*
X144275000Y-66300000D02*
X144275000Y-71700000D01*
X142975000Y-66300000D02*
X143625000Y-66300000D01*
%TO.N,EC_Int*%
X144800000Y-54245000D02*
X142905000Y-52350000D01*
X149900000Y-67500000D02*
X147362510Y-64962510D01*
X150675000Y-67500000D02*
X149900000Y-67500000D01*
X147362510Y-62611820D02*
X147362510Y-64962510D01*
X147025680Y-62274990D02*
X147362510Y-62611820D01*
X145889988Y-62274990D02*
X147025680Y-62274990D01*
X144324999Y-60710001D02*
X145889988Y-62274990D01*
X144324999Y-59289999D02*
X144324999Y-60710001D01*
X144725001Y-58889997D02*
X144324999Y-59289999D01*
X144725001Y-57651999D02*
X144725001Y-58889997D01*
X144474989Y-57401987D02*
X144725001Y-57651999D01*
X144474989Y-54570011D02*
X144474989Y-57401987D01*
X144800000Y-54245000D02*
X144474989Y-54570011D01*
%TO.N,EC_B*%
X140365000Y-53356591D02*
X141440186Y-54431777D01*
X140365000Y-52350000D02*
X140365000Y-53356591D01*
X150425000Y-66500000D02*
X151200000Y-66500000D01*
X151500000Y-66500000D02*
X150425000Y-66500000D01*
X151525010Y-66474990D02*
X151500000Y-66500000D01*
X151525010Y-63588200D02*
X151525010Y-66474990D01*
X151400000Y-63463190D02*
X151525010Y-63588200D01*
X151400000Y-55500000D02*
X151400000Y-63463190D01*
%TO.N,EC_A*%
X150425000Y-55686810D02*
X150425000Y-64500000D01*
X145913189Y-51174999D02*
X150425000Y-55686810D01*
X141635000Y-51250000D02*
X141710001Y-51174999D01*
X141710001Y-51174999D02*
X145913189Y-51174999D01*
X141635000Y-52350000D02*
X141635000Y-51250000D01*
%TD*%
D27*
%TO.N,Batt+*%
X137373000Y-55715416D02*
X136104354Y-57872115D01*
X136042252Y-57810013D01*
X135774463Y-57631082D01*
X135476912Y-57507832D01*
X135161033Y-57445000D01*
X134838967Y-57445000D01*
X134523088Y-57507832D01*
X134225537Y-57631082D01*
X133957748Y-57810013D01*
X133730013Y-58037748D01*
X133551082Y-58305537D01*
X133427832Y-58603088D01*
X133365000Y-58918967D01*
X133365000Y-59241033D01*
X133427832Y-59556912D01*
X133551082Y-59854463D01*
X133730013Y-60122252D01*
X133957748Y-60349987D01*
X134225537Y-60528918D01*
X134523088Y-60652168D01*
X134838967Y-60715000D01*
X134873000Y-60715000D01*
X134873000Y-61656593D01*
X134809744Y-61682795D01*
X134640226Y-61796063D01*
X134496063Y-61940226D01*
X134382795Y-62109744D01*
X134304774Y-62298102D01*
X134265000Y-62498061D01*
X134265000Y-62701939D01*
X134304774Y-62901898D01*
X134382795Y-63090256D01*
X134496063Y-63259774D01*
X134640226Y-63403937D01*
X134757359Y-63482203D01*
X134695679Y-63456654D01*
X134234902Y-63365000D01*
X133765098Y-63365000D01*
X133304321Y-63456654D01*
X132870279Y-63636440D01*
X132479651Y-63897450D01*
X132147450Y-64229651D01*
X131886440Y-64620279D01*
X131706654Y-65054321D01*
X131615000Y-65515098D01*
X131615000Y-65984902D01*
X131706654Y-66445679D01*
X131886440Y-66879721D01*
X132147450Y-67270349D01*
X132479651Y-67602550D01*
X132870279Y-67863560D01*
X133304321Y-68043346D01*
X133765098Y-68135000D01*
X134203179Y-68135000D01*
X134186928Y-68299998D01*
X134186928Y-69200002D01*
X134203992Y-69373256D01*
X134254528Y-69539852D01*
X134336595Y-69693387D01*
X134447038Y-69827962D01*
X134581613Y-69938405D01*
X134735148Y-70020472D01*
X134873000Y-70062289D01*
X134873000Y-75614699D01*
X134772698Y-75715001D01*
X134731670Y-75715001D01*
X134738072Y-75650003D01*
X134738072Y-74349997D01*
X134721008Y-74176743D01*
X134670472Y-74010148D01*
X134588405Y-73856612D01*
X134572500Y-73837232D01*
X134572500Y-72406748D01*
X134556077Y-72240001D01*
X134491176Y-72026053D01*
X134385784Y-71828877D01*
X134243949Y-71656051D01*
X134071123Y-71514216D01*
X133873947Y-71408824D01*
X133659999Y-71343923D01*
X133437500Y-71322009D01*
X133215002Y-71343923D01*
X133001054Y-71408824D01*
X132803878Y-71514216D01*
X132631052Y-71656051D01*
X132489217Y-71828877D01*
X132383825Y-72026053D01*
X132318924Y-72240001D01*
X132302501Y-72406748D01*
X132302500Y-73837231D01*
X132286595Y-73856612D01*
X132204528Y-74010148D01*
X132153992Y-74176743D01*
X132136928Y-74349997D01*
X132136928Y-75650003D01*
X132143330Y-75715001D01*
X128377000Y-75715001D01*
X128377000Y-72812685D01*
X128506449Y-72706449D01*
X128648284Y-72533623D01*
X128753676Y-72336447D01*
X128818577Y-72122499D01*
X128835000Y-71955752D01*
X128835000Y-68255752D01*
X128840491Y-68200000D01*
X128818577Y-67977501D01*
X128753676Y-67763553D01*
X128648284Y-67566377D01*
X128541989Y-67436856D01*
X128541987Y-67436854D01*
X128506449Y-67393551D01*
X128463146Y-67358013D01*
X128377000Y-67271867D01*
X128377000Y-62397802D01*
X128536003Y-62238798D01*
X128565002Y-62215000D01*
X128659975Y-62099275D01*
X128730547Y-61967246D01*
X128774004Y-61823985D01*
X128785001Y-61712332D01*
X128785001Y-61712323D01*
X128788677Y-61675000D01*
X128785001Y-61637677D01*
X128785001Y-54062324D01*
X128788677Y-54025001D01*
X128785001Y-53987678D01*
X128785001Y-53987668D01*
X128774004Y-53876015D01*
X128730547Y-53732754D01*
X128659975Y-53600724D01*
X128588800Y-53513998D01*
X128565002Y-53485000D01*
X128536004Y-53461202D01*
X128377000Y-53302198D01*
X128377000Y-51410000D01*
X137373000Y-51410000D01*
X137373000Y-55715416D01*
%TA.AperFunction,Conductor*%
D28*
G36*
X137373000Y-55715416D02*
G01*
X136104354Y-57872115D01*
X136042252Y-57810013D01*
X135774463Y-57631082D01*
X135476912Y-57507832D01*
X135161033Y-57445000D01*
X134838967Y-57445000D01*
X134523088Y-57507832D01*
X134225537Y-57631082D01*
X133957748Y-57810013D01*
X133730013Y-58037748D01*
X133551082Y-58305537D01*
X133427832Y-58603088D01*
X133365000Y-58918967D01*
X133365000Y-59241033D01*
X133427832Y-59556912D01*
X133551082Y-59854463D01*
X133730013Y-60122252D01*
X133957748Y-60349987D01*
X134225537Y-60528918D01*
X134523088Y-60652168D01*
X134838967Y-60715000D01*
X134873000Y-60715000D01*
X134873000Y-61656593D01*
X134809744Y-61682795D01*
X134640226Y-61796063D01*
X134496063Y-61940226D01*
X134382795Y-62109744D01*
X134304774Y-62298102D01*
X134265000Y-62498061D01*
X134265000Y-62701939D01*
X134304774Y-62901898D01*
X134382795Y-63090256D01*
X134496063Y-63259774D01*
X134640226Y-63403937D01*
X134757359Y-63482203D01*
X134695679Y-63456654D01*
X134234902Y-63365000D01*
X133765098Y-63365000D01*
X133304321Y-63456654D01*
X132870279Y-63636440D01*
X132479651Y-63897450D01*
X132147450Y-64229651D01*
X131886440Y-64620279D01*
X131706654Y-65054321D01*
X131615000Y-65515098D01*
X131615000Y-65984902D01*
X131706654Y-66445679D01*
X131886440Y-66879721D01*
X132147450Y-67270349D01*
X132479651Y-67602550D01*
X132870279Y-67863560D01*
X133304321Y-68043346D01*
X133765098Y-68135000D01*
X134203179Y-68135000D01*
X134186928Y-68299998D01*
X134186928Y-69200002D01*
X134203992Y-69373256D01*
X134254528Y-69539852D01*
X134336595Y-69693387D01*
X134447038Y-69827962D01*
X134581613Y-69938405D01*
X134735148Y-70020472D01*
X134873000Y-70062289D01*
X134873000Y-75614699D01*
X134772698Y-75715001D01*
X134731670Y-75715001D01*
X134738072Y-75650003D01*
X134738072Y-74349997D01*
X134721008Y-74176743D01*
X134670472Y-74010148D01*
X134588405Y-73856612D01*
X134572500Y-73837232D01*
X134572500Y-72406748D01*
X134556077Y-72240001D01*
X134491176Y-72026053D01*
X134385784Y-71828877D01*
X134243949Y-71656051D01*
X134071123Y-71514216D01*
X133873947Y-71408824D01*
X133659999Y-71343923D01*
X133437500Y-71322009D01*
X133215002Y-71343923D01*
X133001054Y-71408824D01*
X132803878Y-71514216D01*
X132631052Y-71656051D01*
X132489217Y-71828877D01*
X132383825Y-72026053D01*
X132318924Y-72240001D01*
X132302501Y-72406748D01*
X132302500Y-73837231D01*
X132286595Y-73856612D01*
X132204528Y-74010148D01*
X132153992Y-74176743D01*
X132136928Y-74349997D01*
X132136928Y-75650003D01*
X132143330Y-75715001D01*
X128377000Y-75715001D01*
X128377000Y-72812685D01*
X128506449Y-72706449D01*
X128648284Y-72533623D01*
X128753676Y-72336447D01*
X128818577Y-72122499D01*
X128835000Y-71955752D01*
X128835000Y-68255752D01*
X128840491Y-68200000D01*
X128818577Y-67977501D01*
X128753676Y-67763553D01*
X128648284Y-67566377D01*
X128541989Y-67436856D01*
X128541987Y-67436854D01*
X128506449Y-67393551D01*
X128463146Y-67358013D01*
X128377000Y-67271867D01*
X128377000Y-62397802D01*
X128536003Y-62238798D01*
X128565002Y-62215000D01*
X128659975Y-62099275D01*
X128730547Y-61967246D01*
X128774004Y-61823985D01*
X128785001Y-61712332D01*
X128785001Y-61712323D01*
X128788677Y-61675000D01*
X128785001Y-61637677D01*
X128785001Y-54062324D01*
X128788677Y-54025001D01*
X128785001Y-53987678D01*
X128785001Y-53987668D01*
X128774004Y-53876015D01*
X128730547Y-53732754D01*
X128659975Y-53600724D01*
X128588800Y-53513998D01*
X128565002Y-53485000D01*
X128536004Y-53461202D01*
X128377000Y-53302198D01*
X128377000Y-51410000D01*
X137373000Y-51410000D01*
X137373000Y-55715416D01*
G37*
%TD.AperFunction*%
%TD*%
D27*
%TO.N,GND*%
X144076208Y-74036012D02*
X144100007Y-74065011D01*
X144129005Y-74088809D01*
X144215731Y-74159984D01*
X144283230Y-74196063D01*
X144347761Y-74230556D01*
X144491022Y-74274013D01*
X144602675Y-74285010D01*
X144602684Y-74285010D01*
X144640007Y-74288686D01*
X144677330Y-74285010D01*
X145213404Y-74285010D01*
X145211928Y-74299999D01*
X145211928Y-75600001D01*
X145228992Y-75773255D01*
X145279528Y-75939851D01*
X145361595Y-76093387D01*
X145472038Y-76227962D01*
X145606613Y-76338405D01*
X145609596Y-76340000D01*
X141152370Y-76340000D01*
X141227963Y-76277963D01*
X141338405Y-76143388D01*
X141420472Y-75989852D01*
X141471008Y-75823257D01*
X141488072Y-75650003D01*
X141488072Y-74774230D01*
X142005453Y-74256849D01*
X142098102Y-74295226D01*
X142298061Y-74335000D01*
X142501939Y-74335000D01*
X142701898Y-74295226D01*
X142890256Y-74217205D01*
X143059774Y-74103937D01*
X143203937Y-73959774D01*
X143317205Y-73790256D01*
X143395226Y-73601898D01*
X143435000Y-73401939D01*
X143435000Y-73394803D01*
X144076208Y-74036012D01*
%TA.AperFunction,Conductor*%
D28*
G36*
X144076208Y-74036012D02*
G01*
X144100007Y-74065011D01*
X144129005Y-74088809D01*
X144215731Y-74159984D01*
X144283230Y-74196063D01*
X144347761Y-74230556D01*
X144491022Y-74274013D01*
X144602675Y-74285010D01*
X144602684Y-74285010D01*
X144640007Y-74288686D01*
X144677330Y-74285010D01*
X145213404Y-74285010D01*
X145211928Y-74299999D01*
X145211928Y-75600001D01*
X145228992Y-75773255D01*
X145279528Y-75939851D01*
X145361595Y-76093387D01*
X145472038Y-76227962D01*
X145606613Y-76338405D01*
X145609596Y-76340000D01*
X141152370Y-76340000D01*
X141227963Y-76277963D01*
X141338405Y-76143388D01*
X141420472Y-75989852D01*
X141471008Y-75823257D01*
X141488072Y-75650003D01*
X141488072Y-74774230D01*
X142005453Y-74256849D01*
X142098102Y-74295226D01*
X142298061Y-74335000D01*
X142501939Y-74335000D01*
X142701898Y-74295226D01*
X142890256Y-74217205D01*
X143059774Y-74103937D01*
X143203937Y-73959774D01*
X143317205Y-73790256D01*
X143395226Y-73601898D01*
X143435000Y-73401939D01*
X143435000Y-73394803D01*
X144076208Y-74036012D01*
G37*
%TD.AperFunction*%
D27*
X154897450Y-51729651D02*
X154636440Y-52120279D01*
X154456654Y-52554321D01*
X154365000Y-53015098D01*
X154365000Y-53484902D01*
X154456654Y-53945679D01*
X154636440Y-54379721D01*
X154897450Y-54770349D01*
X155229651Y-55102550D01*
X155620279Y-55363560D01*
X156054321Y-55543346D01*
X156515098Y-55635000D01*
X156984902Y-55635000D01*
X157445679Y-55543346D01*
X157879721Y-55363560D01*
X158270349Y-55102550D01*
X158590900Y-54781999D01*
X158591539Y-55870943D01*
X158500000Y-55861928D01*
X154500000Y-55861928D01*
X154375518Y-55874188D01*
X154255820Y-55910498D01*
X154145506Y-55969463D01*
X154048815Y-56048815D01*
X153969463Y-56145506D01*
X153910498Y-56255820D01*
X153874188Y-56375518D01*
X153861928Y-56500000D01*
X153861928Y-60500000D01*
X153874188Y-60624482D01*
X153910498Y-60744180D01*
X153969463Y-60854494D01*
X154048815Y-60951185D01*
X154145506Y-61030537D01*
X154255820Y-61089502D01*
X154375518Y-61125812D01*
X154500000Y-61138072D01*
X158500000Y-61138072D01*
X158594623Y-61128753D01*
X158601576Y-72978677D01*
X158270349Y-72647450D01*
X157879721Y-72386440D01*
X157445679Y-72206654D01*
X156984902Y-72115000D01*
X156515098Y-72115000D01*
X156054321Y-72206654D01*
X155620279Y-72386440D01*
X155229651Y-72647450D01*
X154897450Y-72979651D01*
X154636440Y-73370279D01*
X154456654Y-73804321D01*
X154365000Y-74265098D01*
X154365000Y-74734902D01*
X154456654Y-75195679D01*
X154636440Y-75629721D01*
X154897450Y-76020349D01*
X155217100Y-76339999D01*
X150890404Y-76339999D01*
X150893387Y-76338405D01*
X151027962Y-76227962D01*
X151138405Y-76093387D01*
X151220472Y-75939851D01*
X151271008Y-75773255D01*
X151288072Y-75600001D01*
X151288072Y-74299999D01*
X151271008Y-74126745D01*
X151220472Y-73960149D01*
X151138405Y-73806613D01*
X151027962Y-73672038D01*
X150893387Y-73561595D01*
X150739851Y-73479528D01*
X150573255Y-73428992D01*
X150400001Y-73411928D01*
X150284642Y-73411928D01*
X150511003Y-73185567D01*
X150540001Y-73161769D01*
X150600358Y-73088224D01*
X150634974Y-73046045D01*
X150705546Y-72914015D01*
X150715026Y-72882763D01*
X150749003Y-72770754D01*
X150760000Y-72659101D01*
X150760000Y-72659092D01*
X150763676Y-72621769D01*
X150760000Y-72584446D01*
X150760000Y-70449999D01*
X151411928Y-70449999D01*
X151411928Y-71150001D01*
X151428992Y-71323255D01*
X151479528Y-71489851D01*
X151561595Y-71643387D01*
X151672038Y-71777962D01*
X151806613Y-71888405D01*
X151960149Y-71970472D01*
X152126745Y-72021008D01*
X152299999Y-72038072D01*
X153600001Y-72038072D01*
X153773255Y-72021008D01*
X153939851Y-71970472D01*
X154093387Y-71888405D01*
X154227962Y-71777962D01*
X154338405Y-71643387D01*
X154420472Y-71489851D01*
X154471008Y-71323255D01*
X154488072Y-71150001D01*
X154488072Y-70449999D01*
X154471008Y-70276745D01*
X154420472Y-70110149D01*
X154338405Y-69956613D01*
X154227962Y-69822038D01*
X154093387Y-69711595D01*
X153939851Y-69629528D01*
X153773255Y-69578992D01*
X153600001Y-69561928D01*
X152299999Y-69561928D01*
X152126745Y-69578992D01*
X151960149Y-69629528D01*
X151806613Y-69711595D01*
X151672038Y-69822038D01*
X151561595Y-69956613D01*
X151479528Y-70110149D01*
X151428992Y-70276745D01*
X151411928Y-70449999D01*
X150760000Y-70449999D01*
X150760000Y-70337333D01*
X150763677Y-70300000D01*
X150749003Y-70151014D01*
X150705546Y-70007753D01*
X150634974Y-69875724D01*
X150540001Y-69759999D01*
X150424276Y-69665026D01*
X150292247Y-69594454D01*
X150148986Y-69550997D01*
X150037333Y-69540000D01*
X150000000Y-69536323D01*
X149962667Y-69540000D01*
X149820782Y-69540000D01*
X149709988Y-69429206D01*
X149800000Y-69438072D01*
X151050000Y-69438072D01*
X151203745Y-69422929D01*
X151351582Y-69378084D01*
X151487829Y-69305258D01*
X151607251Y-69207251D01*
X151705258Y-69087829D01*
X151778084Y-68951582D01*
X151822929Y-68803745D01*
X151838072Y-68650000D01*
X151838072Y-68350000D01*
X151822929Y-68196255D01*
X151778084Y-68048418D01*
X151752204Y-68000000D01*
X151778084Y-67951582D01*
X151822929Y-67803745D01*
X151838072Y-67650000D01*
X151838072Y-67350000D01*
X151822929Y-67196255D01*
X151821073Y-67190138D01*
X151924276Y-67134974D01*
X152040001Y-67040001D01*
X152051274Y-67026264D01*
X152065011Y-67014991D01*
X152159984Y-66899266D01*
X152230556Y-66767237D01*
X152274013Y-66623976D01*
X152285010Y-66512323D01*
X152285010Y-66512313D01*
X152288686Y-66474991D01*
X152285010Y-66437668D01*
X152285010Y-64436596D01*
X152299999Y-64438072D01*
X153600001Y-64438072D01*
X153773255Y-64421008D01*
X153939851Y-64370472D01*
X154093387Y-64288405D01*
X154227962Y-64177962D01*
X154338405Y-64043387D01*
X154420472Y-63889851D01*
X154471008Y-63723255D01*
X154488072Y-63550001D01*
X154488072Y-62849999D01*
X154471008Y-62676745D01*
X154420472Y-62510149D01*
X154338405Y-62356613D01*
X154227962Y-62222038D01*
X154093387Y-62111595D01*
X153939851Y-62029528D01*
X153773255Y-61978992D01*
X153600001Y-61961928D01*
X152299999Y-61961928D01*
X152160000Y-61975717D01*
X152160000Y-56203711D01*
X152203937Y-56159774D01*
X152317205Y-55990256D01*
X152395226Y-55801898D01*
X152435000Y-55601939D01*
X152435000Y-55398061D01*
X152395226Y-55198102D01*
X152317205Y-55009744D01*
X152203937Y-54840226D01*
X152059774Y-54696063D01*
X151890256Y-54582795D01*
X151701898Y-54504774D01*
X151501939Y-54465000D01*
X151298061Y-54465000D01*
X151098102Y-54504774D01*
X150909744Y-54582795D01*
X150740226Y-54696063D01*
X150624640Y-54811649D01*
X147222991Y-51410000D01*
X155217101Y-51410000D01*
X154897450Y-51729651D01*
%TA.AperFunction,Conductor*%
D28*
G36*
X154897450Y-51729651D02*
G01*
X154636440Y-52120279D01*
X154456654Y-52554321D01*
X154365000Y-53015098D01*
X154365000Y-53484902D01*
X154456654Y-53945679D01*
X154636440Y-54379721D01*
X154897450Y-54770349D01*
X155229651Y-55102550D01*
X155620279Y-55363560D01*
X156054321Y-55543346D01*
X156515098Y-55635000D01*
X156984902Y-55635000D01*
X157445679Y-55543346D01*
X157879721Y-55363560D01*
X158270349Y-55102550D01*
X158590900Y-54781999D01*
X158591539Y-55870943D01*
X158500000Y-55861928D01*
X154500000Y-55861928D01*
X154375518Y-55874188D01*
X154255820Y-55910498D01*
X154145506Y-55969463D01*
X154048815Y-56048815D01*
X153969463Y-56145506D01*
X153910498Y-56255820D01*
X153874188Y-56375518D01*
X153861928Y-56500000D01*
X153861928Y-60500000D01*
X153874188Y-60624482D01*
X153910498Y-60744180D01*
X153969463Y-60854494D01*
X154048815Y-60951185D01*
X154145506Y-61030537D01*
X154255820Y-61089502D01*
X154375518Y-61125812D01*
X154500000Y-61138072D01*
X158500000Y-61138072D01*
X158594623Y-61128753D01*
X158601576Y-72978677D01*
X158270349Y-72647450D01*
X157879721Y-72386440D01*
X157445679Y-72206654D01*
X156984902Y-72115000D01*
X156515098Y-72115000D01*
X156054321Y-72206654D01*
X155620279Y-72386440D01*
X155229651Y-72647450D01*
X154897450Y-72979651D01*
X154636440Y-73370279D01*
X154456654Y-73804321D01*
X154365000Y-74265098D01*
X154365000Y-74734902D01*
X154456654Y-75195679D01*
X154636440Y-75629721D01*
X154897450Y-76020349D01*
X155217100Y-76339999D01*
X150890404Y-76339999D01*
X150893387Y-76338405D01*
X151027962Y-76227962D01*
X151138405Y-76093387D01*
X151220472Y-75939851D01*
X151271008Y-75773255D01*
X151288072Y-75600001D01*
X151288072Y-74299999D01*
X151271008Y-74126745D01*
X151220472Y-73960149D01*
X151138405Y-73806613D01*
X151027962Y-73672038D01*
X150893387Y-73561595D01*
X150739851Y-73479528D01*
X150573255Y-73428992D01*
X150400001Y-73411928D01*
X150284642Y-73411928D01*
X150511003Y-73185567D01*
X150540001Y-73161769D01*
X150600358Y-73088224D01*
X150634974Y-73046045D01*
X150705546Y-72914015D01*
X150715026Y-72882763D01*
X150749003Y-72770754D01*
X150760000Y-72659101D01*
X150760000Y-72659092D01*
X150763676Y-72621769D01*
X150760000Y-72584446D01*
X150760000Y-70449999D01*
X151411928Y-70449999D01*
X151411928Y-71150001D01*
X151428992Y-71323255D01*
X151479528Y-71489851D01*
X151561595Y-71643387D01*
X151672038Y-71777962D01*
X151806613Y-71888405D01*
X151960149Y-71970472D01*
X152126745Y-72021008D01*
X152299999Y-72038072D01*
X153600001Y-72038072D01*
X153773255Y-72021008D01*
X153939851Y-71970472D01*
X154093387Y-71888405D01*
X154227962Y-71777962D01*
X154338405Y-71643387D01*
X154420472Y-71489851D01*
X154471008Y-71323255D01*
X154488072Y-71150001D01*
X154488072Y-70449999D01*
X154471008Y-70276745D01*
X154420472Y-70110149D01*
X154338405Y-69956613D01*
X154227962Y-69822038D01*
X154093387Y-69711595D01*
X153939851Y-69629528D01*
X153773255Y-69578992D01*
X153600001Y-69561928D01*
X152299999Y-69561928D01*
X152126745Y-69578992D01*
X151960149Y-69629528D01*
X151806613Y-69711595D01*
X151672038Y-69822038D01*
X151561595Y-69956613D01*
X151479528Y-70110149D01*
X151428992Y-70276745D01*
X151411928Y-70449999D01*
X150760000Y-70449999D01*
X150760000Y-70337333D01*
X150763677Y-70300000D01*
X150749003Y-70151014D01*
X150705546Y-70007753D01*
X150634974Y-69875724D01*
X150540001Y-69759999D01*
X150424276Y-69665026D01*
X150292247Y-69594454D01*
X150148986Y-69550997D01*
X150037333Y-69540000D01*
X150000000Y-69536323D01*
X149962667Y-69540000D01*
X149820782Y-69540000D01*
X149709988Y-69429206D01*
X149800000Y-69438072D01*
X151050000Y-69438072D01*
X151203745Y-69422929D01*
X151351582Y-69378084D01*
X151487829Y-69305258D01*
X151607251Y-69207251D01*
X151705258Y-69087829D01*
X151778084Y-68951582D01*
X151822929Y-68803745D01*
X151838072Y-68650000D01*
X151838072Y-68350000D01*
X151822929Y-68196255D01*
X151778084Y-68048418D01*
X151752204Y-68000000D01*
X151778084Y-67951582D01*
X151822929Y-67803745D01*
X151838072Y-67650000D01*
X151838072Y-67350000D01*
X151822929Y-67196255D01*
X151821073Y-67190138D01*
X151924276Y-67134974D01*
X152040001Y-67040001D01*
X152051274Y-67026264D01*
X152065011Y-67014991D01*
X152159984Y-66899266D01*
X152230556Y-66767237D01*
X152274013Y-66623976D01*
X152285010Y-66512323D01*
X152285010Y-66512313D01*
X152288686Y-66474991D01*
X152285010Y-66437668D01*
X152285010Y-64436596D01*
X152299999Y-64438072D01*
X153600001Y-64438072D01*
X153773255Y-64421008D01*
X153939851Y-64370472D01*
X154093387Y-64288405D01*
X154227962Y-64177962D01*
X154338405Y-64043387D01*
X154420472Y-63889851D01*
X154471008Y-63723255D01*
X154488072Y-63550001D01*
X154488072Y-62849999D01*
X154471008Y-62676745D01*
X154420472Y-62510149D01*
X154338405Y-62356613D01*
X154227962Y-62222038D01*
X154093387Y-62111595D01*
X153939851Y-62029528D01*
X153773255Y-61978992D01*
X153600001Y-61961928D01*
X152299999Y-61961928D01*
X152160000Y-61975717D01*
X152160000Y-56203711D01*
X152203937Y-56159774D01*
X152317205Y-55990256D01*
X152395226Y-55801898D01*
X152435000Y-55601939D01*
X152435000Y-55398061D01*
X152395226Y-55198102D01*
X152317205Y-55009744D01*
X152203937Y-54840226D01*
X152059774Y-54696063D01*
X151890256Y-54582795D01*
X151701898Y-54504774D01*
X151501939Y-54465000D01*
X151298061Y-54465000D01*
X151098102Y-54504774D01*
X150909744Y-54582795D01*
X150740226Y-54696063D01*
X150624640Y-54811649D01*
X147222991Y-51410000D01*
X155217101Y-51410000D01*
X154897450Y-51729651D01*
G37*
%TD.AperFunction*%
D27*
X145661997Y-69561799D02*
X145661928Y-69562498D01*
X145661928Y-70087502D01*
X145678992Y-70260756D01*
X145729528Y-70427352D01*
X145811595Y-70580887D01*
X145922038Y-70715462D01*
X146056613Y-70825905D01*
X146210148Y-70907972D01*
X146376744Y-70958508D01*
X146549998Y-70975572D01*
X147266314Y-70975572D01*
X147275754Y-71071412D01*
X147276008Y-71073995D01*
X147319464Y-71217256D01*
X147390036Y-71349286D01*
X147455831Y-71429456D01*
X147485010Y-71465011D01*
X147514008Y-71488809D01*
X147813118Y-71787919D01*
X147811928Y-71800000D01*
X147811928Y-72765010D01*
X144971907Y-72765010D01*
X144980537Y-72754494D01*
X145039502Y-72644180D01*
X145075812Y-72524482D01*
X145088072Y-72400000D01*
X145088072Y-71000000D01*
X145075812Y-70875518D01*
X145039502Y-70755820D01*
X145035000Y-70747397D01*
X145035000Y-68934802D01*
X145661997Y-69561799D01*
%TA.AperFunction,Conductor*%
D28*
G36*
X145661997Y-69561799D02*
G01*
X145661928Y-69562498D01*
X145661928Y-70087502D01*
X145678992Y-70260756D01*
X145729528Y-70427352D01*
X145811595Y-70580887D01*
X145922038Y-70715462D01*
X146056613Y-70825905D01*
X146210148Y-70907972D01*
X146376744Y-70958508D01*
X146549998Y-70975572D01*
X147266314Y-70975572D01*
X147275754Y-71071412D01*
X147276008Y-71073995D01*
X147319464Y-71217256D01*
X147390036Y-71349286D01*
X147455831Y-71429456D01*
X147485010Y-71465011D01*
X147514008Y-71488809D01*
X147813118Y-71787919D01*
X147811928Y-71800000D01*
X147811928Y-72765010D01*
X144971907Y-72765010D01*
X144980537Y-72754494D01*
X145039502Y-72644180D01*
X145075812Y-72524482D01*
X145088072Y-72400000D01*
X145088072Y-71000000D01*
X145075812Y-70875518D01*
X145039502Y-70755820D01*
X145035000Y-70747397D01*
X145035000Y-68934802D01*
X145661997Y-69561799D01*
G37*
%TD.AperFunction*%
D27*
X135897038Y-71677962D02*
X136031614Y-71788405D01*
X136185150Y-71870472D01*
X136351746Y-71921008D01*
X136525000Y-71938072D01*
X136791859Y-71938072D01*
X137618796Y-72765010D01*
X136012814Y-72765010D01*
X135635000Y-72387196D01*
X135635000Y-71560000D01*
X135800230Y-71560000D01*
X135897038Y-71677962D01*
%TA.AperFunction,Conductor*%
D28*
G36*
X135897038Y-71677962D02*
G01*
X136031614Y-71788405D01*
X136185150Y-71870472D01*
X136351746Y-71921008D01*
X136525000Y-71938072D01*
X136791859Y-71938072D01*
X137618796Y-72765010D01*
X136012814Y-72765010D01*
X135635000Y-72387196D01*
X135635000Y-71560000D01*
X135800230Y-71560000D01*
X135897038Y-71677962D01*
G37*
%TD.AperFunction*%
D27*
X138144188Y-53324482D02*
X138180498Y-53444180D01*
X138239463Y-53554494D01*
X138318815Y-53651185D01*
X138357915Y-53683273D01*
X138376339Y-53744010D01*
X138389454Y-53787246D01*
X138460026Y-53919276D01*
X138481695Y-53945679D01*
X138554999Y-54035001D01*
X138584003Y-54058804D01*
X139765000Y-55239802D01*
X139765000Y-55301939D01*
X139804774Y-55501898D01*
X139882795Y-55690256D01*
X139996063Y-55859774D01*
X140140226Y-56003937D01*
X140309744Y-56117205D01*
X140498102Y-56195226D01*
X140698061Y-56235000D01*
X140901939Y-56235000D01*
X141101898Y-56195226D01*
X141290256Y-56117205D01*
X141459774Y-56003937D01*
X141603937Y-55859774D01*
X141717205Y-55690256D01*
X141795226Y-55501898D01*
X141816233Y-55396289D01*
X141930442Y-55348982D01*
X142099960Y-55235714D01*
X142244123Y-55091551D01*
X142357391Y-54922033D01*
X142435412Y-54733675D01*
X142475186Y-54533716D01*
X142475186Y-54329838D01*
X142435412Y-54129879D01*
X142357391Y-53941521D01*
X142244123Y-53772003D01*
X142241613Y-53769493D01*
X142270000Y-53754320D01*
X142335820Y-53789502D01*
X142455518Y-53825812D01*
X142580000Y-53838072D01*
X143230000Y-53838072D01*
X143310356Y-53830158D01*
X143766771Y-54286573D01*
X143725986Y-54421026D01*
X143714989Y-54532679D01*
X143714989Y-54532689D01*
X143711313Y-54570011D01*
X143714989Y-54607334D01*
X143714990Y-57001415D01*
X143698102Y-57004774D01*
X143509744Y-57082795D01*
X143340226Y-57196063D01*
X143196063Y-57340226D01*
X143082795Y-57509744D01*
X143004774Y-57698102D01*
X142965000Y-57898061D01*
X142965000Y-58101939D01*
X143004774Y-58301898D01*
X143082795Y-58490256D01*
X143114990Y-58538439D01*
X143114989Y-60010209D01*
X142738998Y-60386201D01*
X142710000Y-60409999D01*
X142686202Y-60438997D01*
X142686201Y-60438998D01*
X142682011Y-60444104D01*
X142598072Y-60388017D01*
X142598072Y-58800000D01*
X142585812Y-58675518D01*
X142549502Y-58555820D01*
X142490537Y-58445506D01*
X142411185Y-58348815D01*
X142314494Y-58269463D01*
X142204180Y-58210498D01*
X142084482Y-58174188D01*
X141960000Y-58161928D01*
X141310000Y-58161928D01*
X141185518Y-58174188D01*
X141065820Y-58210498D01*
X141000000Y-58245680D01*
X140934180Y-58210498D01*
X140814482Y-58174188D01*
X140690000Y-58161928D01*
X140040000Y-58161928D01*
X139915518Y-58174188D01*
X139795820Y-58210498D01*
X139730000Y-58245680D01*
X139664180Y-58210498D01*
X139544482Y-58174188D01*
X139420000Y-58161928D01*
X138770000Y-58161928D01*
X138645518Y-58174188D01*
X138525820Y-58210498D01*
X138415506Y-58269463D01*
X138318815Y-58348815D01*
X138239463Y-58445506D01*
X138180498Y-58555820D01*
X138144188Y-58675518D01*
X138131928Y-58800000D01*
X138131928Y-60500000D01*
X138144188Y-60624482D01*
X138180498Y-60744180D01*
X138239463Y-60854494D01*
X138318815Y-60951185D01*
X138376090Y-60998189D01*
X138389454Y-61042246D01*
X138460026Y-61174276D01*
X138531201Y-61261002D01*
X138555000Y-61290001D01*
X138583998Y-61313799D01*
X138976196Y-61705997D01*
X138999999Y-61735001D01*
X139073146Y-61795031D01*
X139115723Y-61829974D01*
X139177168Y-61862817D01*
X139247753Y-61900546D01*
X139391014Y-61944003D01*
X139502667Y-61955000D01*
X139502676Y-61955000D01*
X139539999Y-61958676D01*
X139577322Y-61955000D01*
X140168389Y-61955000D01*
X140502972Y-62289584D01*
X140372038Y-62397038D01*
X140261595Y-62531614D01*
X140179528Y-62685150D01*
X140128992Y-62851746D01*
X140111928Y-63025000D01*
X140111928Y-63975000D01*
X140128992Y-64148254D01*
X140179528Y-64314850D01*
X140261595Y-64468386D01*
X140372038Y-64602962D01*
X140506614Y-64713405D01*
X140564200Y-64744185D01*
X140615026Y-64839274D01*
X140661092Y-64895405D01*
X140710000Y-64954999D01*
X140738998Y-64978797D01*
X140985800Y-65225599D01*
X140969463Y-65245506D01*
X140910498Y-65355820D01*
X140874188Y-65475518D01*
X140861928Y-65600000D01*
X140861928Y-67000000D01*
X140874188Y-67124482D01*
X140910498Y-67244180D01*
X140969463Y-67354494D01*
X141048815Y-67451185D01*
X141145506Y-67530537D01*
X141255820Y-67589502D01*
X141375518Y-67625812D01*
X141500000Y-67638072D01*
X141850000Y-67638072D01*
X141974482Y-67625812D01*
X142000000Y-67618071D01*
X142025518Y-67625812D01*
X142150000Y-67638072D01*
X142500000Y-67638072D01*
X142624482Y-67625812D01*
X142650000Y-67618071D01*
X142675518Y-67625812D01*
X142800000Y-67638072D01*
X143150000Y-67638072D01*
X143274482Y-67625812D01*
X143300000Y-67618071D01*
X143325518Y-67625812D01*
X143450000Y-67638072D01*
X143515000Y-67638072D01*
X143515001Y-70361928D01*
X143450000Y-70361928D01*
X143325518Y-70374188D01*
X143300000Y-70381929D01*
X143274482Y-70374188D01*
X143150000Y-70361928D01*
X142800000Y-70361928D01*
X142675518Y-70374188D01*
X142650000Y-70381929D01*
X142624482Y-70374188D01*
X142500000Y-70361928D01*
X142150000Y-70361928D01*
X142025518Y-70374188D01*
X142000000Y-70381929D01*
X141974482Y-70374188D01*
X141850000Y-70361928D01*
X141500000Y-70361928D01*
X141375518Y-70374188D01*
X141350000Y-70381929D01*
X141324482Y-70374188D01*
X141200000Y-70361928D01*
X140850000Y-70361928D01*
X140725518Y-70374188D01*
X140700000Y-70381929D01*
X140674482Y-70374188D01*
X140550000Y-70361928D01*
X140200000Y-70361928D01*
X140075518Y-70374188D01*
X140050000Y-70381929D01*
X140024482Y-70374188D01*
X139900000Y-70361928D01*
X139550000Y-70361928D01*
X139460000Y-70370792D01*
X139460000Y-70324822D01*
X139463676Y-70287499D01*
X139460000Y-70250176D01*
X139460000Y-70250167D01*
X139449003Y-70138514D01*
X139405546Y-69995253D01*
X139334974Y-69863224D01*
X139240001Y-69747499D01*
X139211004Y-69723702D01*
X138313072Y-68825771D01*
X138313072Y-68299998D01*
X138296008Y-68126744D01*
X138245472Y-67960148D01*
X138163405Y-67806613D01*
X138052962Y-67672038D01*
X137918387Y-67561595D01*
X137764852Y-67479528D01*
X137598256Y-67428992D01*
X137425002Y-67411928D01*
X136899998Y-67411928D01*
X136835001Y-67418330D01*
X136835001Y-65600000D01*
X138911928Y-65600000D01*
X138911928Y-67000000D01*
X138924188Y-67124482D01*
X138960498Y-67244180D01*
X139019463Y-67354494D01*
X139098815Y-67451185D01*
X139195506Y-67530537D01*
X139305820Y-67589502D01*
X139425518Y-67625812D01*
X139550000Y-67638072D01*
X139900000Y-67638072D01*
X140024482Y-67625812D01*
X140144180Y-67589502D01*
X140254494Y-67530537D01*
X140351185Y-67451185D01*
X140430537Y-67354494D01*
X140489502Y-67244180D01*
X140525812Y-67124482D01*
X140538072Y-67000000D01*
X140538072Y-65600000D01*
X140525812Y-65475518D01*
X140489502Y-65355820D01*
X140430537Y-65245506D01*
X140351185Y-65148815D01*
X140254494Y-65069463D01*
X140144180Y-65010498D01*
X140024482Y-64974188D01*
X139900000Y-64961928D01*
X139550000Y-64961928D01*
X139425518Y-64974188D01*
X139305820Y-65010498D01*
X139195506Y-65069463D01*
X139098815Y-65148815D01*
X139019463Y-65245506D01*
X138960498Y-65355820D01*
X138924188Y-65475518D01*
X138911928Y-65600000D01*
X136835001Y-65600000D01*
X136835001Y-63412324D01*
X136838677Y-63375001D01*
X136835001Y-63337678D01*
X136835001Y-63337668D01*
X136824004Y-63226015D01*
X136780547Y-63082754D01*
X136756981Y-63038666D01*
X136709975Y-62950724D01*
X136638800Y-62863998D01*
X136615002Y-62835000D01*
X136586005Y-62811203D01*
X136335000Y-62560198D01*
X136335000Y-62498061D01*
X136295226Y-62298102D01*
X136217205Y-62109744D01*
X136103937Y-61940226D01*
X135959774Y-61796063D01*
X135790256Y-61682795D01*
X135635000Y-61618485D01*
X135635000Y-60586686D01*
X135774463Y-60528918D01*
X136042252Y-60349987D01*
X136269987Y-60122252D01*
X136448918Y-59854463D01*
X136572168Y-59556912D01*
X136635000Y-59241033D01*
X136635000Y-58918967D01*
X136572168Y-58603088D01*
X136566491Y-58589382D01*
X138047328Y-56071958D01*
X138086664Y-55993004D01*
X138122799Y-55873882D01*
X138135000Y-55750000D01*
X138135000Y-53231192D01*
X138144188Y-53324482D01*
%TA.AperFunction,Conductor*%
D28*
G36*
X138144188Y-53324482D02*
G01*
X138180498Y-53444180D01*
X138239463Y-53554494D01*
X138318815Y-53651185D01*
X138357915Y-53683273D01*
X138376339Y-53744010D01*
X138389454Y-53787246D01*
X138460026Y-53919276D01*
X138481695Y-53945679D01*
X138554999Y-54035001D01*
X138584003Y-54058804D01*
X139765000Y-55239802D01*
X139765000Y-55301939D01*
X139804774Y-55501898D01*
X139882795Y-55690256D01*
X139996063Y-55859774D01*
X140140226Y-56003937D01*
X140309744Y-56117205D01*
X140498102Y-56195226D01*
X140698061Y-56235000D01*
X140901939Y-56235000D01*
X141101898Y-56195226D01*
X141290256Y-56117205D01*
X141459774Y-56003937D01*
X141603937Y-55859774D01*
X141717205Y-55690256D01*
X141795226Y-55501898D01*
X141816233Y-55396289D01*
X141930442Y-55348982D01*
X142099960Y-55235714D01*
X142244123Y-55091551D01*
X142357391Y-54922033D01*
X142435412Y-54733675D01*
X142475186Y-54533716D01*
X142475186Y-54329838D01*
X142435412Y-54129879D01*
X142357391Y-53941521D01*
X142244123Y-53772003D01*
X142241613Y-53769493D01*
X142270000Y-53754320D01*
X142335820Y-53789502D01*
X142455518Y-53825812D01*
X142580000Y-53838072D01*
X143230000Y-53838072D01*
X143310356Y-53830158D01*
X143766771Y-54286573D01*
X143725986Y-54421026D01*
X143714989Y-54532679D01*
X143714989Y-54532689D01*
X143711313Y-54570011D01*
X143714989Y-54607334D01*
X143714990Y-57001415D01*
X143698102Y-57004774D01*
X143509744Y-57082795D01*
X143340226Y-57196063D01*
X143196063Y-57340226D01*
X143082795Y-57509744D01*
X143004774Y-57698102D01*
X142965000Y-57898061D01*
X142965000Y-58101939D01*
X143004774Y-58301898D01*
X143082795Y-58490256D01*
X143114990Y-58538439D01*
X143114989Y-60010209D01*
X142738998Y-60386201D01*
X142710000Y-60409999D01*
X142686202Y-60438997D01*
X142686201Y-60438998D01*
X142682011Y-60444104D01*
X142598072Y-60388017D01*
X142598072Y-58800000D01*
X142585812Y-58675518D01*
X142549502Y-58555820D01*
X142490537Y-58445506D01*
X142411185Y-58348815D01*
X142314494Y-58269463D01*
X142204180Y-58210498D01*
X142084482Y-58174188D01*
X141960000Y-58161928D01*
X141310000Y-58161928D01*
X141185518Y-58174188D01*
X141065820Y-58210498D01*
X141000000Y-58245680D01*
X140934180Y-58210498D01*
X140814482Y-58174188D01*
X140690000Y-58161928D01*
X140040000Y-58161928D01*
X139915518Y-58174188D01*
X139795820Y-58210498D01*
X139730000Y-58245680D01*
X139664180Y-58210498D01*
X139544482Y-58174188D01*
X139420000Y-58161928D01*
X138770000Y-58161928D01*
X138645518Y-58174188D01*
X138525820Y-58210498D01*
X138415506Y-58269463D01*
X138318815Y-58348815D01*
X138239463Y-58445506D01*
X138180498Y-58555820D01*
X138144188Y-58675518D01*
X138131928Y-58800000D01*
X138131928Y-60500000D01*
X138144188Y-60624482D01*
X138180498Y-60744180D01*
X138239463Y-60854494D01*
X138318815Y-60951185D01*
X138376090Y-60998189D01*
X138389454Y-61042246D01*
X138460026Y-61174276D01*
X138531201Y-61261002D01*
X138555000Y-61290001D01*
X138583998Y-61313799D01*
X138976196Y-61705997D01*
X138999999Y-61735001D01*
X139073146Y-61795031D01*
X139115723Y-61829974D01*
X139177168Y-61862817D01*
X139247753Y-61900546D01*
X139391014Y-61944003D01*
X139502667Y-61955000D01*
X139502676Y-61955000D01*
X139539999Y-61958676D01*
X139577322Y-61955000D01*
X140168389Y-61955000D01*
X140502972Y-62289584D01*
X140372038Y-62397038D01*
X140261595Y-62531614D01*
X140179528Y-62685150D01*
X140128992Y-62851746D01*
X140111928Y-63025000D01*
X140111928Y-63975000D01*
X140128992Y-64148254D01*
X140179528Y-64314850D01*
X140261595Y-64468386D01*
X140372038Y-64602962D01*
X140506614Y-64713405D01*
X140564200Y-64744185D01*
X140615026Y-64839274D01*
X140661092Y-64895405D01*
X140710000Y-64954999D01*
X140738998Y-64978797D01*
X140985800Y-65225599D01*
X140969463Y-65245506D01*
X140910498Y-65355820D01*
X140874188Y-65475518D01*
X140861928Y-65600000D01*
X140861928Y-67000000D01*
X140874188Y-67124482D01*
X140910498Y-67244180D01*
X140969463Y-67354494D01*
X141048815Y-67451185D01*
X141145506Y-67530537D01*
X141255820Y-67589502D01*
X141375518Y-67625812D01*
X141500000Y-67638072D01*
X141850000Y-67638072D01*
X141974482Y-67625812D01*
X142000000Y-67618071D01*
X142025518Y-67625812D01*
X142150000Y-67638072D01*
X142500000Y-67638072D01*
X142624482Y-67625812D01*
X142650000Y-67618071D01*
X142675518Y-67625812D01*
X142800000Y-67638072D01*
X143150000Y-67638072D01*
X143274482Y-67625812D01*
X143300000Y-67618071D01*
X143325518Y-67625812D01*
X143450000Y-67638072D01*
X143515000Y-67638072D01*
X143515001Y-70361928D01*
X143450000Y-70361928D01*
X143325518Y-70374188D01*
X143300000Y-70381929D01*
X143274482Y-70374188D01*
X143150000Y-70361928D01*
X142800000Y-70361928D01*
X142675518Y-70374188D01*
X142650000Y-70381929D01*
X142624482Y-70374188D01*
X142500000Y-70361928D01*
X142150000Y-70361928D01*
X142025518Y-70374188D01*
X142000000Y-70381929D01*
X141974482Y-70374188D01*
X141850000Y-70361928D01*
X141500000Y-70361928D01*
X141375518Y-70374188D01*
X141350000Y-70381929D01*
X141324482Y-70374188D01*
X141200000Y-70361928D01*
X140850000Y-70361928D01*
X140725518Y-70374188D01*
X140700000Y-70381929D01*
X140674482Y-70374188D01*
X140550000Y-70361928D01*
X140200000Y-70361928D01*
X140075518Y-70374188D01*
X140050000Y-70381929D01*
X140024482Y-70374188D01*
X139900000Y-70361928D01*
X139550000Y-70361928D01*
X139460000Y-70370792D01*
X139460000Y-70324822D01*
X139463676Y-70287499D01*
X139460000Y-70250176D01*
X139460000Y-70250167D01*
X139449003Y-70138514D01*
X139405546Y-69995253D01*
X139334974Y-69863224D01*
X139240001Y-69747499D01*
X139211004Y-69723702D01*
X138313072Y-68825771D01*
X138313072Y-68299998D01*
X138296008Y-68126744D01*
X138245472Y-67960148D01*
X138163405Y-67806613D01*
X138052962Y-67672038D01*
X137918387Y-67561595D01*
X137764852Y-67479528D01*
X137598256Y-67428992D01*
X137425002Y-67411928D01*
X136899998Y-67411928D01*
X136835001Y-67418330D01*
X136835001Y-65600000D01*
X138911928Y-65600000D01*
X138911928Y-67000000D01*
X138924188Y-67124482D01*
X138960498Y-67244180D01*
X139019463Y-67354494D01*
X139098815Y-67451185D01*
X139195506Y-67530537D01*
X139305820Y-67589502D01*
X139425518Y-67625812D01*
X139550000Y-67638072D01*
X139900000Y-67638072D01*
X140024482Y-67625812D01*
X140144180Y-67589502D01*
X140254494Y-67530537D01*
X140351185Y-67451185D01*
X140430537Y-67354494D01*
X140489502Y-67244180D01*
X140525812Y-67124482D01*
X140538072Y-67000000D01*
X140538072Y-65600000D01*
X140525812Y-65475518D01*
X140489502Y-65355820D01*
X140430537Y-65245506D01*
X140351185Y-65148815D01*
X140254494Y-65069463D01*
X140144180Y-65010498D01*
X140024482Y-64974188D01*
X139900000Y-64961928D01*
X139550000Y-64961928D01*
X139425518Y-64974188D01*
X139305820Y-65010498D01*
X139195506Y-65069463D01*
X139098815Y-65148815D01*
X139019463Y-65245506D01*
X138960498Y-65355820D01*
X138924188Y-65475518D01*
X138911928Y-65600000D01*
X136835001Y-65600000D01*
X136835001Y-63412324D01*
X136838677Y-63375001D01*
X136835001Y-63337678D01*
X136835001Y-63337668D01*
X136824004Y-63226015D01*
X136780547Y-63082754D01*
X136756981Y-63038666D01*
X136709975Y-62950724D01*
X136638800Y-62863998D01*
X136615002Y-62835000D01*
X136586005Y-62811203D01*
X136335000Y-62560198D01*
X136335000Y-62498061D01*
X136295226Y-62298102D01*
X136217205Y-62109744D01*
X136103937Y-61940226D01*
X135959774Y-61796063D01*
X135790256Y-61682795D01*
X135635000Y-61618485D01*
X135635000Y-60586686D01*
X135774463Y-60528918D01*
X136042252Y-60349987D01*
X136269987Y-60122252D01*
X136448918Y-59854463D01*
X136572168Y-59556912D01*
X136635000Y-59241033D01*
X136635000Y-58918967D01*
X136572168Y-58603088D01*
X136566491Y-58589382D01*
X138047328Y-56071958D01*
X138086664Y-55993004D01*
X138122799Y-55873882D01*
X138135000Y-55750000D01*
X138135000Y-53231192D01*
X138144188Y-53324482D01*
G37*
%TD.AperFunction*%
D27*
X145326188Y-62785992D02*
X145349987Y-62814991D01*
X145465712Y-62909964D01*
X145597741Y-62980536D01*
X145741002Y-63023993D01*
X145852655Y-63034990D01*
X145852663Y-63034990D01*
X145889988Y-63038666D01*
X145927313Y-63034990D01*
X146602510Y-63034990D01*
X146602511Y-64114976D01*
X146473975Y-64075986D01*
X146362322Y-64064989D01*
X146324989Y-64061312D01*
X146287656Y-64064989D01*
X144550572Y-64064989D01*
X144550572Y-62849997D01*
X144533508Y-62676743D01*
X144482972Y-62510148D01*
X144400905Y-62356612D01*
X144290463Y-62222037D01*
X144155888Y-62111595D01*
X144010000Y-62033616D01*
X144010000Y-61469803D01*
X145326188Y-62785992D01*
%TA.AperFunction,Conductor*%
D28*
G36*
X145326188Y-62785992D02*
G01*
X145349987Y-62814991D01*
X145465712Y-62909964D01*
X145597741Y-62980536D01*
X145741002Y-63023993D01*
X145852655Y-63034990D01*
X145852663Y-63034990D01*
X145889988Y-63038666D01*
X145927313Y-63034990D01*
X146602510Y-63034990D01*
X146602511Y-64114976D01*
X146473975Y-64075986D01*
X146362322Y-64064989D01*
X146324989Y-64061312D01*
X146287656Y-64064989D01*
X144550572Y-64064989D01*
X144550572Y-62849997D01*
X144533508Y-62676743D01*
X144482972Y-62510148D01*
X144400905Y-62356612D01*
X144290463Y-62222037D01*
X144155888Y-62111595D01*
X144010000Y-62033616D01*
X144010000Y-61469803D01*
X145326188Y-62785992D01*
G37*
%TD.AperFunction*%
D27*
X149665000Y-56001612D02*
X149665001Y-63575225D01*
X149646255Y-63577071D01*
X149498418Y-63621916D01*
X149362171Y-63694742D01*
X149242749Y-63792749D01*
X149144742Y-63912171D01*
X149142036Y-63917234D01*
X148572520Y-63347719D01*
X148572520Y-61698434D01*
X148576196Y-61661111D01*
X148572520Y-61623788D01*
X148572520Y-61623779D01*
X148561523Y-61512126D01*
X148518066Y-61368865D01*
X148447494Y-61236836D01*
X148352521Y-61121111D01*
X148323523Y-61097313D01*
X147932845Y-60706635D01*
X147939502Y-60694180D01*
X147975812Y-60574482D01*
X147988072Y-60450000D01*
X147988072Y-60036730D01*
X148211004Y-59813798D01*
X148240001Y-59790001D01*
X148334974Y-59674276D01*
X148405546Y-59542247D01*
X148449003Y-59398986D01*
X148460000Y-59287333D01*
X148460000Y-59287324D01*
X148463676Y-59250001D01*
X148460000Y-59212678D01*
X148460000Y-58703711D01*
X148503937Y-58659774D01*
X148617205Y-58490256D01*
X148695226Y-58301898D01*
X148735000Y-58101939D01*
X148735000Y-57898061D01*
X148695226Y-57698102D01*
X148617205Y-57509744D01*
X148503937Y-57340226D01*
X148359774Y-57196063D01*
X148193005Y-57084632D01*
X148288405Y-56968386D01*
X148370472Y-56814850D01*
X148421008Y-56648254D01*
X148438072Y-56475000D01*
X148438072Y-55525000D01*
X148421008Y-55351746D01*
X148370472Y-55185150D01*
X148288405Y-55031614D01*
X148177962Y-54897038D01*
X148043386Y-54786595D01*
X147889850Y-54704528D01*
X147723254Y-54653992D01*
X147550000Y-54636928D01*
X147050000Y-54636928D01*
X146876746Y-54653992D01*
X146710150Y-54704528D01*
X146556614Y-54786595D01*
X146553149Y-54789438D01*
X146459774Y-54696063D01*
X146290256Y-54582795D01*
X146101898Y-54504774D01*
X145901939Y-54465000D01*
X145698061Y-54465000D01*
X145516507Y-54501113D01*
X145537539Y-54431777D01*
X145549003Y-54393986D01*
X145563676Y-54245000D01*
X145549003Y-54096014D01*
X145505546Y-53952753D01*
X145434974Y-53820724D01*
X145363799Y-53733997D01*
X145340001Y-53704999D01*
X145311003Y-53681201D01*
X143868072Y-52238271D01*
X143868072Y-51934999D01*
X145598388Y-51934999D01*
X149665000Y-56001612D01*
%TA.AperFunction,Conductor*%
D28*
G36*
X149665000Y-56001612D02*
G01*
X149665001Y-63575225D01*
X149646255Y-63577071D01*
X149498418Y-63621916D01*
X149362171Y-63694742D01*
X149242749Y-63792749D01*
X149144742Y-63912171D01*
X149142036Y-63917234D01*
X148572520Y-63347719D01*
X148572520Y-61698434D01*
X148576196Y-61661111D01*
X148572520Y-61623788D01*
X148572520Y-61623779D01*
X148561523Y-61512126D01*
X148518066Y-61368865D01*
X148447494Y-61236836D01*
X148352521Y-61121111D01*
X148323523Y-61097313D01*
X147932845Y-60706635D01*
X147939502Y-60694180D01*
X147975812Y-60574482D01*
X147988072Y-60450000D01*
X147988072Y-60036730D01*
X148211004Y-59813798D01*
X148240001Y-59790001D01*
X148334974Y-59674276D01*
X148405546Y-59542247D01*
X148449003Y-59398986D01*
X148460000Y-59287333D01*
X148460000Y-59287324D01*
X148463676Y-59250001D01*
X148460000Y-59212678D01*
X148460000Y-58703711D01*
X148503937Y-58659774D01*
X148617205Y-58490256D01*
X148695226Y-58301898D01*
X148735000Y-58101939D01*
X148735000Y-57898061D01*
X148695226Y-57698102D01*
X148617205Y-57509744D01*
X148503937Y-57340226D01*
X148359774Y-57196063D01*
X148193005Y-57084632D01*
X148288405Y-56968386D01*
X148370472Y-56814850D01*
X148421008Y-56648254D01*
X148438072Y-56475000D01*
X148438072Y-55525000D01*
X148421008Y-55351746D01*
X148370472Y-55185150D01*
X148288405Y-55031614D01*
X148177962Y-54897038D01*
X148043386Y-54786595D01*
X147889850Y-54704528D01*
X147723254Y-54653992D01*
X147550000Y-54636928D01*
X147050000Y-54636928D01*
X146876746Y-54653992D01*
X146710150Y-54704528D01*
X146556614Y-54786595D01*
X146553149Y-54789438D01*
X146459774Y-54696063D01*
X146290256Y-54582795D01*
X146101898Y-54504774D01*
X145901939Y-54465000D01*
X145698061Y-54465000D01*
X145516507Y-54501113D01*
X145537539Y-54431777D01*
X145549003Y-54393986D01*
X145563676Y-54245000D01*
X145549003Y-54096014D01*
X145505546Y-53952753D01*
X145434974Y-53820724D01*
X145363799Y-53733997D01*
X145340001Y-53704999D01*
X145311003Y-53681201D01*
X143868072Y-52238271D01*
X143868072Y-51934999D01*
X145598388Y-51934999D01*
X149665000Y-56001612D01*
G37*
%TD.AperFunction*%
D27*
X145309744Y-56417205D02*
X145498102Y-56495226D01*
X145698061Y-56535000D01*
X145755895Y-56535000D01*
X145759999Y-56540001D01*
X145875724Y-56634974D01*
X146007753Y-56705546D01*
X146151014Y-56749003D01*
X146211357Y-56754946D01*
X146215000Y-56766957D01*
X146214999Y-58145201D01*
X145487021Y-58873180D01*
X145485001Y-58852675D01*
X145485001Y-57689321D01*
X145488677Y-57651998D01*
X145485001Y-57614675D01*
X145485001Y-57614666D01*
X145474004Y-57503013D01*
X145430547Y-57359752D01*
X145359975Y-57227723D01*
X145265002Y-57111998D01*
X145235999Y-57088196D01*
X145234989Y-57087186D01*
X145234989Y-56367255D01*
X145309744Y-56417205D01*
%TA.AperFunction,Conductor*%
D28*
G36*
X145309744Y-56417205D02*
G01*
X145498102Y-56495226D01*
X145698061Y-56535000D01*
X145755895Y-56535000D01*
X145759999Y-56540001D01*
X145875724Y-56634974D01*
X146007753Y-56705546D01*
X146151014Y-56749003D01*
X146211357Y-56754946D01*
X146215000Y-56766957D01*
X146214999Y-58145201D01*
X145487021Y-58873180D01*
X145485001Y-58852675D01*
X145485001Y-57689321D01*
X145488677Y-57651998D01*
X145485001Y-57614675D01*
X145485001Y-57614666D01*
X145474004Y-57503013D01*
X145430547Y-57359752D01*
X145359975Y-57227723D01*
X145265002Y-57111998D01*
X145235999Y-57088196D01*
X145234989Y-57087186D01*
X145234989Y-56367255D01*
X145309744Y-56417205D01*
G37*
%TD.AperFunction*%
%TD*%
D27*
%TO.N,Net-(C3-Pad1)*%
X127079011Y-61388680D02*
X126998102Y-61404774D01*
X126809744Y-61482795D01*
X126640226Y-61596063D01*
X126496063Y-61740226D01*
X126382795Y-61909744D01*
X126304774Y-62098102D01*
X126265000Y-62298061D01*
X126265000Y-62501939D01*
X126304774Y-62701898D01*
X126382795Y-62890256D01*
X126496063Y-63059774D01*
X126640226Y-63203937D01*
X126802941Y-63312659D01*
X125531750Y-63315000D01*
X125373000Y-63473750D01*
X125373000Y-64527000D01*
X125393000Y-64527000D01*
X125393000Y-66273000D01*
X125373000Y-66273000D01*
X125373000Y-67326250D01*
X125531750Y-67485000D01*
X127200000Y-67488072D01*
X127324482Y-67475812D01*
X127444180Y-67439502D01*
X127508747Y-67404990D01*
X127858105Y-72295998D01*
X126135000Y-71512768D01*
X126135000Y-70104882D01*
X126145330Y-70000000D01*
X126104108Y-69581467D01*
X125982026Y-69179018D01*
X125783777Y-68808119D01*
X125516977Y-68483023D01*
X125272235Y-68282168D01*
X125257972Y-68235149D01*
X125175905Y-68081613D01*
X125065462Y-67947038D01*
X124930887Y-67836595D01*
X124777351Y-67754528D01*
X124610755Y-67703992D01*
X124437501Y-67686928D01*
X123712499Y-67686928D01*
X123539245Y-67703992D01*
X123372649Y-67754528D01*
X123219113Y-67836595D01*
X123184501Y-67865000D01*
X117884345Y-67865000D01*
X117138071Y-67118727D01*
X117138071Y-66850000D01*
X121161928Y-66850000D01*
X121174188Y-66974482D01*
X121210498Y-67094180D01*
X121269463Y-67204494D01*
X121348815Y-67301185D01*
X121445506Y-67380537D01*
X121555820Y-67439502D01*
X121675518Y-67475812D01*
X121800000Y-67488072D01*
X123468250Y-67485000D01*
X123627000Y-67326250D01*
X123627000Y-66273000D01*
X121323750Y-66273000D01*
X121165000Y-66431750D01*
X121161928Y-66850000D01*
X117138071Y-66850000D01*
X117138071Y-65500000D01*
X117125811Y-65375518D01*
X117089501Y-65255820D01*
X117030536Y-65145506D01*
X116951184Y-65048815D01*
X116854493Y-64969463D01*
X116744179Y-64910498D01*
X116624481Y-64874188D01*
X116499999Y-64861928D01*
X112660000Y-64861928D01*
X112660000Y-63950000D01*
X121161928Y-63950000D01*
X121165000Y-64368250D01*
X121323750Y-64527000D01*
X123627000Y-64527000D01*
X123627000Y-63473750D01*
X123468250Y-63315000D01*
X121800000Y-63311928D01*
X121675518Y-63324188D01*
X121555820Y-63360498D01*
X121445506Y-63419463D01*
X121348815Y-63498815D01*
X121269463Y-63595506D01*
X121210498Y-63705820D01*
X121174188Y-63825518D01*
X121161928Y-63950000D01*
X112660000Y-63950000D01*
X112660000Y-63637564D01*
X113468249Y-63635000D01*
X113626999Y-63476250D01*
X113626999Y-61873000D01*
X115372999Y-61873000D01*
X115372999Y-63476250D01*
X115531749Y-63635000D01*
X116499999Y-63638072D01*
X116624481Y-63625812D01*
X116744179Y-63589502D01*
X116854493Y-63530537D01*
X116951184Y-63451185D01*
X117030536Y-63354494D01*
X117089501Y-63244180D01*
X117125811Y-63124482D01*
X117138071Y-63000000D01*
X117134999Y-62031750D01*
X116976249Y-61873000D01*
X115372999Y-61873000D01*
X113626999Y-61873000D01*
X113606999Y-61873000D01*
X113606999Y-60127000D01*
X113626999Y-60127000D01*
X113626999Y-60107000D01*
X115372999Y-60107000D01*
X115372999Y-60127000D01*
X116976249Y-60127000D01*
X117134999Y-59968250D01*
X117138071Y-59000000D01*
X117125811Y-58875518D01*
X117089501Y-58755820D01*
X117030536Y-58645506D01*
X117015349Y-58627000D01*
X126881748Y-58627000D01*
X127079011Y-61388680D01*
%TA.AperFunction,Conductor*%
D28*
G36*
X127079011Y-61388680D02*
G01*
X126998102Y-61404774D01*
X126809744Y-61482795D01*
X126640226Y-61596063D01*
X126496063Y-61740226D01*
X126382795Y-61909744D01*
X126304774Y-62098102D01*
X126265000Y-62298061D01*
X126265000Y-62501939D01*
X126304774Y-62701898D01*
X126382795Y-62890256D01*
X126496063Y-63059774D01*
X126640226Y-63203937D01*
X126802941Y-63312659D01*
X125531750Y-63315000D01*
X125373000Y-63473750D01*
X125373000Y-64527000D01*
X125393000Y-64527000D01*
X125393000Y-66273000D01*
X125373000Y-66273000D01*
X125373000Y-67326250D01*
X125531750Y-67485000D01*
X127200000Y-67488072D01*
X127324482Y-67475812D01*
X127444180Y-67439502D01*
X127508747Y-67404990D01*
X127858105Y-72295998D01*
X126135000Y-71512768D01*
X126135000Y-70104882D01*
X126145330Y-70000000D01*
X126104108Y-69581467D01*
X125982026Y-69179018D01*
X125783777Y-68808119D01*
X125516977Y-68483023D01*
X125272235Y-68282168D01*
X125257972Y-68235149D01*
X125175905Y-68081613D01*
X125065462Y-67947038D01*
X124930887Y-67836595D01*
X124777351Y-67754528D01*
X124610755Y-67703992D01*
X124437501Y-67686928D01*
X123712499Y-67686928D01*
X123539245Y-67703992D01*
X123372649Y-67754528D01*
X123219113Y-67836595D01*
X123184501Y-67865000D01*
X117884345Y-67865000D01*
X117138071Y-67118727D01*
X117138071Y-66850000D01*
X121161928Y-66850000D01*
X121174188Y-66974482D01*
X121210498Y-67094180D01*
X121269463Y-67204494D01*
X121348815Y-67301185D01*
X121445506Y-67380537D01*
X121555820Y-67439502D01*
X121675518Y-67475812D01*
X121800000Y-67488072D01*
X123468250Y-67485000D01*
X123627000Y-67326250D01*
X123627000Y-66273000D01*
X121323750Y-66273000D01*
X121165000Y-66431750D01*
X121161928Y-66850000D01*
X117138071Y-66850000D01*
X117138071Y-65500000D01*
X117125811Y-65375518D01*
X117089501Y-65255820D01*
X117030536Y-65145506D01*
X116951184Y-65048815D01*
X116854493Y-64969463D01*
X116744179Y-64910498D01*
X116624481Y-64874188D01*
X116499999Y-64861928D01*
X112660000Y-64861928D01*
X112660000Y-63950000D01*
X121161928Y-63950000D01*
X121165000Y-64368250D01*
X121323750Y-64527000D01*
X123627000Y-64527000D01*
X123627000Y-63473750D01*
X123468250Y-63315000D01*
X121800000Y-63311928D01*
X121675518Y-63324188D01*
X121555820Y-63360498D01*
X121445506Y-63419463D01*
X121348815Y-63498815D01*
X121269463Y-63595506D01*
X121210498Y-63705820D01*
X121174188Y-63825518D01*
X121161928Y-63950000D01*
X112660000Y-63950000D01*
X112660000Y-63637564D01*
X113468249Y-63635000D01*
X113626999Y-63476250D01*
X113626999Y-61873000D01*
X115372999Y-61873000D01*
X115372999Y-63476250D01*
X115531749Y-63635000D01*
X116499999Y-63638072D01*
X116624481Y-63625812D01*
X116744179Y-63589502D01*
X116854493Y-63530537D01*
X116951184Y-63451185D01*
X117030536Y-63354494D01*
X117089501Y-63244180D01*
X117125811Y-63124482D01*
X117138071Y-63000000D01*
X117134999Y-62031750D01*
X116976249Y-61873000D01*
X115372999Y-61873000D01*
X113626999Y-61873000D01*
X113606999Y-61873000D01*
X113606999Y-60127000D01*
X113626999Y-60127000D01*
X113626999Y-60107000D01*
X115372999Y-60107000D01*
X115372999Y-60127000D01*
X116976249Y-60127000D01*
X117134999Y-59968250D01*
X117138071Y-59000000D01*
X117125811Y-58875518D01*
X117089501Y-58755820D01*
X117030536Y-58645506D01*
X117015349Y-58627000D01*
X126881748Y-58627000D01*
X127079011Y-61388680D01*
G37*
%TD.AperFunction*%
%TD*%
D27*
%TO.N,Net-(C3-Pad2)*%
X115050987Y-70449013D02*
X115147213Y-70527983D01*
X115256996Y-70586664D01*
X115376118Y-70622799D01*
X115500000Y-70635000D01*
X122362452Y-70635000D01*
X122826656Y-70846002D01*
X122824428Y-71675000D01*
X122836688Y-71799482D01*
X122872998Y-71919180D01*
X122898078Y-71966101D01*
X122894463Y-71970506D01*
X122835498Y-72080820D01*
X122799188Y-72200518D01*
X122786928Y-72325000D01*
X122790000Y-73468250D01*
X122948750Y-73627000D01*
X123664500Y-73627000D01*
X123664500Y-72188750D01*
X123702000Y-72151250D01*
X123702000Y-71243885D01*
X124448000Y-71582976D01*
X124448000Y-71811250D01*
X124410500Y-71848750D01*
X124410500Y-73627000D01*
X125126250Y-73627000D01*
X125285000Y-73468250D01*
X125288072Y-72325000D01*
X125275812Y-72200518D01*
X125239502Y-72080820D01*
X125214422Y-72033899D01*
X125218037Y-72029494D01*
X125259536Y-71951856D01*
X126878028Y-72687534D01*
X126893551Y-72706449D01*
X127066377Y-72848284D01*
X127263553Y-72953676D01*
X127477501Y-73018577D01*
X127615000Y-73032119D01*
X127615000Y-76340000D01*
X116032898Y-76340001D01*
X116352550Y-76020349D01*
X116583305Y-75675000D01*
X122786928Y-75675000D01*
X122799188Y-75799482D01*
X122835498Y-75919180D01*
X122894463Y-76029494D01*
X122973815Y-76126185D01*
X123070506Y-76205537D01*
X123180820Y-76264502D01*
X123300518Y-76300812D01*
X123425000Y-76313072D01*
X123505750Y-76310000D01*
X123664500Y-76151250D01*
X123664500Y-74373000D01*
X124410500Y-74373000D01*
X124410500Y-76151250D01*
X124569250Y-76310000D01*
X124650000Y-76313072D01*
X124774482Y-76300812D01*
X124894180Y-76264502D01*
X125004494Y-76205537D01*
X125101185Y-76126185D01*
X125180537Y-76029494D01*
X125239502Y-75919180D01*
X125275812Y-75799482D01*
X125288072Y-75675000D01*
X125285000Y-74531750D01*
X125126250Y-74373000D01*
X124410500Y-74373000D01*
X123664500Y-74373000D01*
X122948750Y-74373000D01*
X122790000Y-74531750D01*
X122786928Y-75675000D01*
X116583305Y-75675000D01*
X116613560Y-75629721D01*
X116793346Y-75195679D01*
X116885000Y-74734902D01*
X116885000Y-74265098D01*
X116793346Y-73804321D01*
X116613560Y-73370279D01*
X116352550Y-72979651D01*
X116020349Y-72647450D01*
X115629721Y-72386440D01*
X115195679Y-72206654D01*
X114734902Y-72115000D01*
X114265098Y-72115000D01*
X113804321Y-72206654D01*
X113370279Y-72386440D01*
X112979651Y-72647450D01*
X112660000Y-72967101D01*
X112660000Y-70137737D01*
X113968249Y-70135000D01*
X114126999Y-69976250D01*
X114126999Y-69525025D01*
X115050987Y-70449013D01*
%TA.AperFunction,Conductor*%
D28*
G36*
X115050987Y-70449013D02*
G01*
X115147213Y-70527983D01*
X115256996Y-70586664D01*
X115376118Y-70622799D01*
X115500000Y-70635000D01*
X122362452Y-70635000D01*
X122826656Y-70846002D01*
X122824428Y-71675000D01*
X122836688Y-71799482D01*
X122872998Y-71919180D01*
X122898078Y-71966101D01*
X122894463Y-71970506D01*
X122835498Y-72080820D01*
X122799188Y-72200518D01*
X122786928Y-72325000D01*
X122790000Y-73468250D01*
X122948750Y-73627000D01*
X123664500Y-73627000D01*
X123664500Y-72188750D01*
X123702000Y-72151250D01*
X123702000Y-71243885D01*
X124448000Y-71582976D01*
X124448000Y-71811250D01*
X124410500Y-71848750D01*
X124410500Y-73627000D01*
X125126250Y-73627000D01*
X125285000Y-73468250D01*
X125288072Y-72325000D01*
X125275812Y-72200518D01*
X125239502Y-72080820D01*
X125214422Y-72033899D01*
X125218037Y-72029494D01*
X125259536Y-71951856D01*
X126878028Y-72687534D01*
X126893551Y-72706449D01*
X127066377Y-72848284D01*
X127263553Y-72953676D01*
X127477501Y-73018577D01*
X127615000Y-73032119D01*
X127615000Y-76340000D01*
X116032898Y-76340001D01*
X116352550Y-76020349D01*
X116583305Y-75675000D01*
X122786928Y-75675000D01*
X122799188Y-75799482D01*
X122835498Y-75919180D01*
X122894463Y-76029494D01*
X122973815Y-76126185D01*
X123070506Y-76205537D01*
X123180820Y-76264502D01*
X123300518Y-76300812D01*
X123425000Y-76313072D01*
X123505750Y-76310000D01*
X123664500Y-76151250D01*
X123664500Y-74373000D01*
X124410500Y-74373000D01*
X124410500Y-76151250D01*
X124569250Y-76310000D01*
X124650000Y-76313072D01*
X124774482Y-76300812D01*
X124894180Y-76264502D01*
X125004494Y-76205537D01*
X125101185Y-76126185D01*
X125180537Y-76029494D01*
X125239502Y-75919180D01*
X125275812Y-75799482D01*
X125288072Y-75675000D01*
X125285000Y-74531750D01*
X125126250Y-74373000D01*
X124410500Y-74373000D01*
X123664500Y-74373000D01*
X122948750Y-74373000D01*
X122790000Y-74531750D01*
X122786928Y-75675000D01*
X116583305Y-75675000D01*
X116613560Y-75629721D01*
X116793346Y-75195679D01*
X116885000Y-74734902D01*
X116885000Y-74265098D01*
X116793346Y-73804321D01*
X116613560Y-73370279D01*
X116352550Y-72979651D01*
X116020349Y-72647450D01*
X115629721Y-72386440D01*
X115195679Y-72206654D01*
X114734902Y-72115000D01*
X114265098Y-72115000D01*
X113804321Y-72206654D01*
X113370279Y-72386440D01*
X112979651Y-72647450D01*
X112660000Y-72967101D01*
X112660000Y-70137737D01*
X113968249Y-70135000D01*
X114126999Y-69976250D01*
X114126999Y-69525025D01*
X115050987Y-70449013D01*
G37*
%TD.AperFunction*%
%TD*%
M02*
