%TF.GenerationSoftware,KiCad,Pcbnew,(5.1.9-0-10_14)*%
%TF.CreationDate,2021-03-07T11:09:53+08:00*%
%TF.ProjectId,xhp70-driver,78687037-302d-4647-9269-7665722e6b69,rev?*%
%TF.SameCoordinates,Original*%
%TF.FileFunction,Soldermask,Bot*%
%TF.FilePolarity,Negative*%
%FSLAX46Y46*%
G04 Gerber Fmt 4.6, Leading zero omitted, Abs format (unit mm)*
G04 Created by KiCad (PCBNEW (5.1.9-0-10_14)) date 2021-03-07 11:09:53*
%MOMM*%
%LPD*%
G01*
G04 APERTURE LIST*
%ADD10C,3.500000*%
%ADD11O,1.905000X2.000000*%
%ADD12R,1.905000X2.000000*%
%ADD13O,2.000000X2.000000*%
%ADD14R,2.000000X2.000000*%
G04 APERTURE END LIST*
%TO.C,C7*%
G36*
G01*
X149150000Y-62425000D02*
X149150000Y-63375000D01*
G75*
G02*
X148900000Y-63625000I-250000J0D01*
G01*
X148400000Y-63625000D01*
G75*
G02*
X148150000Y-63375000I0J250000D01*
G01*
X148150000Y-62425000D01*
G75*
G02*
X148400000Y-62175000I250000J0D01*
G01*
X148900000Y-62175000D01*
G75*
G02*
X149150000Y-62425000I0J-250000D01*
G01*
G37*
G36*
G01*
X151050000Y-62425000D02*
X151050000Y-63375000D01*
G75*
G02*
X150800000Y-63625000I-250000J0D01*
G01*
X150300000Y-63625000D01*
G75*
G02*
X150050000Y-63375000I0J250000D01*
G01*
X150050000Y-62425000D01*
G75*
G02*
X150300000Y-62175000I250000J0D01*
G01*
X150800000Y-62175000D01*
G75*
G02*
X151050000Y-62425000I0J-250000D01*
G01*
G37*
%TD*%
D10*
%TO.C,H3*%
X156750000Y-74500000D03*
%TD*%
D11*
%TO.C,Q1*%
X120920000Y-56000000D03*
X123460000Y-56000000D03*
D12*
X126000000Y-56000000D03*
%TD*%
D13*
%TO.C,D1*%
X135000000Y-59080000D03*
D14*
X135000000Y-54000000D03*
%TD*%
%TO.C,R2*%
G36*
G01*
X124687500Y-72574999D02*
X124687500Y-75425001D01*
G75*
G02*
X124437501Y-75675000I-249999J0D01*
G01*
X123712499Y-75675000D01*
G75*
G02*
X123462500Y-75425001I0J249999D01*
G01*
X123462500Y-72574999D01*
G75*
G02*
X123712499Y-72325000I249999J0D01*
G01*
X124437501Y-72325000D01*
G75*
G02*
X124687500Y-72574999I0J-249999D01*
G01*
G37*
G36*
G01*
X130612500Y-72574999D02*
X130612500Y-75425001D01*
G75*
G02*
X130362501Y-75675000I-249999J0D01*
G01*
X129637499Y-75675000D01*
G75*
G02*
X129387500Y-75425001I0J249999D01*
G01*
X129387500Y-72574999D01*
G75*
G02*
X129637499Y-72325000I249999J0D01*
G01*
X130362501Y-72325000D01*
G75*
G02*
X130612500Y-72574999I0J-249999D01*
G01*
G37*
%TD*%
%TO.C,C1*%
G36*
G01*
X142650000Y-75650003D02*
X142650000Y-74349997D01*
G75*
G02*
X142899997Y-74100000I249997J0D01*
G01*
X143725003Y-74100000D01*
G75*
G02*
X143975000Y-74349997I0J-249997D01*
G01*
X143975000Y-75650003D01*
G75*
G02*
X143725003Y-75900000I-249997J0D01*
G01*
X142899997Y-75900000D01*
G75*
G02*
X142650000Y-75650003I0J249997D01*
G01*
G37*
G36*
G01*
X139525000Y-75650003D02*
X139525000Y-74349997D01*
G75*
G02*
X139774997Y-74100000I249997J0D01*
G01*
X140600003Y-74100000D01*
G75*
G02*
X140850000Y-74349997I0J-249997D01*
G01*
X140850000Y-75650003D01*
G75*
G02*
X140600003Y-75900000I-249997J0D01*
G01*
X139774997Y-75900000D01*
G75*
G02*
X139525000Y-75650003I0J249997D01*
G01*
G37*
%TD*%
D10*
%TO.C,H1*%
X114500000Y-53250000D03*
%TD*%
%TO.C,H5*%
X134000000Y-65750000D03*
%TD*%
%TO.C,H4*%
X156750000Y-53250000D03*
%TD*%
%TO.C,H2*%
X114500000Y-74500000D03*
%TD*%
M02*
