M48
; DRILL file {KiCad (5.1.9)-1} date 04/21/21 21:59:09
; FORMAT={-:-/ absolute / metric / decimal}
; #@! TF.CreationDate,2021-04-21T21:59:09+08:00
; #@! TF.GenerationSoftware,Kicad,Pcbnew,(5.1.9)-1
; #@! TF.FileFunction,Plated,1,2,PTH
FMAT,2
METRIC
T1C0.400
T2C1.100
T3C2.200
%
G90
G05
T1
X113.0Y-57.3
X113.0Y-58.7
X113.0Y-60.1
X113.4Y-58.0
X113.4Y-59.4
X113.4Y-60.8
X113.8Y-57.3
X113.8Y-58.7
X113.8Y-60.1
X114.2Y-58.0
X114.2Y-59.4
X114.2Y-60.8
X114.6Y-57.3
X114.6Y-58.7
X114.6Y-60.1
X115.0Y-58.0
X115.0Y-59.4
X115.0Y-60.8
X115.4Y-57.3
X115.4Y-58.7
X115.4Y-60.1
X115.8Y-58.0
X115.8Y-59.4
X115.8Y-60.8
X116.2Y-57.3
X116.2Y-58.7
X116.2Y-60.1
X116.6Y-58.0
X116.6Y-59.4
X116.6Y-60.8
X117.0Y-57.3
X117.0Y-58.7
X117.0Y-60.1
X117.5Y-72.9
X117.5Y-74.3
X117.5Y-75.7
X117.9Y-72.2
X117.9Y-73.6
X117.9Y-75.0
X118.3Y-72.9
X118.3Y-74.3
X118.3Y-75.7
X118.7Y-72.2
X118.7Y-73.6
X118.7Y-75.0
X119.1Y-72.9
X119.1Y-74.3
X119.1Y-75.7
X119.5Y-72.2
X119.5Y-73.6
X119.5Y-75.0
X119.9Y-72.9
X119.9Y-74.3
X119.9Y-75.7
X120.3Y-72.2
X120.3Y-73.6
X120.3Y-75.0
X120.7Y-72.9
X120.7Y-74.3
X120.7Y-75.7
X121.1Y-72.2
X121.1Y-73.6
X121.1Y-75.0
X121.5Y-72.9
X121.5Y-74.3
X121.5Y-75.7
X121.9Y-72.2
X121.9Y-73.6
X121.9Y-75.0
X122.3Y-72.9
X122.3Y-74.3
X122.3Y-75.7
X122.7Y-58.0
X122.7Y-72.2
X122.7Y-73.6
X122.7Y-75.0
X123.1Y-58.7
X123.1Y-72.9
X123.1Y-74.3
X123.1Y-75.7
X123.5Y-58.0
X123.5Y-59.4
X123.5Y-72.2
X123.5Y-73.6
X123.5Y-75.0
X123.9Y-58.7
X123.9Y-60.1
X123.9Y-72.9
X123.9Y-74.3
X123.9Y-75.7
X124.3Y-58.0
X124.3Y-59.4
X124.3Y-72.2
X124.3Y-73.6
X124.3Y-75.0
X124.7Y-58.7
X124.7Y-60.1
X124.7Y-72.9
X124.7Y-74.3
X124.7Y-75.7
X125.1Y-58.0
X125.1Y-59.4
X125.1Y-72.2
X125.1Y-73.6
X125.1Y-75.0
X125.5Y-58.7
X125.5Y-60.1
X125.9Y-58.0
X125.9Y-59.4
X126.3Y-58.7
X126.3Y-60.1
X126.7Y-58.0
X126.7Y-59.4
X127.1Y-58.7
X127.1Y-60.1
X127.3Y-62.4
X127.7Y-71.9
X128.75Y-73.5
X128.75Y-75.0
X129.25Y-72.75
X129.25Y-74.25
X129.25Y-75.75
X129.75Y-73.5
X129.75Y-75.0
X130.25Y-72.75
X130.25Y-74.25
X130.25Y-75.75
X130.75Y-73.5
X130.75Y-75.0
X131.25Y-72.75
X131.25Y-74.25
X131.25Y-75.75
X133.5Y-72.4
X135.3Y-62.6
X136.562Y-75.0
X136.562Y-75.0
X137.0Y-72.7
X139.35Y-63.5
X140.194Y-74.994
X140.365Y-60.1
X140.8Y-55.2
X140.9Y-68.0
X140.9Y-68.8
X140.9Y-69.6
X140.9Y-70.4
X141.44Y-54.432
X141.7Y-68.0
X141.7Y-68.8
X141.7Y-69.6
X141.7Y-70.4
X142.1Y-61.3
X142.4Y-73.3
X142.5Y-68.0
X142.5Y-68.8
X142.5Y-69.6
X142.5Y-70.4
X142.839Y-60.1
X143.3Y-68.0
X143.3Y-68.8
X143.3Y-69.6
X143.3Y-70.4
X143.312Y-75.0
X144.0Y-58.0
X145.068Y-67.1
X145.388Y-65.95
X145.8Y-55.5
X146.375Y-63.5
X146.387Y-65.913
X147.7Y-58.0
X147.75Y-72.425
X148.65Y-60.6
X150.425Y-65.5
X151.0Y-70.5
X151.4Y-55.5
X155.0Y-57.0
X155.0Y-58.0
X155.0Y-59.0
X155.0Y-60.0
X155.0Y-63.5
X155.0Y-64.5
X155.0Y-65.5
X155.0Y-66.5
X156.0Y-57.0
X156.0Y-58.0
X156.0Y-59.0
X156.0Y-60.0
X156.0Y-63.5
X156.0Y-64.5
X156.0Y-65.5
X156.0Y-66.5
X157.0Y-57.0
X157.0Y-58.0
X157.0Y-59.0
X157.0Y-60.0
X157.0Y-63.5
X157.0Y-64.5
X157.0Y-65.5
X157.0Y-66.5
X158.0Y-57.0
X158.0Y-58.0
X158.0Y-59.0
X158.0Y-60.0
X158.0Y-63.5
X158.0Y-64.5
X158.0Y-65.5
X158.0Y-66.5
T2
X120.92Y-56.0
X123.46Y-56.0
X126.0Y-56.0
X135.0Y-54.0
X135.0Y-59.08
T3
X114.5Y-53.25
X114.5Y-74.5
X134.0Y-65.75
X156.75Y-53.25
X156.75Y-74.5
T0
M30
