%TF.GenerationSoftware,KiCad,Pcbnew,(5.1.9-0-10_14)*%
%TF.CreationDate,2021-03-06T23:30:08+08:00*%
%TF.ProjectId,xhp70-driver,78687037-302d-4647-9269-7665722e6b69,rev?*%
%TF.SameCoordinates,Original*%
%TF.FileFunction,Copper,L2,Bot*%
%TF.FilePolarity,Positive*%
%FSLAX46Y46*%
G04 Gerber Fmt 4.6, Leading zero omitted, Abs format (unit mm)*
G04 Created by KiCad (PCBNEW (5.1.9-0-10_14)) date 2021-03-06 23:30:08*
%MOMM*%
%LPD*%
G01*
G04 APERTURE LIST*
%TA.AperFunction,ComponentPad*%
%ADD10C,3.500000*%
%TD*%
%TA.AperFunction,ComponentPad*%
%ADD11O,1.905000X2.000000*%
%TD*%
%TA.AperFunction,ComponentPad*%
%ADD12R,1.905000X2.000000*%
%TD*%
%TA.AperFunction,ComponentPad*%
%ADD13O,2.000000X2.000000*%
%TD*%
%TA.AperFunction,ComponentPad*%
%ADD14R,2.000000X2.000000*%
%TD*%
%TA.AperFunction,ViaPad*%
%ADD15C,0.800000*%
%TD*%
%TA.AperFunction,Conductor*%
%ADD16C,3.000000*%
%TD*%
%TA.AperFunction,Conductor*%
%ADD17C,0.400000*%
%TD*%
%TA.AperFunction,Conductor*%
%ADD18C,2.500000*%
%TD*%
%TA.AperFunction,Conductor*%
%ADD19C,4.000000*%
%TD*%
%TA.AperFunction,Conductor*%
%ADD20C,0.250000*%
%TD*%
%TA.AperFunction,Conductor*%
%ADD21C,0.254000*%
%TD*%
%TA.AperFunction,Conductor*%
%ADD22C,0.100000*%
%TD*%
G04 APERTURE END LIST*
%TO.P,C7,2*%
%TO.N,GND*%
%TA.AperFunction,SMDPad,CuDef*%
G36*
G01*
X149150000Y-62425000D02*
X149150000Y-63375000D01*
G75*
G02*
X148900000Y-63625000I-250000J0D01*
G01*
X148400000Y-63625000D01*
G75*
G02*
X148150000Y-63375000I0J250000D01*
G01*
X148150000Y-62425000D01*
G75*
G02*
X148400000Y-62175000I250000J0D01*
G01*
X148900000Y-62175000D01*
G75*
G02*
X149150000Y-62425000I0J-250000D01*
G01*
G37*
%TD.AperFunction*%
%TO.P,C7,1*%
%TO.N,Batt+*%
%TA.AperFunction,SMDPad,CuDef*%
G36*
G01*
X151050000Y-62425000D02*
X151050000Y-63375000D01*
G75*
G02*
X150800000Y-63625000I-250000J0D01*
G01*
X150300000Y-63625000D01*
G75*
G02*
X150050000Y-63375000I0J250000D01*
G01*
X150050000Y-62425000D01*
G75*
G02*
X150300000Y-62175000I250000J0D01*
G01*
X150800000Y-62175000D01*
G75*
G02*
X151050000Y-62425000I0J-250000D01*
G01*
G37*
%TD.AperFunction*%
%TD*%
D10*
%TO.P,H3,1*%
%TO.N,N/C*%
X156750000Y-74500000D03*
%TD*%
D11*
%TO.P,Q1,3*%
%TO.N,GND*%
X120920000Y-56000000D03*
%TO.P,Q1,2*%
%TO.N,Net-(D1-Pad2)*%
X123460000Y-56000000D03*
D12*
%TO.P,Q1,1*%
%TO.N,Net-(Q1-Pad1)*%
X126000000Y-56000000D03*
%TD*%
D13*
%TO.P,D1,2*%
%TO.N,Net-(D1-Pad2)*%
X135000000Y-59080000D03*
D14*
%TO.P,D1,1*%
%TO.N,Batt+*%
X135000000Y-54000000D03*
%TD*%
%TO.P,R2,2*%
%TO.N,Net-(C3-Pad2)*%
%TA.AperFunction,SMDPad,CuDef*%
G36*
G01*
X124687500Y-72574999D02*
X124687500Y-75425001D01*
G75*
G02*
X124437501Y-75675000I-249999J0D01*
G01*
X123712499Y-75675000D01*
G75*
G02*
X123462500Y-75425001I0J249999D01*
G01*
X123462500Y-72574999D01*
G75*
G02*
X123712499Y-72325000I249999J0D01*
G01*
X124437501Y-72325000D01*
G75*
G02*
X124687500Y-72574999I0J-249999D01*
G01*
G37*
%TD.AperFunction*%
%TO.P,R2,1*%
%TO.N,Batt+*%
%TA.AperFunction,SMDPad,CuDef*%
G36*
G01*
X130612500Y-72574999D02*
X130612500Y-75425001D01*
G75*
G02*
X130362501Y-75675000I-249999J0D01*
G01*
X129637499Y-75675000D01*
G75*
G02*
X129387500Y-75425001I0J249999D01*
G01*
X129387500Y-72574999D01*
G75*
G02*
X129637499Y-72325000I249999J0D01*
G01*
X130362501Y-72325000D01*
G75*
G02*
X130612500Y-72574999I0J-249999D01*
G01*
G37*
%TD.AperFunction*%
%TD*%
%TO.P,C1,2*%
%TO.N,GND*%
%TA.AperFunction,SMDPad,CuDef*%
G36*
G01*
X142650000Y-75650003D02*
X142650000Y-74349997D01*
G75*
G02*
X142899997Y-74100000I249997J0D01*
G01*
X143725003Y-74100000D01*
G75*
G02*
X143975000Y-74349997I0J-249997D01*
G01*
X143975000Y-75650003D01*
G75*
G02*
X143725003Y-75900000I-249997J0D01*
G01*
X142899997Y-75900000D01*
G75*
G02*
X142650000Y-75650003I0J249997D01*
G01*
G37*
%TD.AperFunction*%
%TO.P,C1,1*%
%TO.N,Batt+*%
%TA.AperFunction,SMDPad,CuDef*%
G36*
G01*
X139525000Y-75650003D02*
X139525000Y-74349997D01*
G75*
G02*
X139774997Y-74100000I249997J0D01*
G01*
X140600003Y-74100000D01*
G75*
G02*
X140850000Y-74349997I0J-249997D01*
G01*
X140850000Y-75650003D01*
G75*
G02*
X140600003Y-75900000I-249997J0D01*
G01*
X139774997Y-75900000D01*
G75*
G02*
X139525000Y-75650003I0J249997D01*
G01*
G37*
%TD.AperFunction*%
%TD*%
D10*
%TO.P,H1,1*%
%TO.N,N/C*%
X114500000Y-53250000D03*
%TD*%
%TO.P,H5,1*%
%TO.N,N/C*%
X134000000Y-65750000D03*
%TD*%
%TO.P,H4,1*%
%TO.N,N/C*%
X156750000Y-53250000D03*
%TD*%
%TO.P,H2,1*%
%TO.N,N/C*%
X114500000Y-74500000D03*
%TD*%
D15*
%TO.N,GND*%
X137000000Y-72700000D03*
X158000000Y-63500000D03*
X157000000Y-63500000D03*
X156000000Y-63500000D03*
X155000000Y-63500000D03*
X155000000Y-64500000D03*
X156000000Y-64500000D03*
X157000000Y-64500000D03*
X158000000Y-64500000D03*
X156000000Y-66500000D03*
X157000000Y-66500000D03*
X158000000Y-66500000D03*
X155000000Y-66500000D03*
X155000000Y-65500000D03*
X156000000Y-65500000D03*
X158000000Y-65500000D03*
X157000000Y-65500000D03*
X147750000Y-72425000D03*
X140900000Y-68000000D03*
X141700000Y-68000000D03*
X142500000Y-68000000D03*
X143300000Y-68000000D03*
X140900000Y-68800000D03*
X141700000Y-68800000D03*
X142500000Y-68800000D03*
X143300000Y-68800000D03*
X143300000Y-69600000D03*
X142500000Y-69600000D03*
X141700000Y-69600000D03*
X140900000Y-69600000D03*
X140900000Y-70400000D03*
X141700000Y-70400000D03*
X142500000Y-70400000D03*
X143300000Y-70400000D03*
X139350000Y-63500000D03*
X142838803Y-60100000D03*
X146950000Y-60100000D03*
X146375000Y-63500000D03*
X151000000Y-70500000D03*
X143312500Y-75000000D03*
X148650000Y-60600000D03*
%TO.N,Net-(C3-Pad2)*%
X122700000Y-72200000D03*
X123500000Y-72200000D03*
X124300000Y-72200000D03*
X125100000Y-72200000D03*
X124700000Y-72900000D03*
X123900000Y-72900000D03*
X123100000Y-72900000D03*
X125100000Y-73600000D03*
X122700000Y-73600000D03*
X124300000Y-73600000D03*
X123500000Y-73600000D03*
X123900000Y-74300000D03*
X123100000Y-74300000D03*
X124700000Y-74300000D03*
X125100000Y-75000000D03*
X123900000Y-75700000D03*
X123100000Y-75700000D03*
X124700000Y-75700000D03*
X123500000Y-75000000D03*
X124300000Y-75000000D03*
X122700000Y-75000000D03*
X113000000Y-57300000D03*
X142400000Y-73300000D03*
X136562500Y-75000000D03*
X136562500Y-75000000D03*
X113800000Y-57300000D03*
X114600000Y-57300000D03*
X115400000Y-57300000D03*
X116200000Y-57300000D03*
X116600000Y-58000000D03*
X115000000Y-58000000D03*
X114200000Y-58000000D03*
X115800000Y-58000000D03*
X113400000Y-58000000D03*
X117000000Y-57300000D03*
X116200000Y-58700000D03*
X116600000Y-59400000D03*
X114200000Y-59400000D03*
X114600000Y-58700000D03*
X115000000Y-59400000D03*
X113400000Y-59400000D03*
X115800000Y-59400000D03*
X117000000Y-58700000D03*
X113800000Y-58700000D03*
X115400000Y-58700000D03*
X113000000Y-58700000D03*
X115800000Y-60800000D03*
X113000000Y-60100000D03*
X115400000Y-60100000D03*
X114200000Y-60800000D03*
X116600000Y-60800000D03*
X115000000Y-60800000D03*
X113800000Y-60100000D03*
X117000000Y-60100000D03*
X116200000Y-60100000D03*
X114600000Y-60100000D03*
X113400000Y-60800000D03*
%TO.N,Net-(Q1-Pad1)*%
X127300000Y-62400000D03*
X135300000Y-62600000D03*
%TO.N,Batt+*%
X158000000Y-59000000D03*
X158000000Y-60000000D03*
X157000000Y-60000000D03*
X157000000Y-59000000D03*
X156000000Y-59000000D03*
X156000000Y-60000000D03*
X155000000Y-60000000D03*
X155000000Y-59000000D03*
X155000000Y-58000000D03*
X156000000Y-58000000D03*
X157000000Y-58000000D03*
X158000000Y-58000000D03*
X158000000Y-57000000D03*
X157000000Y-57000000D03*
X156000000Y-57000000D03*
X155000000Y-57000000D03*
X129250000Y-72750000D03*
X130250000Y-72750000D03*
X131250000Y-72750000D03*
X130750000Y-73500000D03*
X129750000Y-73500000D03*
X128750000Y-73500000D03*
X131250000Y-74250000D03*
X129250000Y-74250000D03*
X130250000Y-74250000D03*
X129250000Y-75750000D03*
X130250000Y-75750000D03*
X131250000Y-75750000D03*
X130750000Y-75000000D03*
X128750000Y-75000000D03*
X129750000Y-75000000D03*
X144000000Y-58000000D03*
X140193750Y-74993750D03*
%TO.N,Net-(J2-Pad3)*%
X141440186Y-54431777D03*
X151400000Y-55500000D03*
%TO.N,PWM*%
X142100000Y-61300000D03*
X146387347Y-65912653D03*
%TO.N,Net-(C3-Pad1)*%
X133500000Y-72400000D03*
X127700000Y-71900000D03*
%TO.N,Net-(C8-Pad1)*%
X145800000Y-55500000D03*
X140800000Y-55200000D03*
%TD*%
D16*
%TO.N,GND*%
X129662002Y-69200001D02*
X120147489Y-59685488D01*
X155000000Y-64500000D02*
X150299999Y-69200001D01*
D17*
X137000000Y-69700002D02*
X137500001Y-69200001D01*
X137000000Y-72700000D02*
X137000000Y-69700002D01*
D16*
X137500001Y-69200001D02*
X129662002Y-69200001D01*
D17*
X145175000Y-75000000D02*
X147750000Y-72425000D01*
X143312500Y-75000000D02*
X143312500Y-75000000D01*
X147750000Y-70550000D02*
X149099999Y-69200001D01*
X147750000Y-72425000D02*
X147750000Y-70550000D01*
D16*
X150299999Y-69200001D02*
X149099999Y-69200001D01*
X149099999Y-69200001D02*
X145300001Y-69200001D01*
X145300001Y-69200001D02*
X137500001Y-69200001D01*
D17*
X139350000Y-62775000D02*
X142025000Y-60100000D01*
X142025000Y-60100000D02*
X142838803Y-60100000D01*
X139350000Y-63500000D02*
X139350000Y-62775000D01*
X142838803Y-60100000D02*
X146950000Y-60100000D01*
X146950000Y-62925000D02*
X146375000Y-63500000D01*
X146950000Y-60100000D02*
X146950000Y-62925000D01*
D18*
X120920000Y-56000000D02*
X120250000Y-56000000D01*
X120147489Y-56102511D02*
X120147489Y-59685488D01*
X120250000Y-56000000D02*
X120147489Y-56102511D01*
D17*
X143312500Y-75000000D02*
X145175000Y-75000000D01*
X147450000Y-60600000D02*
X146950000Y-60100000D01*
X148650000Y-60600000D02*
X147450000Y-60600000D01*
X148650000Y-62900000D02*
X148650000Y-60600000D01*
D19*
%TO.N,Net-(C3-Pad2)*%
X115000000Y-64925000D02*
X115000000Y-59000000D01*
X124075000Y-74000000D02*
X115000000Y-64925000D01*
D20*
X138262500Y-73300000D02*
X136562500Y-75000000D01*
X142400000Y-73300000D02*
X138262500Y-73300000D01*
D18*
%TO.N,Net-(D1-Pad2)*%
X123347499Y-57250000D02*
X123347499Y-57371216D01*
X123347499Y-58360001D02*
X123347499Y-57250000D01*
X124067498Y-59080000D02*
X123347499Y-58360001D01*
D16*
X135000000Y-59080000D02*
X124067498Y-59080000D01*
D20*
%TO.N,Net-(Q1-Pad1)*%
X133921002Y-62600000D02*
X135300000Y-62600000D01*
X133721002Y-62400000D02*
X133921002Y-62600000D01*
X127300000Y-62400000D02*
X133721002Y-62400000D01*
D16*
%TO.N,Batt+*%
X139000000Y-58000000D02*
X135000000Y-54000000D01*
X144000000Y-58000000D02*
X139000000Y-58000000D01*
D20*
X150550000Y-59850000D02*
X152400000Y-58000000D01*
D16*
X152400000Y-58000000D02*
X144000000Y-58000000D01*
X155000000Y-58000000D02*
X152400000Y-58000000D01*
D20*
X150550000Y-62900000D02*
X150550000Y-60250000D01*
X150550000Y-60250000D02*
X150550000Y-59850000D01*
X150550000Y-60600000D02*
X150550000Y-60250000D01*
%TO.N,Net-(J2-Pad3)*%
X141440186Y-54431777D02*
X150331777Y-54431777D01*
X150331777Y-54431777D02*
X151400000Y-55500000D01*
%TO.N,PWM*%
X146387347Y-65587347D02*
X146387347Y-65912653D01*
X142100000Y-61300000D02*
X146387347Y-65587347D01*
%TO.N,Net-(C3-Pad1)*%
X133000000Y-71900000D02*
X127700000Y-71900000D01*
X133500000Y-72400000D02*
X133000000Y-71900000D01*
%TO.N,Net-(C8-Pad1)*%
X141100000Y-55500000D02*
X140800000Y-55200000D01*
X145800000Y-55500000D02*
X141100000Y-55500000D01*
%TD*%
D21*
%TO.N,GND*%
X158373000Y-66841427D02*
X154627000Y-66841427D01*
X154627000Y-63095427D01*
X158373000Y-63095427D01*
X158373000Y-66841427D01*
%TA.AperFunction,Conductor*%
D22*
G36*
X158373000Y-66841427D02*
G01*
X154627000Y-66841427D01*
X154627000Y-63095427D01*
X158373000Y-63095427D01*
X158373000Y-66841427D01*
G37*
%TD.AperFunction*%
%TD*%
D21*
%TO.N,Batt+*%
X131373000Y-75623000D02*
X128877000Y-75623000D01*
X128877000Y-72660000D01*
X131373000Y-72660000D01*
X131373000Y-75623000D01*
%TA.AperFunction,Conductor*%
D22*
G36*
X131373000Y-75623000D02*
G01*
X128877000Y-75623000D01*
X128877000Y-72660000D01*
X131373000Y-72660000D01*
X131373000Y-75623000D01*
G37*
%TD.AperFunction*%
%TD*%
D21*
%TO.N,Net-(C3-Pad2)*%
X125123000Y-75873000D02*
X122627000Y-75873000D01*
X122627000Y-72127000D01*
X125123000Y-72127000D01*
X125123000Y-75873000D01*
%TA.AperFunction,Conductor*%
D22*
G36*
X125123000Y-75873000D02*
G01*
X122627000Y-75873000D01*
X122627000Y-72127000D01*
X125123000Y-72127000D01*
X125123000Y-75873000D01*
G37*
%TD.AperFunction*%
%TD*%
D21*
%TO.N,Net-(D1-Pad2)*%
X132873000Y-53813903D02*
X132854671Y-54000000D01*
X132873000Y-54186097D01*
X132873000Y-60373000D01*
X123854346Y-60373000D01*
X123071613Y-59590267D01*
X122032489Y-57957358D01*
X122032489Y-57525521D01*
X122259345Y-57339345D01*
X122494903Y-57052317D01*
X122669939Y-56724848D01*
X122777725Y-56369524D01*
X122814120Y-56000000D01*
X122777725Y-55630476D01*
X122669939Y-55275152D01*
X122522868Y-55000000D01*
X124409428Y-55000000D01*
X124409428Y-57000000D01*
X124421688Y-57124482D01*
X124457998Y-57244180D01*
X124516963Y-57354494D01*
X124596315Y-57451185D01*
X124693006Y-57530537D01*
X124803320Y-57589502D01*
X124923018Y-57625812D01*
X125047500Y-57638072D01*
X126952500Y-57638072D01*
X127076982Y-57625812D01*
X127196680Y-57589502D01*
X127306994Y-57530537D01*
X127403685Y-57451185D01*
X127483037Y-57354494D01*
X127542002Y-57244180D01*
X127578312Y-57124482D01*
X127590572Y-57000000D01*
X127590572Y-55000000D01*
X127578312Y-54875518D01*
X127542002Y-54755820D01*
X127483037Y-54645506D01*
X127403685Y-54548815D01*
X127306994Y-54469463D01*
X127196680Y-54410498D01*
X127076982Y-54374188D01*
X126952500Y-54361928D01*
X125047500Y-54361928D01*
X124923018Y-54374188D01*
X124803320Y-54410498D01*
X124693006Y-54469463D01*
X124596315Y-54548815D01*
X124516963Y-54645506D01*
X124457998Y-54755820D01*
X124421688Y-54875518D01*
X124409428Y-55000000D01*
X122522868Y-55000000D01*
X122494903Y-54947683D01*
X122259345Y-54660655D01*
X121984011Y-54434694D01*
X122081582Y-51410000D01*
X132873000Y-51410000D01*
X132873000Y-53813903D01*
%TA.AperFunction,Conductor*%
D22*
G36*
X132873000Y-53813903D02*
G01*
X132854671Y-54000000D01*
X132873000Y-54186097D01*
X132873000Y-60373000D01*
X123854346Y-60373000D01*
X123071613Y-59590267D01*
X122032489Y-57957358D01*
X122032489Y-57525521D01*
X122259345Y-57339345D01*
X122494903Y-57052317D01*
X122669939Y-56724848D01*
X122777725Y-56369524D01*
X122814120Y-56000000D01*
X122777725Y-55630476D01*
X122669939Y-55275152D01*
X122522868Y-55000000D01*
X124409428Y-55000000D01*
X124409428Y-57000000D01*
X124421688Y-57124482D01*
X124457998Y-57244180D01*
X124516963Y-57354494D01*
X124596315Y-57451185D01*
X124693006Y-57530537D01*
X124803320Y-57589502D01*
X124923018Y-57625812D01*
X125047500Y-57638072D01*
X126952500Y-57638072D01*
X127076982Y-57625812D01*
X127196680Y-57589502D01*
X127306994Y-57530537D01*
X127403685Y-57451185D01*
X127483037Y-57354494D01*
X127542002Y-57244180D01*
X127578312Y-57124482D01*
X127590572Y-57000000D01*
X127590572Y-55000000D01*
X127578312Y-54875518D01*
X127542002Y-54755820D01*
X127483037Y-54645506D01*
X127403685Y-54548815D01*
X127306994Y-54469463D01*
X127196680Y-54410498D01*
X127076982Y-54374188D01*
X126952500Y-54361928D01*
X125047500Y-54361928D01*
X124923018Y-54374188D01*
X124803320Y-54410498D01*
X124693006Y-54469463D01*
X124596315Y-54548815D01*
X124516963Y-54645506D01*
X124457998Y-54755820D01*
X124421688Y-54875518D01*
X124409428Y-55000000D01*
X122522868Y-55000000D01*
X122494903Y-54947683D01*
X122259345Y-54660655D01*
X121984011Y-54434694D01*
X122081582Y-51410000D01*
X132873000Y-51410000D01*
X132873000Y-53813903D01*
G37*
%TD.AperFunction*%
%TD*%
D21*
%TO.N,GND*%
X121373477Y-60511002D02*
X121378055Y-60535474D01*
X121387319Y-60558583D01*
X121400913Y-60579440D01*
X121418315Y-60597245D01*
X121448420Y-60616054D01*
X123698420Y-61616054D01*
X123722053Y-61623887D01*
X123750000Y-61627000D01*
X126609289Y-61627000D01*
X126496063Y-61740226D01*
X126382795Y-61909744D01*
X126304774Y-62098102D01*
X126265000Y-62298061D01*
X126265000Y-62501939D01*
X126304774Y-62701898D01*
X126382795Y-62890256D01*
X126496063Y-63059774D01*
X126640226Y-63203937D01*
X126809744Y-63317205D01*
X126998102Y-63395226D01*
X127198061Y-63435000D01*
X127401939Y-63435000D01*
X127601898Y-63395226D01*
X127790256Y-63317205D01*
X127959774Y-63203937D01*
X128003711Y-63160000D01*
X133405370Y-63160000D01*
X133496726Y-63234974D01*
X133628755Y-63305546D01*
X133772016Y-63349003D01*
X133883669Y-63360000D01*
X133883677Y-63360000D01*
X133921002Y-63363676D01*
X133958327Y-63360000D01*
X134596289Y-63360000D01*
X134640226Y-63403937D01*
X134757359Y-63482203D01*
X134695679Y-63456654D01*
X134234902Y-63365000D01*
X133765098Y-63365000D01*
X133304321Y-63456654D01*
X132870279Y-63636440D01*
X132479651Y-63897450D01*
X132147450Y-64229651D01*
X131886440Y-64620279D01*
X131706654Y-65054321D01*
X131615000Y-65515098D01*
X131615000Y-65984902D01*
X131706654Y-66445679D01*
X131886440Y-66879721D01*
X132147450Y-67270349D01*
X132479651Y-67602550D01*
X132870279Y-67863560D01*
X133304321Y-68043346D01*
X133765098Y-68135000D01*
X134234902Y-68135000D01*
X134695679Y-68043346D01*
X135129721Y-67863560D01*
X135520349Y-67602550D01*
X135852550Y-67270349D01*
X136113560Y-66879721D01*
X136293346Y-66445679D01*
X136385000Y-65984902D01*
X136385000Y-65515098D01*
X136293346Y-65054321D01*
X136113560Y-64620279D01*
X135852550Y-64229651D01*
X135520349Y-63897450D01*
X135129721Y-63636440D01*
X135059896Y-63607517D01*
X135198061Y-63635000D01*
X135401939Y-63635000D01*
X135601898Y-63595226D01*
X135790256Y-63517205D01*
X135959774Y-63403937D01*
X136103937Y-63259774D01*
X136217205Y-63090256D01*
X136295226Y-62901898D01*
X136335000Y-62701939D01*
X136335000Y-62498061D01*
X136295226Y-62298102D01*
X136217205Y-62109744D01*
X136103937Y-61940226D01*
X135959774Y-61796063D01*
X135790256Y-61682795D01*
X135655556Y-61627000D01*
X141115172Y-61627000D01*
X141182795Y-61790256D01*
X141296063Y-61959774D01*
X141440226Y-62103937D01*
X141609744Y-62217205D01*
X141798102Y-62295226D01*
X141998061Y-62335000D01*
X142060199Y-62335000D01*
X145382802Y-65657604D01*
X145352347Y-65810714D01*
X145352347Y-66014592D01*
X145392121Y-66214551D01*
X145470142Y-66402909D01*
X145583410Y-66572427D01*
X145727573Y-66716590D01*
X145897091Y-66829858D01*
X146085449Y-66907879D01*
X146285408Y-66947653D01*
X146489286Y-66947653D01*
X146689245Y-66907879D01*
X146877603Y-66829858D01*
X147047121Y-66716590D01*
X147191284Y-66572427D01*
X147304552Y-66402909D01*
X147382573Y-66214551D01*
X147422347Y-66014592D01*
X147422347Y-65810714D01*
X147382573Y-65610755D01*
X147304552Y-65422397D01*
X147191284Y-65252879D01*
X147047121Y-65108716D01*
X146877603Y-64995448D01*
X146865051Y-64990249D01*
X143501801Y-61627000D01*
X149790000Y-61627000D01*
X149790000Y-61700229D01*
X149672038Y-61797038D01*
X149561595Y-61931614D01*
X149479528Y-62085150D01*
X149428992Y-62251746D01*
X149411928Y-62425000D01*
X149411928Y-63375000D01*
X149428992Y-63548254D01*
X149479528Y-63714850D01*
X149561595Y-63868386D01*
X149672038Y-64002962D01*
X149806614Y-64113405D01*
X149960150Y-64195472D01*
X150126746Y-64246008D01*
X150300000Y-64263072D01*
X150800000Y-64263072D01*
X150973254Y-64246008D01*
X151139850Y-64195472D01*
X151293386Y-64113405D01*
X151427962Y-64002962D01*
X151538405Y-63868386D01*
X151620472Y-63714850D01*
X151671008Y-63548254D01*
X151688072Y-63375000D01*
X151688072Y-62425000D01*
X151671008Y-62251746D01*
X151620472Y-62085150D01*
X151538405Y-61931614D01*
X151427962Y-61797038D01*
X151310000Y-61700230D01*
X151310000Y-61627000D01*
X158188798Y-61627000D01*
X158594918Y-61631021D01*
X158600922Y-71863966D01*
X133463174Y-71296949D01*
X133424276Y-71265026D01*
X133292247Y-71194454D01*
X133148986Y-71150997D01*
X133037333Y-71140000D01*
X133037322Y-71140000D01*
X133000000Y-71136324D01*
X132962678Y-71140000D01*
X128403711Y-71140000D01*
X128359774Y-71096063D01*
X128190256Y-70982795D01*
X128001898Y-70904774D01*
X127801939Y-70865000D01*
X127598061Y-70865000D01*
X127398102Y-70904774D01*
X127209744Y-70982795D01*
X127040226Y-71096063D01*
X126985454Y-71150835D01*
X125803787Y-71124181D01*
X118127000Y-63447394D01*
X118127000Y-54877000D01*
X120883564Y-54877000D01*
X121373477Y-60511002D01*
%TA.AperFunction,Conductor*%
D22*
G36*
X121373477Y-60511002D02*
G01*
X121378055Y-60535474D01*
X121387319Y-60558583D01*
X121400913Y-60579440D01*
X121418315Y-60597245D01*
X121448420Y-60616054D01*
X123698420Y-61616054D01*
X123722053Y-61623887D01*
X123750000Y-61627000D01*
X126609289Y-61627000D01*
X126496063Y-61740226D01*
X126382795Y-61909744D01*
X126304774Y-62098102D01*
X126265000Y-62298061D01*
X126265000Y-62501939D01*
X126304774Y-62701898D01*
X126382795Y-62890256D01*
X126496063Y-63059774D01*
X126640226Y-63203937D01*
X126809744Y-63317205D01*
X126998102Y-63395226D01*
X127198061Y-63435000D01*
X127401939Y-63435000D01*
X127601898Y-63395226D01*
X127790256Y-63317205D01*
X127959774Y-63203937D01*
X128003711Y-63160000D01*
X133405370Y-63160000D01*
X133496726Y-63234974D01*
X133628755Y-63305546D01*
X133772016Y-63349003D01*
X133883669Y-63360000D01*
X133883677Y-63360000D01*
X133921002Y-63363676D01*
X133958327Y-63360000D01*
X134596289Y-63360000D01*
X134640226Y-63403937D01*
X134757359Y-63482203D01*
X134695679Y-63456654D01*
X134234902Y-63365000D01*
X133765098Y-63365000D01*
X133304321Y-63456654D01*
X132870279Y-63636440D01*
X132479651Y-63897450D01*
X132147450Y-64229651D01*
X131886440Y-64620279D01*
X131706654Y-65054321D01*
X131615000Y-65515098D01*
X131615000Y-65984902D01*
X131706654Y-66445679D01*
X131886440Y-66879721D01*
X132147450Y-67270349D01*
X132479651Y-67602550D01*
X132870279Y-67863560D01*
X133304321Y-68043346D01*
X133765098Y-68135000D01*
X134234902Y-68135000D01*
X134695679Y-68043346D01*
X135129721Y-67863560D01*
X135520349Y-67602550D01*
X135852550Y-67270349D01*
X136113560Y-66879721D01*
X136293346Y-66445679D01*
X136385000Y-65984902D01*
X136385000Y-65515098D01*
X136293346Y-65054321D01*
X136113560Y-64620279D01*
X135852550Y-64229651D01*
X135520349Y-63897450D01*
X135129721Y-63636440D01*
X135059896Y-63607517D01*
X135198061Y-63635000D01*
X135401939Y-63635000D01*
X135601898Y-63595226D01*
X135790256Y-63517205D01*
X135959774Y-63403937D01*
X136103937Y-63259774D01*
X136217205Y-63090256D01*
X136295226Y-62901898D01*
X136335000Y-62701939D01*
X136335000Y-62498061D01*
X136295226Y-62298102D01*
X136217205Y-62109744D01*
X136103937Y-61940226D01*
X135959774Y-61796063D01*
X135790256Y-61682795D01*
X135655556Y-61627000D01*
X141115172Y-61627000D01*
X141182795Y-61790256D01*
X141296063Y-61959774D01*
X141440226Y-62103937D01*
X141609744Y-62217205D01*
X141798102Y-62295226D01*
X141998061Y-62335000D01*
X142060199Y-62335000D01*
X145382802Y-65657604D01*
X145352347Y-65810714D01*
X145352347Y-66014592D01*
X145392121Y-66214551D01*
X145470142Y-66402909D01*
X145583410Y-66572427D01*
X145727573Y-66716590D01*
X145897091Y-66829858D01*
X146085449Y-66907879D01*
X146285408Y-66947653D01*
X146489286Y-66947653D01*
X146689245Y-66907879D01*
X146877603Y-66829858D01*
X147047121Y-66716590D01*
X147191284Y-66572427D01*
X147304552Y-66402909D01*
X147382573Y-66214551D01*
X147422347Y-66014592D01*
X147422347Y-65810714D01*
X147382573Y-65610755D01*
X147304552Y-65422397D01*
X147191284Y-65252879D01*
X147047121Y-65108716D01*
X146877603Y-64995448D01*
X146865051Y-64990249D01*
X143501801Y-61627000D01*
X149790000Y-61627000D01*
X149790000Y-61700229D01*
X149672038Y-61797038D01*
X149561595Y-61931614D01*
X149479528Y-62085150D01*
X149428992Y-62251746D01*
X149411928Y-62425000D01*
X149411928Y-63375000D01*
X149428992Y-63548254D01*
X149479528Y-63714850D01*
X149561595Y-63868386D01*
X149672038Y-64002962D01*
X149806614Y-64113405D01*
X149960150Y-64195472D01*
X150126746Y-64246008D01*
X150300000Y-64263072D01*
X150800000Y-64263072D01*
X150973254Y-64246008D01*
X151139850Y-64195472D01*
X151293386Y-64113405D01*
X151427962Y-64002962D01*
X151538405Y-63868386D01*
X151620472Y-63714850D01*
X151671008Y-63548254D01*
X151688072Y-63375000D01*
X151688072Y-62425000D01*
X151671008Y-62251746D01*
X151620472Y-62085150D01*
X151538405Y-61931614D01*
X151427962Y-61797038D01*
X151310000Y-61700230D01*
X151310000Y-61627000D01*
X158188798Y-61627000D01*
X158594918Y-61631021D01*
X158600922Y-71863966D01*
X133463174Y-71296949D01*
X133424276Y-71265026D01*
X133292247Y-71194454D01*
X133148986Y-71150997D01*
X133037333Y-71140000D01*
X133037322Y-71140000D01*
X133000000Y-71136324D01*
X132962678Y-71140000D01*
X128403711Y-71140000D01*
X128359774Y-71096063D01*
X128190256Y-70982795D01*
X128001898Y-70904774D01*
X127801939Y-70865000D01*
X127598061Y-70865000D01*
X127398102Y-70904774D01*
X127209744Y-70982795D01*
X127040226Y-71096063D01*
X126985454Y-71150835D01*
X125803787Y-71124181D01*
X118127000Y-63447394D01*
X118127000Y-54877000D01*
X120883564Y-54877000D01*
X121373477Y-60511002D01*
G37*
%TD.AperFunction*%
%TD*%
D21*
%TO.N,Net-(C3-Pad2)*%
X116873000Y-58869311D02*
X116873000Y-64250000D01*
X116875440Y-64274776D01*
X116882667Y-64298601D01*
X116894403Y-64320557D01*
X116910197Y-64339803D01*
X125862136Y-73291742D01*
X125646714Y-74368852D01*
X116836917Y-74023370D01*
X116793346Y-73804321D01*
X116613560Y-73370279D01*
X116352550Y-72979651D01*
X116020349Y-72647450D01*
X115629721Y-72386440D01*
X115195679Y-72206654D01*
X114734902Y-72115000D01*
X114265098Y-72115000D01*
X113804321Y-72206654D01*
X113370279Y-72386440D01*
X113127000Y-72548994D01*
X113127000Y-58635186D01*
X116873000Y-58869311D01*
%TA.AperFunction,Conductor*%
D22*
G36*
X116873000Y-58869311D02*
G01*
X116873000Y-64250000D01*
X116875440Y-64274776D01*
X116882667Y-64298601D01*
X116894403Y-64320557D01*
X116910197Y-64339803D01*
X125862136Y-73291742D01*
X125646714Y-74368852D01*
X116836917Y-74023370D01*
X116793346Y-73804321D01*
X116613560Y-73370279D01*
X116352550Y-72979651D01*
X116020349Y-72647450D01*
X115629721Y-72386440D01*
X115195679Y-72206654D01*
X114734902Y-72115000D01*
X114265098Y-72115000D01*
X113804321Y-72206654D01*
X113370279Y-72386440D01*
X113127000Y-72548994D01*
X113127000Y-58635186D01*
X116873000Y-58869311D01*
G37*
%TD.AperFunction*%
%TD*%
D21*
%TO.N,Net-(C3-Pad2)*%
X116873000Y-60873000D02*
X113127000Y-60873000D01*
X113127000Y-57127000D01*
X116873000Y-57127000D01*
X116873000Y-60873000D01*
%TA.AperFunction,Conductor*%
D22*
G36*
X116873000Y-60873000D02*
G01*
X113127000Y-60873000D01*
X113127000Y-57127000D01*
X116873000Y-57127000D01*
X116873000Y-60873000D01*
G37*
%TD.AperFunction*%
%TD*%
D21*
%TO.N,Batt+*%
X154658163Y-52087769D02*
X154636440Y-52120279D01*
X154456654Y-52554321D01*
X154365000Y-53015098D01*
X154365000Y-53484902D01*
X154456654Y-53945679D01*
X154636440Y-54379721D01*
X154897450Y-54770349D01*
X155229651Y-55102550D01*
X155620279Y-55363560D01*
X156054321Y-55543346D01*
X156515098Y-55635000D01*
X156984902Y-55635000D01*
X157445679Y-55543346D01*
X157879721Y-55363560D01*
X157912231Y-55341837D01*
X158591627Y-56021233D01*
X158594471Y-60868978D01*
X149669351Y-60780611D01*
X149685000Y-60701939D01*
X149685000Y-60498061D01*
X149645226Y-60298102D01*
X149567205Y-60109744D01*
X149453937Y-59940226D01*
X149309774Y-59796063D01*
X149140256Y-59682795D01*
X148951898Y-59604774D01*
X148751939Y-59565000D01*
X148548061Y-59565000D01*
X148348102Y-59604774D01*
X148159744Y-59682795D01*
X148036715Y-59765000D01*
X147931515Y-59765000D01*
X147867205Y-59609744D01*
X147753937Y-59440226D01*
X147609774Y-59296063D01*
X147440256Y-59182795D01*
X147251898Y-59104774D01*
X147051939Y-59065000D01*
X146848061Y-59065000D01*
X146648102Y-59104774D01*
X146459744Y-59182795D01*
X146336715Y-59265000D01*
X143452088Y-59265000D01*
X143329059Y-59182795D01*
X143140701Y-59104774D01*
X142940742Y-59065000D01*
X142736864Y-59065000D01*
X142536905Y-59104774D01*
X142348547Y-59182795D01*
X142225518Y-59265000D01*
X142066007Y-59265000D01*
X142024999Y-59260961D01*
X141983991Y-59265000D01*
X141983981Y-59265000D01*
X141861311Y-59277082D01*
X141703913Y-59324828D01*
X141558854Y-59402364D01*
X141431709Y-59506709D01*
X141405559Y-59538573D01*
X140256716Y-60687416D01*
X136452670Y-60649753D01*
X136516977Y-60596977D01*
X136783777Y-60271881D01*
X136982026Y-59900982D01*
X137104108Y-59498533D01*
X137145330Y-59080000D01*
X137104108Y-58661467D01*
X136982026Y-58259018D01*
X136783777Y-57888119D01*
X136516977Y-57563023D01*
X136191881Y-57296223D01*
X135820982Y-57097974D01*
X135418533Y-56975892D01*
X135104882Y-56945000D01*
X133877000Y-56945000D01*
X133877000Y-55098061D01*
X139765000Y-55098061D01*
X139765000Y-55301939D01*
X139804774Y-55501898D01*
X139882795Y-55690256D01*
X139996063Y-55859774D01*
X140140226Y-56003937D01*
X140309744Y-56117205D01*
X140498102Y-56195226D01*
X140698061Y-56235000D01*
X140901939Y-56235000D01*
X140903698Y-56234650D01*
X140951014Y-56249003D01*
X141062667Y-56260000D01*
X141062676Y-56260000D01*
X141099999Y-56263676D01*
X141137322Y-56260000D01*
X145096289Y-56260000D01*
X145140226Y-56303937D01*
X145309744Y-56417205D01*
X145498102Y-56495226D01*
X145698061Y-56535000D01*
X145901939Y-56535000D01*
X146101898Y-56495226D01*
X146290256Y-56417205D01*
X146459774Y-56303937D01*
X146603937Y-56159774D01*
X146717205Y-55990256D01*
X146795226Y-55801898D01*
X146835000Y-55601939D01*
X146835000Y-55398061D01*
X146795226Y-55198102D01*
X146792606Y-55191777D01*
X150016976Y-55191777D01*
X150365000Y-55539802D01*
X150365000Y-55601939D01*
X150404774Y-55801898D01*
X150482795Y-55990256D01*
X150596063Y-56159774D01*
X150740226Y-56303937D01*
X150909744Y-56417205D01*
X151098102Y-56495226D01*
X151298061Y-56535000D01*
X151501939Y-56535000D01*
X151701898Y-56495226D01*
X151890256Y-56417205D01*
X152059774Y-56303937D01*
X152203937Y-56159774D01*
X152317205Y-55990256D01*
X152395226Y-55801898D01*
X152435000Y-55601939D01*
X152435000Y-55398061D01*
X152395226Y-55198102D01*
X152317205Y-55009744D01*
X152203937Y-54840226D01*
X152059774Y-54696063D01*
X151890256Y-54582795D01*
X151701898Y-54504774D01*
X151501939Y-54465000D01*
X151439802Y-54465000D01*
X150895580Y-53920779D01*
X150871778Y-53891776D01*
X150756053Y-53796803D01*
X150624024Y-53726231D01*
X150480763Y-53682774D01*
X150369110Y-53671777D01*
X150369099Y-53671777D01*
X150331777Y-53668101D01*
X150294455Y-53671777D01*
X142143897Y-53671777D01*
X142099960Y-53627840D01*
X141930442Y-53514572D01*
X141742084Y-53436551D01*
X141542125Y-53396777D01*
X141338247Y-53396777D01*
X141138288Y-53436551D01*
X140949930Y-53514572D01*
X140780412Y-53627840D01*
X140636249Y-53772003D01*
X140522981Y-53941521D01*
X140444960Y-54129879D01*
X140423953Y-54235488D01*
X140309744Y-54282795D01*
X140140226Y-54396063D01*
X139996063Y-54540226D01*
X139882795Y-54709744D01*
X139804774Y-54898102D01*
X139765000Y-55098061D01*
X133877000Y-55098061D01*
X133877000Y-51410000D01*
X153980394Y-51410000D01*
X154658163Y-52087769D01*
%TA.AperFunction,Conductor*%
D22*
G36*
X154658163Y-52087769D02*
G01*
X154636440Y-52120279D01*
X154456654Y-52554321D01*
X154365000Y-53015098D01*
X154365000Y-53484902D01*
X154456654Y-53945679D01*
X154636440Y-54379721D01*
X154897450Y-54770349D01*
X155229651Y-55102550D01*
X155620279Y-55363560D01*
X156054321Y-55543346D01*
X156515098Y-55635000D01*
X156984902Y-55635000D01*
X157445679Y-55543346D01*
X157879721Y-55363560D01*
X157912231Y-55341837D01*
X158591627Y-56021233D01*
X158594471Y-60868978D01*
X149669351Y-60780611D01*
X149685000Y-60701939D01*
X149685000Y-60498061D01*
X149645226Y-60298102D01*
X149567205Y-60109744D01*
X149453937Y-59940226D01*
X149309774Y-59796063D01*
X149140256Y-59682795D01*
X148951898Y-59604774D01*
X148751939Y-59565000D01*
X148548061Y-59565000D01*
X148348102Y-59604774D01*
X148159744Y-59682795D01*
X148036715Y-59765000D01*
X147931515Y-59765000D01*
X147867205Y-59609744D01*
X147753937Y-59440226D01*
X147609774Y-59296063D01*
X147440256Y-59182795D01*
X147251898Y-59104774D01*
X147051939Y-59065000D01*
X146848061Y-59065000D01*
X146648102Y-59104774D01*
X146459744Y-59182795D01*
X146336715Y-59265000D01*
X143452088Y-59265000D01*
X143329059Y-59182795D01*
X143140701Y-59104774D01*
X142940742Y-59065000D01*
X142736864Y-59065000D01*
X142536905Y-59104774D01*
X142348547Y-59182795D01*
X142225518Y-59265000D01*
X142066007Y-59265000D01*
X142024999Y-59260961D01*
X141983991Y-59265000D01*
X141983981Y-59265000D01*
X141861311Y-59277082D01*
X141703913Y-59324828D01*
X141558854Y-59402364D01*
X141431709Y-59506709D01*
X141405559Y-59538573D01*
X140256716Y-60687416D01*
X136452670Y-60649753D01*
X136516977Y-60596977D01*
X136783777Y-60271881D01*
X136982026Y-59900982D01*
X137104108Y-59498533D01*
X137145330Y-59080000D01*
X137104108Y-58661467D01*
X136982026Y-58259018D01*
X136783777Y-57888119D01*
X136516977Y-57563023D01*
X136191881Y-57296223D01*
X135820982Y-57097974D01*
X135418533Y-56975892D01*
X135104882Y-56945000D01*
X133877000Y-56945000D01*
X133877000Y-55098061D01*
X139765000Y-55098061D01*
X139765000Y-55301939D01*
X139804774Y-55501898D01*
X139882795Y-55690256D01*
X139996063Y-55859774D01*
X140140226Y-56003937D01*
X140309744Y-56117205D01*
X140498102Y-56195226D01*
X140698061Y-56235000D01*
X140901939Y-56235000D01*
X140903698Y-56234650D01*
X140951014Y-56249003D01*
X141062667Y-56260000D01*
X141062676Y-56260000D01*
X141099999Y-56263676D01*
X141137322Y-56260000D01*
X145096289Y-56260000D01*
X145140226Y-56303937D01*
X145309744Y-56417205D01*
X145498102Y-56495226D01*
X145698061Y-56535000D01*
X145901939Y-56535000D01*
X146101898Y-56495226D01*
X146290256Y-56417205D01*
X146459774Y-56303937D01*
X146603937Y-56159774D01*
X146717205Y-55990256D01*
X146795226Y-55801898D01*
X146835000Y-55601939D01*
X146835000Y-55398061D01*
X146795226Y-55198102D01*
X146792606Y-55191777D01*
X150016976Y-55191777D01*
X150365000Y-55539802D01*
X150365000Y-55601939D01*
X150404774Y-55801898D01*
X150482795Y-55990256D01*
X150596063Y-56159774D01*
X150740226Y-56303937D01*
X150909744Y-56417205D01*
X151098102Y-56495226D01*
X151298061Y-56535000D01*
X151501939Y-56535000D01*
X151701898Y-56495226D01*
X151890256Y-56417205D01*
X152059774Y-56303937D01*
X152203937Y-56159774D01*
X152317205Y-55990256D01*
X152395226Y-55801898D01*
X152435000Y-55601939D01*
X152435000Y-55398061D01*
X152395226Y-55198102D01*
X152317205Y-55009744D01*
X152203937Y-54840226D01*
X152059774Y-54696063D01*
X151890256Y-54582795D01*
X151701898Y-54504774D01*
X151501939Y-54465000D01*
X151439802Y-54465000D01*
X150895580Y-53920779D01*
X150871778Y-53891776D01*
X150756053Y-53796803D01*
X150624024Y-53726231D01*
X150480763Y-53682774D01*
X150369110Y-53671777D01*
X150369099Y-53671777D01*
X150331777Y-53668101D01*
X150294455Y-53671777D01*
X142143897Y-53671777D01*
X142099960Y-53627840D01*
X141930442Y-53514572D01*
X141742084Y-53436551D01*
X141542125Y-53396777D01*
X141338247Y-53396777D01*
X141138288Y-53436551D01*
X140949930Y-53514572D01*
X140780412Y-53627840D01*
X140636249Y-53772003D01*
X140522981Y-53941521D01*
X140444960Y-54129879D01*
X140423953Y-54235488D01*
X140309744Y-54282795D01*
X140140226Y-54396063D01*
X139996063Y-54540226D01*
X139882795Y-54709744D01*
X139804774Y-54898102D01*
X139765000Y-55098061D01*
X133877000Y-55098061D01*
X133877000Y-51410000D01*
X153980394Y-51410000D01*
X154658163Y-52087769D01*
G37*
%TD.AperFunction*%
%TD*%
M02*
