M48
; DRILL file {KiCad (5.1.9-0-10_14)} date Saturday, March 06, 2021 at 11:14:40 PM
; FORMAT={-:-/ absolute / inch / decimal}
; #@! TF.CreationDate,2021-03-06T23:14:40+08:00
; #@! TF.GenerationSoftware,Kicad,Pcbnew,(5.1.9-0-10_14)
; #@! TF.FileFunction,Plated,1,2,PTH
FMAT,2
INCH
T1C0.0157
T2C0.0433
T3C0.0866
%
G90
G05
T1
X4.4488Y-2.2559
X4.4488Y-2.311
X4.4488Y-2.3661
X4.4646Y-2.2835
X4.4646Y-2.3386
X4.4646Y-2.3937
X4.4803Y-2.2559
X4.4803Y-2.311
X4.4803Y-2.3661
X4.4961Y-2.2835
X4.4961Y-2.3386
X4.4961Y-2.3937
X4.5118Y-2.2559
X4.5118Y-2.311
X4.5118Y-2.3661
X4.5276Y-2.2835
X4.5276Y-2.3386
X4.5276Y-2.3937
X4.5433Y-2.2559
X4.5433Y-2.311
X4.5433Y-2.3661
X4.5591Y-2.2835
X4.5591Y-2.3386
X4.5591Y-2.3937
X4.5748Y-2.2559
X4.5748Y-2.311
X4.5748Y-2.3661
X4.5906Y-2.2835
X4.5906Y-2.3386
X4.5906Y-2.3937
X4.6063Y-2.2559
X4.6063Y-2.311
X4.6063Y-2.3661
X4.8307Y-2.8425
X4.8307Y-2.8976
X4.8307Y-2.9528
X4.8465Y-2.8701
X4.8465Y-2.9252
X4.8465Y-2.9803
X4.8622Y-2.8425
X4.8622Y-2.8976
X4.8622Y-2.9528
X4.878Y-2.8701
X4.878Y-2.9252
X4.878Y-2.9803
X4.8937Y-2.8425
X4.8937Y-2.8976
X4.8937Y-2.9528
X4.9094Y-2.8701
X4.9094Y-2.9252
X4.9094Y-2.9803
X4.9252Y-2.8425
X4.9252Y-2.8976
X4.9252Y-2.9528
X5.0118Y-2.4567
X5.0276Y-2.8307
X5.0689Y-2.8937
X5.0689Y-2.9528
X5.0886Y-2.8642
X5.0886Y-2.9232
X5.0886Y-2.9823
X5.1083Y-2.8937
X5.1083Y-2.9528
X5.128Y-2.8642
X5.128Y-2.9232
X5.128Y-2.9823
X5.1476Y-2.8937
X5.1476Y-2.9528
X5.1673Y-2.8642
X5.1673Y-2.9232
X5.1673Y-2.9823
X5.2559Y-2.8504
X5.3268Y-2.4646
X5.3765Y-2.9528
X5.3765Y-2.9528
X5.3937Y-2.8622
X5.4862Y-2.5
X5.5194Y-2.9525
X5.5433Y-2.1732
X5.5472Y-2.6772
X5.5472Y-2.7087
X5.5472Y-2.7402
X5.5472Y-2.7717
X5.5685Y-2.143
X5.5787Y-2.6772
X5.5787Y-2.7087
X5.5787Y-2.7402
X5.5787Y-2.7717
X5.5945Y-2.4134
X5.6063Y-2.8858
X5.6102Y-2.6772
X5.6102Y-2.7087
X5.6102Y-2.7402
X5.6102Y-2.7717
X5.6236Y-2.3661
X5.6417Y-2.6772
X5.6417Y-2.7087
X5.6417Y-2.7402
X5.6417Y-2.7717
X5.6422Y-2.9528
X5.6693Y-2.2835
X5.7402Y-2.185
X5.7628Y-2.5
X5.7633Y-2.595
X5.7854Y-2.3661
X5.8169Y-2.8514
X5.8524Y-2.3858
X5.9449Y-2.7756
X5.9606Y-2.185
X6.1024Y-2.2441
X6.1024Y-2.2835
X6.1024Y-2.3228
X6.1024Y-2.3622
X6.1024Y-2.5
X6.1024Y-2.5394
X6.1024Y-2.5787
X6.1024Y-2.6181
X6.1417Y-2.2441
X6.1417Y-2.2835
X6.1417Y-2.3228
X6.1417Y-2.3622
X6.1417Y-2.5
X6.1417Y-2.5394
X6.1417Y-2.5787
X6.1417Y-2.6181
X6.1811Y-2.2441
X6.1811Y-2.2835
X6.1811Y-2.3228
X6.1811Y-2.3622
X6.1811Y-2.5
X6.1811Y-2.5394
X6.1811Y-2.5787
X6.1811Y-2.6181
X6.2205Y-2.2441
X6.2205Y-2.2835
X6.2205Y-2.3228
X6.2205Y-2.3622
X6.2205Y-2.5
X6.2205Y-2.5394
X6.2205Y-2.5787
X6.2205Y-2.6181
T2
X4.7606Y-2.2047
X4.8606Y-2.2047
X4.9606Y-2.2047
X5.315Y-2.126
X5.315Y-2.326
T3
X4.5079Y-2.0965
X4.5079Y-2.9331
X5.2756Y-2.5886
X6.1713Y-2.0965
X6.1713Y-2.9331
T0
M30
