%TF.GenerationSoftware,KiCad,Pcbnew,(5.1.9-0-10_14)*%
%TF.CreationDate,2021-02-27T23:24:30+08:00*%
%TF.ProjectId,xhp70-driver,78687037-302d-4647-9269-7665722e6b69,rev?*%
%TF.SameCoordinates,Original*%
%TF.FileFunction,Legend,Bot*%
%TF.FilePolarity,Positive*%
%FSLAX46Y46*%
G04 Gerber Fmt 4.6, Leading zero omitted, Abs format (unit mm)*
G04 Created by KiCad (PCBNEW (5.1.9-0-10_14)) date 2021-02-27 23:24:30*
%MOMM*%
%LPD*%
G01*
G04 APERTURE LIST*
%ADD10C,0.312500*%
%ADD11C,0.275000*%
%ADD12C,0.120000*%
%ADD13C,0.150000*%
G04 APERTURE END LIST*
D10*
X151066964Y-64059523D02*
X151126488Y-64238095D01*
X151186011Y-64297619D01*
X151305059Y-64357142D01*
X151483630Y-64357142D01*
X151602678Y-64297619D01*
X151662202Y-64238095D01*
X151721726Y-64119047D01*
X151721726Y-63642857D01*
X150471726Y-63642857D01*
X150471726Y-64059523D01*
X150531250Y-64178571D01*
X150590773Y-64238095D01*
X150709821Y-64297619D01*
X150828869Y-64297619D01*
X150947916Y-64238095D01*
X151007440Y-64178571D01*
X151066964Y-64059523D01*
X151066964Y-63642857D01*
X151721726Y-65428571D02*
X151066964Y-65428571D01*
X150947916Y-65369047D01*
X150888392Y-65250000D01*
X150888392Y-65011904D01*
X150947916Y-64892857D01*
X151662202Y-65428571D02*
X151721726Y-65309523D01*
X151721726Y-65011904D01*
X151662202Y-64892857D01*
X151543154Y-64833333D01*
X151424107Y-64833333D01*
X151305059Y-64892857D01*
X151245535Y-65011904D01*
X151245535Y-65309523D01*
X151186011Y-65428571D01*
X150888392Y-65845238D02*
X150888392Y-66321428D01*
X150471726Y-66023809D02*
X151543154Y-66023809D01*
X151662202Y-66083333D01*
X151721726Y-66202380D01*
X151721726Y-66321428D01*
X150888392Y-66559523D02*
X150888392Y-67035714D01*
X150471726Y-66738095D02*
X151543154Y-66738095D01*
X151662202Y-66797619D01*
X151721726Y-66916666D01*
X151721726Y-67035714D01*
X153433035Y-64773809D02*
X153433035Y-65726190D01*
D11*
X151208928Y-57559523D02*
X151261309Y-57738095D01*
X151313690Y-57797619D01*
X151418452Y-57857142D01*
X151575595Y-57857142D01*
X151680357Y-57797619D01*
X151732738Y-57738095D01*
X151785119Y-57619047D01*
X151785119Y-57142857D01*
X150685119Y-57142857D01*
X150685119Y-57559523D01*
X150737500Y-57678571D01*
X150789880Y-57738095D01*
X150894642Y-57797619D01*
X150999404Y-57797619D01*
X151104166Y-57738095D01*
X151156547Y-57678571D01*
X151208928Y-57559523D01*
X151208928Y-57142857D01*
X151785119Y-58928571D02*
X151208928Y-58928571D01*
X151104166Y-58869047D01*
X151051785Y-58750000D01*
X151051785Y-58511904D01*
X151104166Y-58392857D01*
X151732738Y-58928571D02*
X151785119Y-58809523D01*
X151785119Y-58511904D01*
X151732738Y-58392857D01*
X151627976Y-58333333D01*
X151523214Y-58333333D01*
X151418452Y-58392857D01*
X151366071Y-58511904D01*
X151366071Y-58809523D01*
X151313690Y-58928571D01*
X151051785Y-59345238D02*
X151051785Y-59821428D01*
X150685119Y-59523809D02*
X151627976Y-59523809D01*
X151732738Y-59583333D01*
X151785119Y-59702380D01*
X151785119Y-59821428D01*
X151051785Y-60059523D02*
X151051785Y-60535714D01*
X150685119Y-60238095D02*
X151627976Y-60238095D01*
X151732738Y-60297619D01*
X151785119Y-60416666D01*
X151785119Y-60535714D01*
X153291071Y-58273809D02*
X153291071Y-59226190D01*
X153710119Y-58750000D02*
X152872023Y-58750000D01*
D12*
%TO.C,Q1*%
X120920000Y-57150000D02*
X120920000Y-59690000D01*
X123460000Y-57150000D02*
X123460000Y-59690000D01*
X126000000Y-57150000D02*
X126000000Y-59690000D01*
X118340000Y-74220000D02*
X118340000Y-75420000D01*
X118340000Y-71820000D02*
X118340000Y-73020000D01*
X118340000Y-69420000D02*
X118340000Y-70620000D01*
X128580000Y-74220000D02*
X128580000Y-75420000D01*
X128580000Y-71820000D02*
X128580000Y-73020000D01*
X128580000Y-69420000D02*
X128580000Y-70620000D01*
X118980000Y-75580000D02*
X118340000Y-75580000D01*
X121380000Y-75580000D02*
X120180000Y-75580000D01*
X123780000Y-75580000D02*
X122580000Y-75580000D01*
X126181000Y-75580000D02*
X124980000Y-75580000D01*
X128580000Y-75580000D02*
X127380000Y-75580000D01*
X118340000Y-59690000D02*
X118340000Y-69180000D01*
X128580000Y-59690000D02*
X128580000Y-69180000D01*
X128580000Y-69180000D02*
X118340000Y-69180000D01*
X128580000Y-59690000D02*
X118340000Y-59690000D01*
%TO.C,D1*%
X136165000Y-59080000D02*
X138690000Y-59080000D01*
X136150000Y-54000000D02*
X138690000Y-54000000D01*
X153220000Y-61660000D02*
X154420000Y-61660000D01*
X150820000Y-61660000D02*
X152020000Y-61660000D01*
X148420000Y-61660000D02*
X149620000Y-61660000D01*
X153220000Y-51420000D02*
X154420000Y-51420000D01*
X150820000Y-51420000D02*
X152020000Y-51420000D01*
X148420000Y-51420000D02*
X149620000Y-51420000D01*
X154580000Y-61020000D02*
X154580000Y-61660000D01*
X154580000Y-58620000D02*
X154580000Y-59820000D01*
X154580000Y-56220000D02*
X154580000Y-57420000D01*
X154580000Y-53819000D02*
X154580000Y-55020000D01*
X154580000Y-51420000D02*
X154580000Y-52620000D01*
X138690000Y-61660000D02*
X148180000Y-61660000D01*
X138690000Y-51420000D02*
X148180000Y-51420000D01*
X148180000Y-51420000D02*
X148180000Y-61660000D01*
X138690000Y-51420000D02*
X138690000Y-61660000D01*
%TO.C,R2*%
X129214564Y-72290000D02*
X124860436Y-72290000D01*
X129214564Y-75710000D02*
X124860436Y-75710000D01*
%TO.C,C1*%
X141038748Y-75910000D02*
X142461252Y-75910000D01*
X141038748Y-74090000D02*
X142461252Y-74090000D01*
%TO.C,Q1*%
D13*
X123595238Y-54297619D02*
X123690476Y-54250000D01*
X123785714Y-54154761D01*
X123928571Y-54011904D01*
X124023809Y-53964285D01*
X124119047Y-53964285D01*
X124071428Y-54202380D02*
X124166666Y-54154761D01*
X124261904Y-54059523D01*
X124309523Y-53869047D01*
X124309523Y-53535714D01*
X124261904Y-53345238D01*
X124166666Y-53250000D01*
X124071428Y-53202380D01*
X123880952Y-53202380D01*
X123785714Y-53250000D01*
X123690476Y-53345238D01*
X123642857Y-53535714D01*
X123642857Y-53869047D01*
X123690476Y-54059523D01*
X123785714Y-54154761D01*
X123880952Y-54202380D01*
X124071428Y-54202380D01*
X122690476Y-54202380D02*
X123261904Y-54202380D01*
X122976190Y-54202380D02*
X122976190Y-53202380D01*
X123071428Y-53345238D01*
X123166666Y-53440476D01*
X123261904Y-53488095D01*
%TO.C,D1*%
X133452380Y-56011904D02*
X132452380Y-56011904D01*
X132452380Y-56250000D01*
X132500000Y-56392857D01*
X132595238Y-56488095D01*
X132690476Y-56535714D01*
X132880952Y-56583333D01*
X133023809Y-56583333D01*
X133214285Y-56535714D01*
X133309523Y-56488095D01*
X133404761Y-56392857D01*
X133452380Y-56250000D01*
X133452380Y-56011904D01*
X133452380Y-57535714D02*
X133452380Y-56964285D01*
X133452380Y-57250000D02*
X132452380Y-57250000D01*
X132595238Y-57154761D01*
X132690476Y-57059523D01*
X132738095Y-56964285D01*
%TO.C,R2*%
X122952380Y-73583333D02*
X122476190Y-73250000D01*
X122952380Y-73011904D02*
X121952380Y-73011904D01*
X121952380Y-73392857D01*
X122000000Y-73488095D01*
X122047619Y-73535714D01*
X122142857Y-73583333D01*
X122285714Y-73583333D01*
X122380952Y-73535714D01*
X122428571Y-73488095D01*
X122476190Y-73392857D01*
X122476190Y-73011904D01*
X122047619Y-73964285D02*
X122000000Y-74011904D01*
X121952380Y-74107142D01*
X121952380Y-74345238D01*
X122000000Y-74440476D01*
X122047619Y-74488095D01*
X122142857Y-74535714D01*
X122238095Y-74535714D01*
X122380952Y-74488095D01*
X122952380Y-73916666D01*
X122952380Y-74535714D01*
%TO.C,C1*%
X139107142Y-74833333D02*
X139154761Y-74785714D01*
X139202380Y-74642857D01*
X139202380Y-74547619D01*
X139154761Y-74404761D01*
X139059523Y-74309523D01*
X138964285Y-74261904D01*
X138773809Y-74214285D01*
X138630952Y-74214285D01*
X138440476Y-74261904D01*
X138345238Y-74309523D01*
X138250000Y-74404761D01*
X138202380Y-74547619D01*
X138202380Y-74642857D01*
X138250000Y-74785714D01*
X138297619Y-74833333D01*
X139202380Y-75785714D02*
X139202380Y-75214285D01*
X139202380Y-75500000D02*
X138202380Y-75500000D01*
X138345238Y-75404761D01*
X138440476Y-75309523D01*
X138488095Y-75214285D01*
%TD*%
M02*
