%TF.GenerationSoftware,KiCad,Pcbnew,(5.1.9-0-10_14)*%
%TF.CreationDate,2021-02-28T00:37:48+08:00*%
%TF.ProjectId,xhp70-driver,78687037-302d-4647-9269-7665722e6b69,rev?*%
%TF.SameCoordinates,Original*%
%TF.FileFunction,Paste,Top*%
%TF.FilePolarity,Positive*%
%FSLAX46Y46*%
G04 Gerber Fmt 4.6, Leading zero omitted, Abs format (unit mm)*
G04 Created by KiCad (PCBNEW (5.1.9-0-10_14)) date 2021-02-28 00:37:48*
%MOMM*%
%LPD*%
G01*
G04 APERTURE LIST*
%ADD10R,0.800000X0.900000*%
%ADD11R,0.650000X1.700000*%
%ADD12R,2.940000X2.720000*%
%ADD13R,0.350000X1.400000*%
%ADD14R,5.400000X2.900000*%
G04 APERTURE END LIST*
%TO.C,J2*%
G36*
G01*
X152299999Y-70200000D02*
X153600001Y-70200000D01*
G75*
G02*
X153850000Y-70449999I0J-249999D01*
G01*
X153850000Y-71150001D01*
G75*
G02*
X153600001Y-71400000I-249999J0D01*
G01*
X152299999Y-71400000D01*
G75*
G02*
X152050000Y-71150001I0J249999D01*
G01*
X152050000Y-70449999D01*
G75*
G02*
X152299999Y-70200000I249999J0D01*
G01*
G37*
G36*
G01*
X152299999Y-62600000D02*
X153600001Y-62600000D01*
G75*
G02*
X153850000Y-62849999I0J-249999D01*
G01*
X153850000Y-63550001D01*
G75*
G02*
X153600001Y-63800000I-249999J0D01*
G01*
X152299999Y-63800000D01*
G75*
G02*
X152050000Y-63550001I0J249999D01*
G01*
X152050000Y-62849999D01*
G75*
G02*
X152299999Y-62600000I249999J0D01*
G01*
G37*
G36*
G01*
X149800000Y-69200000D02*
X151050000Y-69200000D01*
G75*
G02*
X151200000Y-69350000I0J-150000D01*
G01*
X151200000Y-69650000D01*
G75*
G02*
X151050000Y-69800000I-150000J0D01*
G01*
X149800000Y-69800000D01*
G75*
G02*
X149650000Y-69650000I0J150000D01*
G01*
X149650000Y-69350000D01*
G75*
G02*
X149800000Y-69200000I150000J0D01*
G01*
G37*
G36*
G01*
X149800000Y-68200000D02*
X151050000Y-68200000D01*
G75*
G02*
X151200000Y-68350000I0J-150000D01*
G01*
X151200000Y-68650000D01*
G75*
G02*
X151050000Y-68800000I-150000J0D01*
G01*
X149800000Y-68800000D01*
G75*
G02*
X149650000Y-68650000I0J150000D01*
G01*
X149650000Y-68350000D01*
G75*
G02*
X149800000Y-68200000I150000J0D01*
G01*
G37*
G36*
G01*
X149800000Y-67200000D02*
X151050000Y-67200000D01*
G75*
G02*
X151200000Y-67350000I0J-150000D01*
G01*
X151200000Y-67650000D01*
G75*
G02*
X151050000Y-67800000I-150000J0D01*
G01*
X149800000Y-67800000D01*
G75*
G02*
X149650000Y-67650000I0J150000D01*
G01*
X149650000Y-67350000D01*
G75*
G02*
X149800000Y-67200000I150000J0D01*
G01*
G37*
G36*
G01*
X149800000Y-66200000D02*
X151050000Y-66200000D01*
G75*
G02*
X151200000Y-66350000I0J-150000D01*
G01*
X151200000Y-66650000D01*
G75*
G02*
X151050000Y-66800000I-150000J0D01*
G01*
X149800000Y-66800000D01*
G75*
G02*
X149650000Y-66650000I0J150000D01*
G01*
X149650000Y-66350000D01*
G75*
G02*
X149800000Y-66200000I150000J0D01*
G01*
G37*
G36*
G01*
X149800000Y-65200000D02*
X151050000Y-65200000D01*
G75*
G02*
X151200000Y-65350000I0J-150000D01*
G01*
X151200000Y-65650000D01*
G75*
G02*
X151050000Y-65800000I-150000J0D01*
G01*
X149800000Y-65800000D01*
G75*
G02*
X149650000Y-65650000I0J150000D01*
G01*
X149650000Y-65350000D01*
G75*
G02*
X149800000Y-65200000I150000J0D01*
G01*
G37*
G36*
G01*
X149800000Y-64200000D02*
X151050000Y-64200000D01*
G75*
G02*
X151200000Y-64350000I0J-150000D01*
G01*
X151200000Y-64650000D01*
G75*
G02*
X151050000Y-64800000I-150000J0D01*
G01*
X149800000Y-64800000D01*
G75*
G02*
X149650000Y-64650000I0J150000D01*
G01*
X149650000Y-64350000D01*
G75*
G02*
X149800000Y-64200000I150000J0D01*
G01*
G37*
%TD*%
D10*
%TO.C,U3*%
X146000000Y-58000000D03*
X146950000Y-60000000D03*
X145050000Y-60000000D03*
%TD*%
D11*
%TO.C,U2*%
X139095000Y-52350000D03*
X140365000Y-52350000D03*
X141635000Y-52350000D03*
X142905000Y-52350000D03*
X142905000Y-59650000D03*
X141635000Y-59650000D03*
X140365000Y-59650000D03*
X139095000Y-59650000D03*
%TD*%
D12*
%TO.C,U1*%
X142000000Y-69000000D03*
D13*
X139725000Y-66300000D03*
X139725000Y-71700000D03*
X140375000Y-66300000D03*
X140375000Y-71700000D03*
X141025000Y-66300000D03*
X141025000Y-71700000D03*
X141675000Y-66300000D03*
X141675000Y-71700000D03*
X142325000Y-66300000D03*
X142325000Y-71700000D03*
X142975000Y-66300000D03*
X142975000Y-71700000D03*
X143625000Y-66300000D03*
X143625000Y-71700000D03*
X144275000Y-66300000D03*
X144275000Y-71700000D03*
%TD*%
%TO.C,R5*%
G36*
G01*
X147050000Y-74299999D02*
X147050000Y-75600001D01*
G75*
G02*
X146800001Y-75850000I-249999J0D01*
G01*
X146099999Y-75850000D01*
G75*
G02*
X145850000Y-75600001I0J249999D01*
G01*
X145850000Y-74299999D01*
G75*
G02*
X146099999Y-74050000I249999J0D01*
G01*
X146800001Y-74050000D01*
G75*
G02*
X147050000Y-74299999I0J-249999D01*
G01*
G37*
G36*
G01*
X150650000Y-74299999D02*
X150650000Y-75600001D01*
G75*
G02*
X150400001Y-75850000I-249999J0D01*
G01*
X149699999Y-75850000D01*
G75*
G02*
X149450000Y-75600001I0J249999D01*
G01*
X149450000Y-74299999D01*
G75*
G02*
X149699999Y-74050000I249999J0D01*
G01*
X150400001Y-74050000D01*
G75*
G02*
X150650000Y-74299999I0J-249999D01*
G01*
G37*
G36*
G01*
X148050000Y-71800000D02*
X148050000Y-73050000D01*
G75*
G02*
X147900000Y-73200000I-150000J0D01*
G01*
X147600000Y-73200000D01*
G75*
G02*
X147450000Y-73050000I0J150000D01*
G01*
X147450000Y-71800000D01*
G75*
G02*
X147600000Y-71650000I150000J0D01*
G01*
X147900000Y-71650000D01*
G75*
G02*
X148050000Y-71800000I0J-150000D01*
G01*
G37*
G36*
G01*
X149050000Y-71800000D02*
X149050000Y-73050000D01*
G75*
G02*
X148900000Y-73200000I-150000J0D01*
G01*
X148600000Y-73200000D01*
G75*
G02*
X148450000Y-73050000I0J150000D01*
G01*
X148450000Y-71800000D01*
G75*
G02*
X148600000Y-71650000I150000J0D01*
G01*
X148900000Y-71650000D01*
G75*
G02*
X149050000Y-71800000I0J-150000D01*
G01*
G37*
%TD*%
%TO.C,R4*%
G36*
G01*
X147450002Y-68512500D02*
X146549998Y-68512500D01*
G75*
G02*
X146300000Y-68262502I0J249998D01*
G01*
X146300000Y-67737498D01*
G75*
G02*
X146549998Y-67487500I249998J0D01*
G01*
X147450002Y-67487500D01*
G75*
G02*
X147700000Y-67737498I0J-249998D01*
G01*
X147700000Y-68262502D01*
G75*
G02*
X147450002Y-68512500I-249998J0D01*
G01*
G37*
G36*
G01*
X147450002Y-70337500D02*
X146549998Y-70337500D01*
G75*
G02*
X146300000Y-70087502I0J249998D01*
G01*
X146300000Y-69562498D01*
G75*
G02*
X146549998Y-69312500I249998J0D01*
G01*
X147450002Y-69312500D01*
G75*
G02*
X147700000Y-69562498I0J-249998D01*
G01*
X147700000Y-70087502D01*
G75*
G02*
X147450002Y-70337500I-249998J0D01*
G01*
G37*
%TD*%
%TO.C,R3*%
G36*
G01*
X136650000Y-69200002D02*
X136650000Y-68299998D01*
G75*
G02*
X136899998Y-68050000I249998J0D01*
G01*
X137425002Y-68050000D01*
G75*
G02*
X137675000Y-68299998I0J-249998D01*
G01*
X137675000Y-69200002D01*
G75*
G02*
X137425002Y-69450000I-249998J0D01*
G01*
X136899998Y-69450000D01*
G75*
G02*
X136650000Y-69200002I0J249998D01*
G01*
G37*
G36*
G01*
X134825000Y-69200002D02*
X134825000Y-68299998D01*
G75*
G02*
X135074998Y-68050000I249998J0D01*
G01*
X135600002Y-68050000D01*
G75*
G02*
X135850000Y-68299998I0J-249998D01*
G01*
X135850000Y-69200002D01*
G75*
G02*
X135600002Y-69450000I-249998J0D01*
G01*
X135074998Y-69450000D01*
G75*
G02*
X134825000Y-69200002I0J249998D01*
G01*
G37*
%TD*%
%TO.C,R1*%
G36*
G01*
X124650000Y-72574999D02*
X124650000Y-75425001D01*
G75*
G02*
X124400001Y-75675000I-249999J0D01*
G01*
X123674999Y-75675000D01*
G75*
G02*
X123425000Y-75425001I0J249999D01*
G01*
X123425000Y-72574999D01*
G75*
G02*
X123674999Y-72325000I249999J0D01*
G01*
X124400001Y-72325000D01*
G75*
G02*
X124650000Y-72574999I0J-249999D01*
G01*
G37*
G36*
G01*
X130575000Y-72574999D02*
X130575000Y-75425001D01*
G75*
G02*
X130325001Y-75675000I-249999J0D01*
G01*
X129599999Y-75675000D01*
G75*
G02*
X129350000Y-75425001I0J249999D01*
G01*
X129350000Y-72574999D01*
G75*
G02*
X129599999Y-72325000I249999J0D01*
G01*
X130325001Y-72325000D01*
G75*
G02*
X130575000Y-72574999I0J-249999D01*
G01*
G37*
%TD*%
D14*
%TO.C,L1*%
X125000000Y-59050000D03*
X125000000Y-68950000D03*
%TD*%
%TO.C,C6*%
G36*
G01*
X139850000Y-63025000D02*
X139850000Y-63975000D01*
G75*
G02*
X139600000Y-64225000I-250000J0D01*
G01*
X139100000Y-64225000D01*
G75*
G02*
X138850000Y-63975000I0J250000D01*
G01*
X138850000Y-63025000D01*
G75*
G02*
X139100000Y-62775000I250000J0D01*
G01*
X139600000Y-62775000D01*
G75*
G02*
X139850000Y-63025000I0J-250000D01*
G01*
G37*
G36*
G01*
X141750000Y-63025000D02*
X141750000Y-63975000D01*
G75*
G02*
X141500000Y-64225000I-250000J0D01*
G01*
X141000000Y-64225000D01*
G75*
G02*
X140750000Y-63975000I0J250000D01*
G01*
X140750000Y-63025000D01*
G75*
G02*
X141000000Y-62775000I250000J0D01*
G01*
X141500000Y-62775000D01*
G75*
G02*
X141750000Y-63025000I0J-250000D01*
G01*
G37*
%TD*%
%TO.C,C5*%
G36*
G01*
X136525000Y-72200000D02*
X137475000Y-72200000D01*
G75*
G02*
X137725000Y-72450000I0J-250000D01*
G01*
X137725000Y-72950000D01*
G75*
G02*
X137475000Y-73200000I-250000J0D01*
G01*
X136525000Y-73200000D01*
G75*
G02*
X136275000Y-72950000I0J250000D01*
G01*
X136275000Y-72450000D01*
G75*
G02*
X136525000Y-72200000I250000J0D01*
G01*
G37*
G36*
G01*
X136525000Y-70300000D02*
X137475000Y-70300000D01*
G75*
G02*
X137725000Y-70550000I0J-250000D01*
G01*
X137725000Y-71050000D01*
G75*
G02*
X137475000Y-71300000I-250000J0D01*
G01*
X136525000Y-71300000D01*
G75*
G02*
X136275000Y-71050000I0J250000D01*
G01*
X136275000Y-70550000D01*
G75*
G02*
X136525000Y-70300000I250000J0D01*
G01*
G37*
%TD*%
%TO.C,C4*%
G36*
G01*
X145712500Y-64150002D02*
X145712500Y-62849998D01*
G75*
G02*
X145962498Y-62600000I249998J0D01*
G01*
X146787502Y-62600000D01*
G75*
G02*
X147037500Y-62849998I0J-249998D01*
G01*
X147037500Y-64150002D01*
G75*
G02*
X146787502Y-64400000I-249998J0D01*
G01*
X145962498Y-64400000D01*
G75*
G02*
X145712500Y-64150002I0J249998D01*
G01*
G37*
G36*
G01*
X142587500Y-64150002D02*
X142587500Y-62849998D01*
G75*
G02*
X142837498Y-62600000I249998J0D01*
G01*
X143662502Y-62600000D01*
G75*
G02*
X143912500Y-62849998I0J-249998D01*
G01*
X143912500Y-64150002D01*
G75*
G02*
X143662502Y-64400000I-249998J0D01*
G01*
X142837498Y-64400000D01*
G75*
G02*
X142587500Y-64150002I0J249998D01*
G01*
G37*
%TD*%
%TO.C,C3*%
G36*
G01*
X135900000Y-75650002D02*
X135900000Y-74349998D01*
G75*
G02*
X136149998Y-74100000I249998J0D01*
G01*
X136975002Y-74100000D01*
G75*
G02*
X137225000Y-74349998I0J-249998D01*
G01*
X137225000Y-75650002D01*
G75*
G02*
X136975002Y-75900000I-249998J0D01*
G01*
X136149998Y-75900000D01*
G75*
G02*
X135900000Y-75650002I0J249998D01*
G01*
G37*
G36*
G01*
X132775000Y-75650002D02*
X132775000Y-74349998D01*
G75*
G02*
X133024998Y-74100000I249998J0D01*
G01*
X133850002Y-74100000D01*
G75*
G02*
X134100000Y-74349998I0J-249998D01*
G01*
X134100000Y-75650002D01*
G75*
G02*
X133850002Y-75900000I-249998J0D01*
G01*
X133024998Y-75900000D01*
G75*
G02*
X132775000Y-75650002I0J249998D01*
G01*
G37*
%TD*%
%TO.C,C2*%
G36*
G01*
X142650000Y-75650002D02*
X142650000Y-74349998D01*
G75*
G02*
X142899998Y-74100000I249998J0D01*
G01*
X143725002Y-74100000D01*
G75*
G02*
X143975000Y-74349998I0J-249998D01*
G01*
X143975000Y-75650002D01*
G75*
G02*
X143725002Y-75900000I-249998J0D01*
G01*
X142899998Y-75900000D01*
G75*
G02*
X142650000Y-75650002I0J249998D01*
G01*
G37*
G36*
G01*
X139525000Y-75650002D02*
X139525000Y-74349998D01*
G75*
G02*
X139774998Y-74100000I249998J0D01*
G01*
X140600002Y-74100000D01*
G75*
G02*
X140850000Y-74349998I0J-249998D01*
G01*
X140850000Y-75650002D01*
G75*
G02*
X140600002Y-75900000I-249998J0D01*
G01*
X139774998Y-75900000D01*
G75*
G02*
X139525000Y-75650002I0J249998D01*
G01*
G37*
%TD*%
M02*
