%TF.GenerationSoftware,KiCad,Pcbnew,(5.1.9-0-10_14)*%
%TF.CreationDate,2021-03-06T23:14:37+08:00*%
%TF.ProjectId,xhp70-driver,78687037-302d-4647-9269-7665722e6b69,rev?*%
%TF.SameCoordinates,Original*%
%TF.FileFunction,Copper,L1,Top*%
%TF.FilePolarity,Positive*%
%FSLAX46Y46*%
G04 Gerber Fmt 4.6, Leading zero omitted, Abs format (unit mm)*
G04 Created by KiCad (PCBNEW (5.1.9-0-10_14)) date 2021-03-06 23:14:37*
%MOMM*%
%LPD*%
G01*
G04 APERTURE LIST*
%TA.AperFunction,ComponentPad*%
%ADD10C,3.500000*%
%TD*%
%TA.AperFunction,ComponentPad*%
%ADD11O,1.905000X2.000000*%
%TD*%
%TA.AperFunction,ComponentPad*%
%ADD12R,1.905000X2.000000*%
%TD*%
%TA.AperFunction,ComponentPad*%
%ADD13O,2.000000X2.000000*%
%TD*%
%TA.AperFunction,ComponentPad*%
%ADD14R,2.000000X2.000000*%
%TD*%
%TA.AperFunction,SMDPad,CuDef*%
%ADD15R,0.800000X0.900000*%
%TD*%
%TA.AperFunction,SMDPad,CuDef*%
%ADD16R,0.650000X1.700000*%
%TD*%
%TA.AperFunction,SMDPad,CuDef*%
%ADD17R,2.940000X2.720000*%
%TD*%
%TA.AperFunction,SMDPad,CuDef*%
%ADD18R,0.350000X1.400000*%
%TD*%
%TA.AperFunction,SMDPad,CuDef*%
%ADD19R,5.400000X2.900000*%
%TD*%
%TA.AperFunction,SMDPad,CuDef*%
%ADD20R,4.000000X4.000000*%
%TD*%
%TA.AperFunction,ViaPad*%
%ADD21C,0.800000*%
%TD*%
%TA.AperFunction,Conductor*%
%ADD22C,0.400000*%
%TD*%
%TA.AperFunction,Conductor*%
%ADD23C,0.250000*%
%TD*%
%TA.AperFunction,Conductor*%
%ADD24C,2.700000*%
%TD*%
%TA.AperFunction,Conductor*%
%ADD25C,3.000000*%
%TD*%
%TA.AperFunction,Conductor*%
%ADD26C,4.000000*%
%TD*%
%TA.AperFunction,Conductor*%
%ADD27C,0.500000*%
%TD*%
%TA.AperFunction,Conductor*%
%ADD28C,0.254000*%
%TD*%
%TA.AperFunction,Conductor*%
%ADD29C,0.100000*%
%TD*%
G04 APERTURE END LIST*
%TO.P,C8,2*%
%TO.N,GND*%
%TA.AperFunction,SMDPad,CuDef*%
G36*
G01*
X148700000Y-56475000D02*
X148700000Y-55525000D01*
G75*
G02*
X148950000Y-55275000I250000J0D01*
G01*
X149450000Y-55275000D01*
G75*
G02*
X149700000Y-55525000I0J-250000D01*
G01*
X149700000Y-56475000D01*
G75*
G02*
X149450000Y-56725000I-250000J0D01*
G01*
X148950000Y-56725000D01*
G75*
G02*
X148700000Y-56475000I0J250000D01*
G01*
G37*
%TD.AperFunction*%
%TO.P,C8,1*%
%TO.N,Net-(C8-Pad1)*%
%TA.AperFunction,SMDPad,CuDef*%
G36*
G01*
X146800000Y-56475000D02*
X146800000Y-55525000D01*
G75*
G02*
X147050000Y-55275000I250000J0D01*
G01*
X147550000Y-55275000D01*
G75*
G02*
X147800000Y-55525000I0J-250000D01*
G01*
X147800000Y-56475000D01*
G75*
G02*
X147550000Y-56725000I-250000J0D01*
G01*
X147050000Y-56725000D01*
G75*
G02*
X146800000Y-56475000I0J250000D01*
G01*
G37*
%TD.AperFunction*%
%TD*%
D10*
%TO.P,H3,1*%
%TO.N,N/C*%
X156750000Y-74500000D03*
%TD*%
%TO.P,J2,MP*%
%TO.N,N/C*%
%TA.AperFunction,SMDPad,CuDef*%
G36*
G01*
X152299999Y-70200000D02*
X153600001Y-70200000D01*
G75*
G02*
X153850000Y-70449999I0J-249999D01*
G01*
X153850000Y-71150001D01*
G75*
G02*
X153600001Y-71400000I-249999J0D01*
G01*
X152299999Y-71400000D01*
G75*
G02*
X152050000Y-71150001I0J249999D01*
G01*
X152050000Y-70449999D01*
G75*
G02*
X152299999Y-70200000I249999J0D01*
G01*
G37*
%TD.AperFunction*%
%TA.AperFunction,SMDPad,CuDef*%
G36*
G01*
X152299999Y-62600000D02*
X153600001Y-62600000D01*
G75*
G02*
X153850000Y-62849999I0J-249999D01*
G01*
X153850000Y-63550001D01*
G75*
G02*
X153600001Y-63800000I-249999J0D01*
G01*
X152299999Y-63800000D01*
G75*
G02*
X152050000Y-63550001I0J249999D01*
G01*
X152050000Y-62849999D01*
G75*
G02*
X152299999Y-62600000I249999J0D01*
G01*
G37*
%TD.AperFunction*%
%TO.P,J2,6*%
%TO.N,GND*%
%TA.AperFunction,SMDPad,CuDef*%
G36*
G01*
X149800000Y-69200000D02*
X151050000Y-69200000D01*
G75*
G02*
X151200000Y-69350000I0J-150000D01*
G01*
X151200000Y-69650000D01*
G75*
G02*
X151050000Y-69800000I-150000J0D01*
G01*
X149800000Y-69800000D01*
G75*
G02*
X149650000Y-69650000I0J150000D01*
G01*
X149650000Y-69350000D01*
G75*
G02*
X149800000Y-69200000I150000J0D01*
G01*
G37*
%TD.AperFunction*%
%TO.P,J2,5*%
%TO.N,Net-(J2-Pad5)*%
%TA.AperFunction,SMDPad,CuDef*%
G36*
G01*
X149800000Y-68200000D02*
X151050000Y-68200000D01*
G75*
G02*
X151200000Y-68350000I0J-150000D01*
G01*
X151200000Y-68650000D01*
G75*
G02*
X151050000Y-68800000I-150000J0D01*
G01*
X149800000Y-68800000D01*
G75*
G02*
X149650000Y-68650000I0J150000D01*
G01*
X149650000Y-68350000D01*
G75*
G02*
X149800000Y-68200000I150000J0D01*
G01*
G37*
%TD.AperFunction*%
%TO.P,J2,4*%
%TO.N,Net-(J2-Pad4)*%
%TA.AperFunction,SMDPad,CuDef*%
G36*
G01*
X149800000Y-67200000D02*
X151050000Y-67200000D01*
G75*
G02*
X151200000Y-67350000I0J-150000D01*
G01*
X151200000Y-67650000D01*
G75*
G02*
X151050000Y-67800000I-150000J0D01*
G01*
X149800000Y-67800000D01*
G75*
G02*
X149650000Y-67650000I0J150000D01*
G01*
X149650000Y-67350000D01*
G75*
G02*
X149800000Y-67200000I150000J0D01*
G01*
G37*
%TD.AperFunction*%
%TO.P,J2,3*%
%TO.N,Net-(J2-Pad3)*%
%TA.AperFunction,SMDPad,CuDef*%
G36*
G01*
X149800000Y-66200000D02*
X151050000Y-66200000D01*
G75*
G02*
X151200000Y-66350000I0J-150000D01*
G01*
X151200000Y-66650000D01*
G75*
G02*
X151050000Y-66800000I-150000J0D01*
G01*
X149800000Y-66800000D01*
G75*
G02*
X149650000Y-66650000I0J150000D01*
G01*
X149650000Y-66350000D01*
G75*
G02*
X149800000Y-66200000I150000J0D01*
G01*
G37*
%TD.AperFunction*%
%TO.P,J2,2*%
%TO.N,Net-(C8-Pad1)*%
%TA.AperFunction,SMDPad,CuDef*%
G36*
G01*
X149800000Y-65200000D02*
X151050000Y-65200000D01*
G75*
G02*
X151200000Y-65350000I0J-150000D01*
G01*
X151200000Y-65650000D01*
G75*
G02*
X151050000Y-65800000I-150000J0D01*
G01*
X149800000Y-65800000D01*
G75*
G02*
X149650000Y-65650000I0J150000D01*
G01*
X149650000Y-65350000D01*
G75*
G02*
X149800000Y-65200000I150000J0D01*
G01*
G37*
%TD.AperFunction*%
%TO.P,J2,1*%
%TO.N,Net-(J2-Pad1)*%
%TA.AperFunction,SMDPad,CuDef*%
G36*
G01*
X149800000Y-64200000D02*
X151050000Y-64200000D01*
G75*
G02*
X151200000Y-64350000I0J-150000D01*
G01*
X151200000Y-64650000D01*
G75*
G02*
X151050000Y-64800000I-150000J0D01*
G01*
X149800000Y-64800000D01*
G75*
G02*
X149650000Y-64650000I0J150000D01*
G01*
X149650000Y-64350000D01*
G75*
G02*
X149800000Y-64200000I150000J0D01*
G01*
G37*
%TD.AperFunction*%
%TD*%
D11*
%TO.P,Q1,3*%
%TO.N,GND*%
X120920000Y-56000000D03*
%TO.P,Q1,2*%
%TO.N,Net-(D1-Pad2)*%
X123460000Y-56000000D03*
D12*
%TO.P,Q1,1*%
%TO.N,Net-(Q1-Pad1)*%
X126000000Y-56000000D03*
%TD*%
D13*
%TO.P,D1,2*%
%TO.N,Net-(D1-Pad2)*%
X135000000Y-59080000D03*
D14*
%TO.P,D1,1*%
%TO.N,Batt+*%
X135000000Y-54000000D03*
%TD*%
D15*
%TO.P,U3,3*%
%TO.N,Net-(C8-Pad1)*%
X146000000Y-58000000D03*
%TO.P,U3,2*%
%TO.N,GND*%
X146950000Y-60000000D03*
%TO.P,U3,1*%
%TO.N,Batt+*%
X145050000Y-60000000D03*
%TD*%
D16*
%TO.P,U2,8*%
%TO.N,Net-(C8-Pad1)*%
X139095000Y-52350000D03*
%TO.P,U2,7*%
%TO.N,Net-(J2-Pad3)*%
X140365000Y-52350000D03*
%TO.P,U2,6*%
%TO.N,Net-(J2-Pad1)*%
X141635000Y-52350000D03*
%TO.P,U2,5*%
%TO.N,Net-(J2-Pad4)*%
X142905000Y-52350000D03*
%TO.P,U2,4*%
%TO.N,GND*%
X142905000Y-59650000D03*
%TO.P,U2,3*%
%TO.N,PWM*%
X141635000Y-59650000D03*
%TO.P,U2,2*%
%TO.N,Net-(U2-Pad2)*%
X140365000Y-59650000D03*
%TO.P,U2,1*%
%TO.N,Net-(J2-Pad5)*%
X139095000Y-59650000D03*
%TD*%
D17*
%TO.P,U1,17*%
%TO.N,GND*%
X142000000Y-69000000D03*
D18*
%TO.P,U1,8*%
%TO.N,Net-(U1-Pad8)*%
X139725000Y-66300000D03*
%TO.P,U1,9*%
%TO.N,Net-(U1-Pad9)*%
X139725000Y-71700000D03*
%TO.P,U1,7*%
%TO.N,GND*%
X140375000Y-66300000D03*
%TO.P,U1,10*%
%TO.N,Net-(R3-Pad2)*%
X140375000Y-71700000D03*
%TO.P,U1,6*%
%TO.N,GND*%
X141025000Y-66300000D03*
%TO.P,U1,11*%
%TO.N,Batt+*%
X141025000Y-71700000D03*
%TO.P,U1,5*%
%TO.N,Net-(U1-Pad5)*%
X141675000Y-66300000D03*
%TO.P,U1,12*%
%TO.N,Batt+*%
X141675000Y-71700000D03*
%TO.P,U1,4*%
%TO.N,Net-(C6-Pad1)*%
X142325000Y-66300000D03*
%TO.P,U1,13*%
%TO.N,Net-(C3-Pad2)*%
X142325000Y-71700000D03*
%TO.P,U1,3*%
%TO.N,Net-(R4-Pad2)*%
X142975000Y-66300000D03*
%TO.P,U1,14*%
%TO.N,Net-(U1-Pad14)*%
X142975000Y-71700000D03*
%TO.P,U1,2*%
%TO.N,Net-(R4-Pad1)*%
X143625000Y-66300000D03*
%TO.P,U1,15*%
%TO.N,PWM*%
X143625000Y-71700000D03*
%TO.P,U1,1*%
%TO.N,Net-(R4-Pad1)*%
X144275000Y-66300000D03*
%TO.P,U1,16*%
X144275000Y-71700000D03*
%TD*%
%TO.P,R5,MP*%
%TO.N,N/C*%
%TA.AperFunction,SMDPad,CuDef*%
G36*
G01*
X147050000Y-74299999D02*
X147050000Y-75600001D01*
G75*
G02*
X146800001Y-75850000I-249999J0D01*
G01*
X146099999Y-75850000D01*
G75*
G02*
X145850000Y-75600001I0J249999D01*
G01*
X145850000Y-74299999D01*
G75*
G02*
X146099999Y-74050000I249999J0D01*
G01*
X146800001Y-74050000D01*
G75*
G02*
X147050000Y-74299999I0J-249999D01*
G01*
G37*
%TD.AperFunction*%
%TA.AperFunction,SMDPad,CuDef*%
G36*
G01*
X150650000Y-74299999D02*
X150650000Y-75600001D01*
G75*
G02*
X150400001Y-75850000I-249999J0D01*
G01*
X149699999Y-75850000D01*
G75*
G02*
X149450000Y-75600001I0J249999D01*
G01*
X149450000Y-74299999D01*
G75*
G02*
X149699999Y-74050000I249999J0D01*
G01*
X150400001Y-74050000D01*
G75*
G02*
X150650000Y-74299999I0J-249999D01*
G01*
G37*
%TD.AperFunction*%
%TO.P,R5,2*%
%TO.N,GND*%
%TA.AperFunction,SMDPad,CuDef*%
G36*
G01*
X148050000Y-71800000D02*
X148050000Y-73050000D01*
G75*
G02*
X147900000Y-73200000I-150000J0D01*
G01*
X147600000Y-73200000D01*
G75*
G02*
X147450000Y-73050000I0J150000D01*
G01*
X147450000Y-71800000D01*
G75*
G02*
X147600000Y-71650000I150000J0D01*
G01*
X147900000Y-71650000D01*
G75*
G02*
X148050000Y-71800000I0J-150000D01*
G01*
G37*
%TD.AperFunction*%
%TO.P,R5,1*%
%TO.N,Net-(R4-Pad2)*%
%TA.AperFunction,SMDPad,CuDef*%
G36*
G01*
X149050000Y-71800000D02*
X149050000Y-73050000D01*
G75*
G02*
X148900000Y-73200000I-150000J0D01*
G01*
X148600000Y-73200000D01*
G75*
G02*
X148450000Y-73050000I0J150000D01*
G01*
X148450000Y-71800000D01*
G75*
G02*
X148600000Y-71650000I150000J0D01*
G01*
X148900000Y-71650000D01*
G75*
G02*
X149050000Y-71800000I0J-150000D01*
G01*
G37*
%TD.AperFunction*%
%TD*%
%TO.P,R4,2*%
%TO.N,Net-(R4-Pad2)*%
%TA.AperFunction,SMDPad,CuDef*%
G36*
G01*
X147450002Y-68512500D02*
X146549998Y-68512500D01*
G75*
G02*
X146300000Y-68262502I0J249998D01*
G01*
X146300000Y-67737498D01*
G75*
G02*
X146549998Y-67487500I249998J0D01*
G01*
X147450002Y-67487500D01*
G75*
G02*
X147700000Y-67737498I0J-249998D01*
G01*
X147700000Y-68262502D01*
G75*
G02*
X147450002Y-68512500I-249998J0D01*
G01*
G37*
%TD.AperFunction*%
%TO.P,R4,1*%
%TO.N,Net-(R4-Pad1)*%
%TA.AperFunction,SMDPad,CuDef*%
G36*
G01*
X147450002Y-70337500D02*
X146549998Y-70337500D01*
G75*
G02*
X146300000Y-70087502I0J249998D01*
G01*
X146300000Y-69562498D01*
G75*
G02*
X146549998Y-69312500I249998J0D01*
G01*
X147450002Y-69312500D01*
G75*
G02*
X147700000Y-69562498I0J-249998D01*
G01*
X147700000Y-70087502D01*
G75*
G02*
X147450002Y-70337500I-249998J0D01*
G01*
G37*
%TD.AperFunction*%
%TD*%
%TO.P,R3,2*%
%TO.N,Net-(R3-Pad2)*%
%TA.AperFunction,SMDPad,CuDef*%
G36*
G01*
X136650000Y-69200002D02*
X136650000Y-68299998D01*
G75*
G02*
X136899998Y-68050000I249998J0D01*
G01*
X137425002Y-68050000D01*
G75*
G02*
X137675000Y-68299998I0J-249998D01*
G01*
X137675000Y-69200002D01*
G75*
G02*
X137425002Y-69450000I-249998J0D01*
G01*
X136899998Y-69450000D01*
G75*
G02*
X136650000Y-69200002I0J249998D01*
G01*
G37*
%TD.AperFunction*%
%TO.P,R3,1*%
%TO.N,Net-(Q1-Pad1)*%
%TA.AperFunction,SMDPad,CuDef*%
G36*
G01*
X134825000Y-69200002D02*
X134825000Y-68299998D01*
G75*
G02*
X135074998Y-68050000I249998J0D01*
G01*
X135600002Y-68050000D01*
G75*
G02*
X135850000Y-68299998I0J-249998D01*
G01*
X135850000Y-69200002D01*
G75*
G02*
X135600002Y-69450000I-249998J0D01*
G01*
X135074998Y-69450000D01*
G75*
G02*
X134825000Y-69200002I0J249998D01*
G01*
G37*
%TD.AperFunction*%
%TD*%
%TO.P,R1,2*%
%TO.N,Net-(C3-Pad2)*%
%TA.AperFunction,SMDPad,CuDef*%
G36*
G01*
X124650000Y-72574999D02*
X124650000Y-75425001D01*
G75*
G02*
X124400001Y-75675000I-249999J0D01*
G01*
X123674999Y-75675000D01*
G75*
G02*
X123425000Y-75425001I0J249999D01*
G01*
X123425000Y-72574999D01*
G75*
G02*
X123674999Y-72325000I249999J0D01*
G01*
X124400001Y-72325000D01*
G75*
G02*
X124650000Y-72574999I0J-249999D01*
G01*
G37*
%TD.AperFunction*%
%TO.P,R1,1*%
%TO.N,Batt+*%
%TA.AperFunction,SMDPad,CuDef*%
G36*
G01*
X130575000Y-72574999D02*
X130575000Y-75425001D01*
G75*
G02*
X130325001Y-75675000I-249999J0D01*
G01*
X129599999Y-75675000D01*
G75*
G02*
X129350000Y-75425001I0J249999D01*
G01*
X129350000Y-72574999D01*
G75*
G02*
X129599999Y-72325000I249999J0D01*
G01*
X130325001Y-72325000D01*
G75*
G02*
X130575000Y-72574999I0J-249999D01*
G01*
G37*
%TD.AperFunction*%
%TD*%
D19*
%TO.P,L1,2*%
%TO.N,Net-(D1-Pad2)*%
X125000000Y-59050000D03*
%TO.P,L1,1*%
%TO.N,Net-(C3-Pad1)*%
X125000000Y-68950000D03*
%TD*%
D20*
%TO.P,J1,2*%
%TO.N,GND*%
X156500000Y-65000000D03*
%TO.P,J1,1*%
%TO.N,Batt+*%
X156500000Y-58500000D03*
%TD*%
%TO.P,D2,2*%
%TO.N,Net-(C3-Pad2)*%
X115000000Y-59000000D03*
%TO.P,D2,1*%
%TO.N,Net-(C3-Pad1)*%
X115000000Y-65500000D03*
%TD*%
%TO.P,C6,2*%
%TO.N,GND*%
%TA.AperFunction,SMDPad,CuDef*%
G36*
G01*
X139850000Y-63025000D02*
X139850000Y-63975000D01*
G75*
G02*
X139600000Y-64225000I-250000J0D01*
G01*
X139100000Y-64225000D01*
G75*
G02*
X138850000Y-63975000I0J250000D01*
G01*
X138850000Y-63025000D01*
G75*
G02*
X139100000Y-62775000I250000J0D01*
G01*
X139600000Y-62775000D01*
G75*
G02*
X139850000Y-63025000I0J-250000D01*
G01*
G37*
%TD.AperFunction*%
%TO.P,C6,1*%
%TO.N,Net-(C6-Pad1)*%
%TA.AperFunction,SMDPad,CuDef*%
G36*
G01*
X141750000Y-63025000D02*
X141750000Y-63975000D01*
G75*
G02*
X141500000Y-64225000I-250000J0D01*
G01*
X141000000Y-64225000D01*
G75*
G02*
X140750000Y-63975000I0J250000D01*
G01*
X140750000Y-63025000D01*
G75*
G02*
X141000000Y-62775000I250000J0D01*
G01*
X141500000Y-62775000D01*
G75*
G02*
X141750000Y-63025000I0J-250000D01*
G01*
G37*
%TD.AperFunction*%
%TD*%
%TO.P,C5,2*%
%TO.N,GND*%
%TA.AperFunction,SMDPad,CuDef*%
G36*
G01*
X136525000Y-72200000D02*
X137475000Y-72200000D01*
G75*
G02*
X137725000Y-72450000I0J-250000D01*
G01*
X137725000Y-72950000D01*
G75*
G02*
X137475000Y-73200000I-250000J0D01*
G01*
X136525000Y-73200000D01*
G75*
G02*
X136275000Y-72950000I0J250000D01*
G01*
X136275000Y-72450000D01*
G75*
G02*
X136525000Y-72200000I250000J0D01*
G01*
G37*
%TD.AperFunction*%
%TO.P,C5,1*%
%TO.N,Batt+*%
%TA.AperFunction,SMDPad,CuDef*%
G36*
G01*
X136525000Y-70300000D02*
X137475000Y-70300000D01*
G75*
G02*
X137725000Y-70550000I0J-250000D01*
G01*
X137725000Y-71050000D01*
G75*
G02*
X137475000Y-71300000I-250000J0D01*
G01*
X136525000Y-71300000D01*
G75*
G02*
X136275000Y-71050000I0J250000D01*
G01*
X136275000Y-70550000D01*
G75*
G02*
X136525000Y-70300000I250000J0D01*
G01*
G37*
%TD.AperFunction*%
%TD*%
%TO.P,C4,2*%
%TO.N,GND*%
%TA.AperFunction,SMDPad,CuDef*%
G36*
G01*
X145712500Y-64150003D02*
X145712500Y-62849997D01*
G75*
G02*
X145962497Y-62600000I249997J0D01*
G01*
X146787503Y-62600000D01*
G75*
G02*
X147037500Y-62849997I0J-249997D01*
G01*
X147037500Y-64150003D01*
G75*
G02*
X146787503Y-64400000I-249997J0D01*
G01*
X145962497Y-64400000D01*
G75*
G02*
X145712500Y-64150003I0J249997D01*
G01*
G37*
%TD.AperFunction*%
%TO.P,C4,1*%
%TO.N,Batt+*%
%TA.AperFunction,SMDPad,CuDef*%
G36*
G01*
X142587500Y-64150003D02*
X142587500Y-62849997D01*
G75*
G02*
X142837497Y-62600000I249997J0D01*
G01*
X143662503Y-62600000D01*
G75*
G02*
X143912500Y-62849997I0J-249997D01*
G01*
X143912500Y-64150003D01*
G75*
G02*
X143662503Y-64400000I-249997J0D01*
G01*
X142837497Y-64400000D01*
G75*
G02*
X142587500Y-64150003I0J249997D01*
G01*
G37*
%TD.AperFunction*%
%TD*%
%TO.P,C3,2*%
%TO.N,Net-(C3-Pad2)*%
%TA.AperFunction,SMDPad,CuDef*%
G36*
G01*
X135900000Y-75650003D02*
X135900000Y-74349997D01*
G75*
G02*
X136149997Y-74100000I249997J0D01*
G01*
X136975003Y-74100000D01*
G75*
G02*
X137225000Y-74349997I0J-249997D01*
G01*
X137225000Y-75650003D01*
G75*
G02*
X136975003Y-75900000I-249997J0D01*
G01*
X136149997Y-75900000D01*
G75*
G02*
X135900000Y-75650003I0J249997D01*
G01*
G37*
%TD.AperFunction*%
%TO.P,C3,1*%
%TO.N,Net-(C3-Pad1)*%
%TA.AperFunction,SMDPad,CuDef*%
G36*
G01*
X132775000Y-75650003D02*
X132775000Y-74349997D01*
G75*
G02*
X133024997Y-74100000I249997J0D01*
G01*
X133850003Y-74100000D01*
G75*
G02*
X134100000Y-74349997I0J-249997D01*
G01*
X134100000Y-75650003D01*
G75*
G02*
X133850003Y-75900000I-249997J0D01*
G01*
X133024997Y-75900000D01*
G75*
G02*
X132775000Y-75650003I0J249997D01*
G01*
G37*
%TD.AperFunction*%
%TD*%
%TO.P,C2,2*%
%TO.N,GND*%
%TA.AperFunction,SMDPad,CuDef*%
G36*
G01*
X142650000Y-75650003D02*
X142650000Y-74349997D01*
G75*
G02*
X142899997Y-74100000I249997J0D01*
G01*
X143725003Y-74100000D01*
G75*
G02*
X143975000Y-74349997I0J-249997D01*
G01*
X143975000Y-75650003D01*
G75*
G02*
X143725003Y-75900000I-249997J0D01*
G01*
X142899997Y-75900000D01*
G75*
G02*
X142650000Y-75650003I0J249997D01*
G01*
G37*
%TD.AperFunction*%
%TO.P,C2,1*%
%TO.N,Batt+*%
%TA.AperFunction,SMDPad,CuDef*%
G36*
G01*
X139525000Y-75650003D02*
X139525000Y-74349997D01*
G75*
G02*
X139774997Y-74100000I249997J0D01*
G01*
X140600003Y-74100000D01*
G75*
G02*
X140850000Y-74349997I0J-249997D01*
G01*
X140850000Y-75650003D01*
G75*
G02*
X140600003Y-75900000I-249997J0D01*
G01*
X139774997Y-75900000D01*
G75*
G02*
X139525000Y-75650003I0J249997D01*
G01*
G37*
%TD.AperFunction*%
%TD*%
D10*
%TO.P,H1,1*%
%TO.N,N/C*%
X114500000Y-53250000D03*
%TD*%
%TO.P,H5,1*%
%TO.N,N/C*%
X134000000Y-65750000D03*
%TD*%
%TO.P,H4,1*%
%TO.N,N/C*%
X156750000Y-53250000D03*
%TD*%
%TO.P,H2,1*%
%TO.N,N/C*%
X114500000Y-74500000D03*
%TD*%
D21*
%TO.N,GND*%
X137000000Y-72700000D03*
X158000000Y-63500000D03*
X157000000Y-63500000D03*
X156000000Y-63500000D03*
X155000000Y-63500000D03*
X155000000Y-64500000D03*
X156000000Y-64500000D03*
X157000000Y-64500000D03*
X158000000Y-64500000D03*
X156000000Y-66500000D03*
X157000000Y-66500000D03*
X158000000Y-66500000D03*
X155000000Y-66500000D03*
X155000000Y-65500000D03*
X156000000Y-65500000D03*
X158000000Y-65500000D03*
X157000000Y-65500000D03*
X147750000Y-72425000D03*
X140900000Y-68000000D03*
X141700000Y-68000000D03*
X142500000Y-68000000D03*
X143300000Y-68000000D03*
X140900000Y-68800000D03*
X141700000Y-68800000D03*
X142500000Y-68800000D03*
X143300000Y-68800000D03*
X143300000Y-69600000D03*
X142500000Y-69600000D03*
X141700000Y-69600000D03*
X140900000Y-69600000D03*
X140900000Y-70400000D03*
X141700000Y-70400000D03*
X142500000Y-70400000D03*
X143300000Y-70400000D03*
X139350000Y-63500000D03*
X142838803Y-60100000D03*
X146950000Y-60100000D03*
X146375000Y-63500000D03*
X151000000Y-70500000D03*
X143312500Y-75000000D03*
X148650000Y-60600000D03*
%TO.N,Net-(C3-Pad2)*%
X122700000Y-72200000D03*
X123500000Y-72200000D03*
X124300000Y-72200000D03*
X125100000Y-72200000D03*
X124700000Y-72900000D03*
X123900000Y-72900000D03*
X123100000Y-72900000D03*
X125100000Y-73600000D03*
X122700000Y-73600000D03*
X124300000Y-73600000D03*
X123500000Y-73600000D03*
X123900000Y-74300000D03*
X123100000Y-74300000D03*
X124700000Y-74300000D03*
X125100000Y-75000000D03*
X123900000Y-75700000D03*
X123100000Y-75700000D03*
X124700000Y-75700000D03*
X123500000Y-75000000D03*
X124300000Y-75000000D03*
X122700000Y-75000000D03*
X113000000Y-57300000D03*
X142400000Y-73300000D03*
X136562500Y-75000000D03*
X136562500Y-75000000D03*
X113800000Y-57300000D03*
X114600000Y-57300000D03*
X115400000Y-57300000D03*
X116200000Y-57300000D03*
X116600000Y-58000000D03*
X115000000Y-58000000D03*
X114200000Y-58000000D03*
X115800000Y-58000000D03*
X113400000Y-58000000D03*
X117000000Y-57300000D03*
X116200000Y-58700000D03*
X116600000Y-59400000D03*
X114200000Y-59400000D03*
X114600000Y-58700000D03*
X115000000Y-59400000D03*
X113400000Y-59400000D03*
X115800000Y-59400000D03*
X117000000Y-58700000D03*
X113800000Y-58700000D03*
X115400000Y-58700000D03*
X113000000Y-58700000D03*
X115800000Y-60800000D03*
X113000000Y-60100000D03*
X115400000Y-60100000D03*
X114200000Y-60800000D03*
X116600000Y-60800000D03*
X115000000Y-60800000D03*
X113800000Y-60100000D03*
X117000000Y-60100000D03*
X116200000Y-60100000D03*
X114600000Y-60100000D03*
X113400000Y-60800000D03*
%TO.N,Net-(Q1-Pad1)*%
X127300000Y-62400000D03*
X135300000Y-62600000D03*
%TO.N,Batt+*%
X158000000Y-59000000D03*
X158000000Y-60000000D03*
X157000000Y-60000000D03*
X157000000Y-59000000D03*
X156000000Y-59000000D03*
X156000000Y-60000000D03*
X155000000Y-60000000D03*
X155000000Y-59000000D03*
X155000000Y-58000000D03*
X156000000Y-58000000D03*
X157000000Y-58000000D03*
X158000000Y-58000000D03*
X158000000Y-57000000D03*
X157000000Y-57000000D03*
X156000000Y-57000000D03*
X155000000Y-57000000D03*
X129250000Y-72750000D03*
X130250000Y-72750000D03*
X131250000Y-72750000D03*
X130750000Y-73500000D03*
X129750000Y-73500000D03*
X128750000Y-73500000D03*
X131250000Y-74250000D03*
X129250000Y-74250000D03*
X130250000Y-74250000D03*
X129250000Y-75750000D03*
X130250000Y-75750000D03*
X131250000Y-75750000D03*
X130750000Y-75000000D03*
X128750000Y-75000000D03*
X129750000Y-75000000D03*
X144000000Y-58000000D03*
X140193750Y-74993750D03*
%TO.N,Net-(J2-Pad3)*%
X141440186Y-54431777D03*
X151400000Y-55500000D03*
%TO.N,Net-(C8-Pad1)*%
X145800000Y-55500000D03*
X140800000Y-55200000D03*
%TO.N,PWM*%
X142100000Y-61300000D03*
X146387347Y-65912653D03*
%TO.N,Net-(C3-Pad1)*%
X133500000Y-72400000D03*
X127700000Y-71900000D03*
%TD*%
D22*
%TO.N,GND*%
X141025000Y-68025000D02*
X141150000Y-68150000D01*
X141025000Y-66300000D02*
X141025000Y-68025000D01*
X140375000Y-67375000D02*
X142000000Y-69000000D01*
X140375000Y-66300000D02*
X140375000Y-67375000D01*
X140375000Y-64525000D02*
X139350000Y-63500000D01*
X140375000Y-66300000D02*
X140375000Y-64525000D01*
X141150000Y-68150000D02*
X142000000Y-69000000D01*
X150425000Y-69925000D02*
X151000000Y-70500000D01*
X150425000Y-69500000D02*
X150425000Y-69925000D01*
X149200000Y-60050000D02*
X148650000Y-60600000D01*
X149200000Y-56000000D02*
X149200000Y-60050000D01*
D23*
%TO.N,Net-(C3-Pad2)*%
X142325000Y-73225000D02*
X142400000Y-73300000D01*
X142325000Y-71700000D02*
X142325000Y-73225000D01*
X135087499Y-76475001D02*
X136562500Y-75000000D01*
X126875001Y-76475001D02*
X135087499Y-76475001D01*
X124700000Y-74300000D02*
X126875001Y-76475001D01*
D24*
%TO.N,Net-(D1-Pad2)*%
X124037498Y-59050000D02*
X123347499Y-58360001D01*
X123347499Y-58360001D02*
X123347499Y-57371216D01*
D25*
X125000000Y-59050000D02*
X124037498Y-59050000D01*
D23*
X125000000Y-57540000D02*
X123460000Y-56000000D01*
X125000000Y-59050000D02*
X125000000Y-57540000D01*
%TO.N,Net-(Q1-Pad1)*%
X128025001Y-61674999D02*
X127300000Y-62400000D01*
X128025001Y-56822501D02*
X128025001Y-61674999D01*
X127202500Y-56000000D02*
X128025001Y-56822501D01*
X126000000Y-56000000D02*
X127202500Y-56000000D01*
X136075001Y-68012499D02*
X135337500Y-68750000D01*
X136075001Y-63375001D02*
X136075001Y-68012499D01*
X135300000Y-62600000D02*
X136075001Y-63375001D01*
%TO.N,Net-(R3-Pad2)*%
X137162500Y-68750000D02*
X138700000Y-70287500D01*
X140375000Y-72650000D02*
X140375000Y-71700000D01*
X139289999Y-72725001D02*
X140299999Y-72725001D01*
X140299999Y-72725001D02*
X140375000Y-72650000D01*
X138700000Y-72135002D02*
X139289999Y-72725001D01*
X138700000Y-70287500D02*
X138700000Y-72135002D01*
D25*
%TO.N,Batt+*%
X129962500Y-59037500D02*
X129962500Y-73787500D01*
X135000000Y-54000000D02*
X129962500Y-59037500D01*
X129962500Y-73787500D02*
X129962500Y-74000000D01*
D23*
X137000000Y-71071412D02*
X137000000Y-70800000D01*
X139103598Y-73175010D02*
X137000000Y-71071412D01*
X140499989Y-73175011D02*
X139103598Y-73175010D01*
X141025000Y-72650000D02*
X140499989Y-73175011D01*
X141025000Y-71700000D02*
X141025000Y-72650000D01*
X133200000Y-70800000D02*
X131250000Y-72750000D01*
X137000000Y-70800000D02*
X133200000Y-70800000D01*
X130250000Y-75500000D02*
X130750000Y-75000000D01*
X130250000Y-75750000D02*
X130250000Y-75500000D01*
X129250000Y-75500000D02*
X128750000Y-75000000D01*
X129250000Y-75750000D02*
X129250000Y-75500000D01*
X131250000Y-75500000D02*
X130750000Y-75000000D01*
X131250000Y-75750000D02*
X131250000Y-75500000D01*
X145050000Y-59050000D02*
X144000000Y-58000000D01*
X145050000Y-60000000D02*
X145050000Y-59050000D01*
X143250000Y-61800000D02*
X145050000Y-60000000D01*
X143250000Y-63500000D02*
X143250000Y-61800000D01*
X141025000Y-71700000D02*
X141675000Y-71700000D01*
X141675000Y-73512500D02*
X141675000Y-71700000D01*
X140187500Y-75000000D02*
X140193750Y-74993750D01*
X132325001Y-71674999D02*
X131250000Y-72750000D01*
X133848001Y-71674999D02*
X132325001Y-71674999D01*
X135698012Y-73525010D02*
X133848001Y-71674999D01*
X138712510Y-73525010D02*
X135698012Y-73525010D01*
X140187500Y-75000000D02*
X138712510Y-73525010D01*
X140193750Y-74993750D02*
X141675000Y-73512500D01*
%TO.N,Net-(J2-Pad5)*%
X142699299Y-64824989D02*
X146324989Y-64824989D01*
X150000000Y-68500000D02*
X150675000Y-68500000D01*
X142262490Y-62974300D02*
X142262490Y-64388180D01*
X140483190Y-61195000D02*
X142262490Y-62974300D01*
X139540000Y-61195000D02*
X140483190Y-61195000D01*
X142262490Y-64388180D02*
X142699299Y-64824989D01*
X139095000Y-60750000D02*
X139540000Y-61195000D01*
X139095000Y-59650000D02*
X139095000Y-60750000D01*
X149978232Y-68500000D02*
X150425000Y-68500000D01*
X149324990Y-67846758D02*
X149978232Y-68500000D01*
X146735348Y-65187652D02*
X149324990Y-67777294D01*
X146437652Y-65187652D02*
X146735348Y-65187652D01*
X149324990Y-67777294D02*
X149324990Y-67846758D01*
X146324989Y-65074989D02*
X146437652Y-65187652D01*
X146324989Y-64824989D02*
X146324989Y-65074989D01*
%TO.N,Net-(J2-Pad4)*%
X144800000Y-54245000D02*
X142905000Y-52350000D01*
X145775001Y-59138591D02*
X144800000Y-58163590D01*
X145775001Y-60260003D02*
X145775001Y-59138591D01*
X147362510Y-61847512D02*
X145775001Y-60260003D01*
X147362510Y-64962510D02*
X147362510Y-61847512D01*
X144800000Y-58163590D02*
X144800000Y-54245000D01*
X149900000Y-67500000D02*
X147362510Y-64962510D01*
X150675000Y-67500000D02*
X149900000Y-67500000D01*
%TO.N,Net-(J2-Pad3)*%
X140365000Y-53356591D02*
X141440186Y-54431777D01*
X140365000Y-52350000D02*
X140365000Y-53356591D01*
X150425000Y-66500000D02*
X151200000Y-66500000D01*
X151500000Y-66500000D02*
X150425000Y-66500000D01*
X151525010Y-66474990D02*
X151500000Y-66500000D01*
X151525010Y-63588200D02*
X151525010Y-66474990D01*
X151400000Y-63463190D02*
X151525010Y-63588200D01*
X151400000Y-55500000D02*
X151400000Y-63463190D01*
%TO.N,Net-(C8-Pad1)*%
X146650000Y-58000000D02*
X146000000Y-58000000D01*
X147812520Y-59162520D02*
X146650000Y-58000000D01*
X147812520Y-63412520D02*
X147812520Y-59162520D01*
X149900000Y-65500000D02*
X147812520Y-63412520D01*
X150675000Y-65500000D02*
X149900000Y-65500000D01*
X146000000Y-55700000D02*
X145800000Y-55500000D01*
X146000000Y-58000000D02*
X146000000Y-55700000D01*
X139095000Y-53495000D02*
X139095000Y-52350000D01*
X140800000Y-55200000D02*
X139095000Y-53495000D01*
%TO.N,PWM*%
X141635000Y-60835000D02*
X142100000Y-61300000D01*
X141635000Y-59650000D02*
X141635000Y-60835000D01*
X146787346Y-66312652D02*
X147012652Y-66312652D01*
X146387347Y-65912653D02*
X146787346Y-66312652D01*
X148515297Y-67815297D02*
X148515297Y-69309317D01*
X148515297Y-69309317D02*
X149505980Y-70300000D01*
X147012652Y-66312652D02*
X148515297Y-67815297D01*
X149505980Y-70300000D02*
X150000000Y-70300000D01*
X143625000Y-72510002D02*
X143625000Y-71700000D01*
X144640008Y-73525010D02*
X143625000Y-72510002D01*
X149096758Y-73525010D02*
X144640008Y-73525010D01*
X150000000Y-72621768D02*
X149096758Y-73525010D01*
X150000000Y-70300000D02*
X150000000Y-72621768D01*
%TO.N,Net-(J2-Pad1)*%
X150425000Y-55686810D02*
X150425000Y-64500000D01*
X145913189Y-51174999D02*
X150425000Y-55686810D01*
X141635000Y-51250000D02*
X141710001Y-51174999D01*
X141710001Y-51174999D02*
X145913189Y-51174999D01*
X141635000Y-52350000D02*
X141635000Y-51250000D01*
D26*
%TO.N,Net-(C3-Pad1)*%
X118450000Y-68950000D02*
X115000000Y-65500000D01*
X125000000Y-68950000D02*
X118450000Y-68950000D01*
D23*
X133437500Y-72462500D02*
X133500000Y-72400000D01*
X133437500Y-75000000D02*
X133437500Y-72462500D01*
X125000000Y-69200000D02*
X125000000Y-68950000D01*
D27*
X127700000Y-71900000D02*
X125000000Y-69200000D01*
D23*
%TO.N,Net-(C6-Pad1)*%
X141250000Y-64414998D02*
X142325000Y-65489998D01*
X142325000Y-65489998D02*
X142325000Y-66300000D01*
X141250000Y-63500000D02*
X141250000Y-64414998D01*
%TO.N,Net-(R4-Pad2)*%
X142975000Y-65489998D02*
X142975000Y-66300000D01*
X143189999Y-65274999D02*
X142975000Y-65489998D01*
X144710001Y-65274999D02*
X143189999Y-65274999D01*
X147000000Y-67564998D02*
X144710001Y-65274999D01*
X147000000Y-68000000D02*
X147000000Y-67564998D01*
X148750000Y-71650000D02*
X148750000Y-72425000D01*
X148025010Y-70925010D02*
X148750000Y-71650000D01*
X148025010Y-69025010D02*
X148025010Y-70925010D01*
X147000000Y-68000000D02*
X148025010Y-69025010D01*
%TO.N,Net-(R4-Pad1)*%
X145125000Y-71700000D02*
X147000000Y-69825000D01*
X144275000Y-71700000D02*
X145125000Y-71700000D01*
X144275000Y-67100000D02*
X144275000Y-66300000D01*
X147000000Y-69825000D02*
X144275000Y-67100000D01*
X144275000Y-66300000D02*
X143625000Y-66300000D01*
%TO.N,Net-(C8-Pad1)*%
X146300000Y-56000000D02*
X145800000Y-55500000D01*
X147300000Y-56000000D02*
X146300000Y-56000000D01*
%TD*%
D28*
%TO.N,Batt+*%
X137373000Y-55701715D02*
X135689346Y-57595825D01*
X135476912Y-57507832D01*
X135161033Y-57445000D01*
X134838967Y-57445000D01*
X134523088Y-57507832D01*
X134225537Y-57631082D01*
X133957748Y-57810013D01*
X133730013Y-58037748D01*
X133551082Y-58305537D01*
X133427832Y-58603088D01*
X133365000Y-58918967D01*
X133365000Y-59241033D01*
X133427832Y-59556912D01*
X133551082Y-59854463D01*
X133607120Y-59938330D01*
X133405079Y-60165626D01*
X133390442Y-60185765D01*
X133380016Y-60208373D01*
X133374200Y-60232581D01*
X133373000Y-60250000D01*
X133373000Y-63442993D01*
X133304321Y-63456654D01*
X132870279Y-63636440D01*
X132479651Y-63897450D01*
X132147450Y-64229651D01*
X131886440Y-64620279D01*
X131706654Y-65054321D01*
X131615000Y-65515098D01*
X131615000Y-65984902D01*
X131706654Y-66445679D01*
X131886440Y-66879721D01*
X132147450Y-67270349D01*
X132479651Y-67602550D01*
X132870279Y-67863560D01*
X133304321Y-68043346D01*
X133373000Y-68057007D01*
X133373000Y-71369985D01*
X133198102Y-71404774D01*
X133009744Y-71482795D01*
X132840226Y-71596063D01*
X132696063Y-71740226D01*
X132582795Y-71909744D01*
X132504774Y-72098102D01*
X132465000Y-72298061D01*
X132465000Y-72501939D01*
X132504774Y-72701898D01*
X132582795Y-72890256D01*
X132677501Y-73031994D01*
X132677501Y-73533616D01*
X132531612Y-73611595D01*
X132397037Y-73722037D01*
X132286595Y-73856612D01*
X132204528Y-74010148D01*
X132153992Y-74176743D01*
X132136928Y-74349997D01*
X132136928Y-75650003D01*
X132143330Y-75715001D01*
X128377000Y-75715001D01*
X128377000Y-72686711D01*
X128503937Y-72559774D01*
X128617205Y-72390256D01*
X128695226Y-72201898D01*
X128735000Y-72001939D01*
X128735000Y-71798061D01*
X128695226Y-71598102D01*
X128617205Y-71409744D01*
X128503937Y-71240226D01*
X128377000Y-71113289D01*
X128377000Y-62397802D01*
X128536003Y-62238798D01*
X128565002Y-62215000D01*
X128659975Y-62099275D01*
X128730547Y-61967246D01*
X128774004Y-61823985D01*
X128785001Y-61712332D01*
X128785001Y-61712323D01*
X128788677Y-61675000D01*
X128785001Y-61637677D01*
X128785001Y-56859823D01*
X128788677Y-56822500D01*
X128785001Y-56785177D01*
X128785001Y-56785168D01*
X128774004Y-56673515D01*
X128730547Y-56530254D01*
X128659975Y-56398224D01*
X128588800Y-56311498D01*
X128565002Y-56282500D01*
X128536005Y-56258703D01*
X128377000Y-56099698D01*
X128377000Y-51627000D01*
X137373000Y-51627000D01*
X137373000Y-55701715D01*
%TA.AperFunction,Conductor*%
D29*
G36*
X137373000Y-55701715D02*
G01*
X135689346Y-57595825D01*
X135476912Y-57507832D01*
X135161033Y-57445000D01*
X134838967Y-57445000D01*
X134523088Y-57507832D01*
X134225537Y-57631082D01*
X133957748Y-57810013D01*
X133730013Y-58037748D01*
X133551082Y-58305537D01*
X133427832Y-58603088D01*
X133365000Y-58918967D01*
X133365000Y-59241033D01*
X133427832Y-59556912D01*
X133551082Y-59854463D01*
X133607120Y-59938330D01*
X133405079Y-60165626D01*
X133390442Y-60185765D01*
X133380016Y-60208373D01*
X133374200Y-60232581D01*
X133373000Y-60250000D01*
X133373000Y-63442993D01*
X133304321Y-63456654D01*
X132870279Y-63636440D01*
X132479651Y-63897450D01*
X132147450Y-64229651D01*
X131886440Y-64620279D01*
X131706654Y-65054321D01*
X131615000Y-65515098D01*
X131615000Y-65984902D01*
X131706654Y-66445679D01*
X131886440Y-66879721D01*
X132147450Y-67270349D01*
X132479651Y-67602550D01*
X132870279Y-67863560D01*
X133304321Y-68043346D01*
X133373000Y-68057007D01*
X133373000Y-71369985D01*
X133198102Y-71404774D01*
X133009744Y-71482795D01*
X132840226Y-71596063D01*
X132696063Y-71740226D01*
X132582795Y-71909744D01*
X132504774Y-72098102D01*
X132465000Y-72298061D01*
X132465000Y-72501939D01*
X132504774Y-72701898D01*
X132582795Y-72890256D01*
X132677501Y-73031994D01*
X132677501Y-73533616D01*
X132531612Y-73611595D01*
X132397037Y-73722037D01*
X132286595Y-73856612D01*
X132204528Y-74010148D01*
X132153992Y-74176743D01*
X132136928Y-74349997D01*
X132136928Y-75650003D01*
X132143330Y-75715001D01*
X128377000Y-75715001D01*
X128377000Y-72686711D01*
X128503937Y-72559774D01*
X128617205Y-72390256D01*
X128695226Y-72201898D01*
X128735000Y-72001939D01*
X128735000Y-71798061D01*
X128695226Y-71598102D01*
X128617205Y-71409744D01*
X128503937Y-71240226D01*
X128377000Y-71113289D01*
X128377000Y-62397802D01*
X128536003Y-62238798D01*
X128565002Y-62215000D01*
X128659975Y-62099275D01*
X128730547Y-61967246D01*
X128774004Y-61823985D01*
X128785001Y-61712332D01*
X128785001Y-61712323D01*
X128788677Y-61675000D01*
X128785001Y-61637677D01*
X128785001Y-56859823D01*
X128788677Y-56822500D01*
X128785001Y-56785177D01*
X128785001Y-56785168D01*
X128774004Y-56673515D01*
X128730547Y-56530254D01*
X128659975Y-56398224D01*
X128588800Y-56311498D01*
X128565002Y-56282500D01*
X128536005Y-56258703D01*
X128377000Y-56099698D01*
X128377000Y-51627000D01*
X137373000Y-51627000D01*
X137373000Y-55701715D01*
G37*
%TD.AperFunction*%
%TD*%
D28*
%TO.N,Net-(C3-Pad1)*%
X126304774Y-62701898D02*
X126382795Y-62890256D01*
X126496063Y-63059774D01*
X126640226Y-63203937D01*
X126809744Y-63317205D01*
X126998102Y-63395226D01*
X127198061Y-63435000D01*
X127401939Y-63435000D01*
X127601898Y-63395226D01*
X127623000Y-63386485D01*
X127623000Y-71873000D01*
X126084828Y-71873000D01*
X126017205Y-71709744D01*
X125903937Y-71540226D01*
X125759774Y-71396063D01*
X125590256Y-71282795D01*
X125401898Y-71204774D01*
X125201939Y-71165000D01*
X124998061Y-71165000D01*
X124798102Y-71204774D01*
X124700000Y-71245409D01*
X124601898Y-71204774D01*
X124401939Y-71165000D01*
X124198061Y-71165000D01*
X123998102Y-71204774D01*
X123900000Y-71245409D01*
X123801898Y-71204774D01*
X123601939Y-71165000D01*
X123398061Y-71165000D01*
X123198102Y-71204774D01*
X123100000Y-71245409D01*
X123001898Y-71204774D01*
X122801939Y-71165000D01*
X122598061Y-71165000D01*
X122398102Y-71204774D01*
X122209744Y-71282795D01*
X122040226Y-71396063D01*
X121896063Y-71540226D01*
X121782795Y-71709744D01*
X121715172Y-71873000D01*
X112660000Y-71873000D01*
X112660000Y-62627000D01*
X126289876Y-62627000D01*
X126304774Y-62701898D01*
%TA.AperFunction,Conductor*%
D29*
G36*
X126304774Y-62701898D02*
G01*
X126382795Y-62890256D01*
X126496063Y-63059774D01*
X126640226Y-63203937D01*
X126809744Y-63317205D01*
X126998102Y-63395226D01*
X127198061Y-63435000D01*
X127401939Y-63435000D01*
X127601898Y-63395226D01*
X127623000Y-63386485D01*
X127623000Y-71873000D01*
X126084828Y-71873000D01*
X126017205Y-71709744D01*
X125903937Y-71540226D01*
X125759774Y-71396063D01*
X125590256Y-71282795D01*
X125401898Y-71204774D01*
X125201939Y-71165000D01*
X124998061Y-71165000D01*
X124798102Y-71204774D01*
X124700000Y-71245409D01*
X124601898Y-71204774D01*
X124401939Y-71165000D01*
X124198061Y-71165000D01*
X123998102Y-71204774D01*
X123900000Y-71245409D01*
X123801898Y-71204774D01*
X123601939Y-71165000D01*
X123398061Y-71165000D01*
X123198102Y-71204774D01*
X123100000Y-71245409D01*
X123001898Y-71204774D01*
X122801939Y-71165000D01*
X122598061Y-71165000D01*
X122398102Y-71204774D01*
X122209744Y-71282795D01*
X122040226Y-71396063D01*
X121896063Y-71540226D01*
X121782795Y-71709744D01*
X121715172Y-71873000D01*
X112660000Y-71873000D01*
X112660000Y-62627000D01*
X126289876Y-62627000D01*
X126304774Y-62701898D01*
G37*
%TD.AperFunction*%
%TD*%
M02*
