%TF.GenerationSoftware,KiCad,Pcbnew,(5.1.9-0-10_14)*%
%TF.CreationDate,2021-02-28T00:05:41+08:00*%
%TF.ProjectId,xhp70-driver,78687037-302d-4647-9269-7665722e6b69,rev?*%
%TF.SameCoordinates,Original*%
%TF.FileFunction,Soldermask,Bot*%
%TF.FilePolarity,Negative*%
%FSLAX46Y46*%
G04 Gerber Fmt 4.6, Leading zero omitted, Abs format (unit mm)*
G04 Created by KiCad (PCBNEW (5.1.9-0-10_14)) date 2021-02-28 00:05:41*
%MOMM*%
%LPD*%
G01*
G04 APERTURE LIST*
%ADD10C,3.500000*%
%ADD11O,1.905000X2.000000*%
%ADD12R,1.905000X2.000000*%
%ADD13O,2.000000X2.000000*%
%ADD14R,2.000000X2.000000*%
G04 APERTURE END LIST*
D10*
%TO.C,H3*%
X156750000Y-74500000D03*
%TD*%
D11*
%TO.C,Q1*%
X120920000Y-56000000D03*
X123460000Y-56000000D03*
D12*
X126000000Y-56000000D03*
%TD*%
D13*
%TO.C,D1*%
X135000000Y-59080000D03*
D14*
X135000000Y-54000000D03*
%TD*%
%TO.C,R2*%
G36*
G01*
X124687500Y-72575000D02*
X124687500Y-75425000D01*
G75*
G02*
X124437500Y-75675000I-250000J0D01*
G01*
X123712500Y-75675000D01*
G75*
G02*
X123462500Y-75425000I0J250000D01*
G01*
X123462500Y-72575000D01*
G75*
G02*
X123712500Y-72325000I250000J0D01*
G01*
X124437500Y-72325000D01*
G75*
G02*
X124687500Y-72575000I0J-250000D01*
G01*
G37*
G36*
G01*
X130612500Y-72575000D02*
X130612500Y-75425000D01*
G75*
G02*
X130362500Y-75675000I-250000J0D01*
G01*
X129637500Y-75675000D01*
G75*
G02*
X129387500Y-75425000I0J250000D01*
G01*
X129387500Y-72575000D01*
G75*
G02*
X129637500Y-72325000I250000J0D01*
G01*
X130362500Y-72325000D01*
G75*
G02*
X130612500Y-72575000I0J-250000D01*
G01*
G37*
%TD*%
%TO.C,C1*%
G36*
G01*
X142650000Y-75650001D02*
X142650000Y-74349999D01*
G75*
G02*
X142899999Y-74100000I249999J0D01*
G01*
X143725001Y-74100000D01*
G75*
G02*
X143975000Y-74349999I0J-249999D01*
G01*
X143975000Y-75650001D01*
G75*
G02*
X143725001Y-75900000I-249999J0D01*
G01*
X142899999Y-75900000D01*
G75*
G02*
X142650000Y-75650001I0J249999D01*
G01*
G37*
G36*
G01*
X139525000Y-75650001D02*
X139525000Y-74349999D01*
G75*
G02*
X139774999Y-74100000I249999J0D01*
G01*
X140600001Y-74100000D01*
G75*
G02*
X140850000Y-74349999I0J-249999D01*
G01*
X140850000Y-75650001D01*
G75*
G02*
X140600001Y-75900000I-249999J0D01*
G01*
X139774999Y-75900000D01*
G75*
G02*
X139525000Y-75650001I0J249999D01*
G01*
G37*
%TD*%
D10*
%TO.C,H1*%
X114500000Y-53250000D03*
%TD*%
%TO.C,H5*%
X134000000Y-65750000D03*
%TD*%
%TO.C,H4*%
X156750000Y-53250000D03*
%TD*%
%TO.C,H2*%
X114500000Y-74500000D03*
%TD*%
M02*
